M48
; DRILL file KiCad 10.0.4 date 2026-07-19T13:19:42
; FORMAT={-:-/ absolute / metric / decimal}
; #@! TF.CreationDate,2026-07-19T13:19:42-05:00
; #@! TF.GenerationSoftware,Kicad,Pcbnew,10.0.4
; #@! TF.FileFunction,MixedPlating,1,2
FMAT,2
METRIC
; #@! TA.AperFunction,Plated,PTH,ComponentDrill
T1C0.300
; #@! TA.AperFunction,Plated,PTH,ViaDrill
T2C0.400
; #@! TA.AperFunction,Plated,PTH,ComponentDrill
T3C0.500
; #@! TA.AperFunction,Plated,PTH,ComponentDrill
T4C0.700
; #@! TA.AperFunction,Plated,PTH,ComponentDrill
T5C0.800
; #@! TA.AperFunction,Plated,PTH,ComponentDrill
T6C1.000
; #@! TA.AperFunction,Plated,PTH,ComponentDrill
T7C1.100
; #@! TA.AperFunction,Plated,PTH,ComponentDrill
T8C2.200
; #@! TA.AperFunction,Plated,PTH,ComponentDrill
T9C4.300
%
G90
G05
T1
X67.135Y-69.725
X67.135Y-71.225
X67.135Y-77.225
X67.135Y-78.725
X68.135Y-69.725
X68.135Y-71.225
X68.135Y-77.225
X68.135Y-78.725
X69.135Y-69.725
X69.135Y-71.225
X69.135Y-77.225
X69.135Y-78.725
X70.135Y-69.725
X70.135Y-71.225
X70.135Y-77.225
X70.135Y-78.725
X71.135Y-69.725
X71.135Y-71.225
X71.135Y-77.225
X71.135Y-78.725
X75.5Y-132.505
X75.5Y-134.005
X75.5Y-140.005
X75.5Y-141.505
X76.5Y-132.505
X76.5Y-134.005
X76.5Y-140.005
X76.5Y-141.505
X77.5Y-132.505
X77.5Y-134.005
X77.5Y-140.005
X77.5Y-141.505
X78.5Y-132.505
X78.5Y-134.005
X78.5Y-140.005
X78.5Y-141.505
X79.5Y-132.505
X79.5Y-134.005
X79.5Y-140.005
X79.5Y-141.505
X93.5Y-99.0
X93.5Y-100.0
X93.5Y-101.0
X93.5Y-102.0
X93.5Y-103.0
X95.0Y-99.0
X95.0Y-100.0
X95.0Y-101.0
X95.0Y-102.0
X95.0Y-103.0
X101.0Y-99.0
X101.0Y-100.0
X101.0Y-101.0
X101.0Y-102.0
X101.0Y-103.0
X102.5Y-99.0
X102.5Y-100.0
X102.5Y-101.0
X102.5Y-102.0
X102.5Y-103.0
T2
X41.0Y-108.0
X51.0Y-98.0
X55.0Y-134.08
X59.0Y-109.0
X63.5Y-78.0
X71.0Y-126.0
X71.0Y-133.0
X72.0Y-124.5
X72.0Y-132.0
X78.0Y-81.5
X78.5Y-78.5
X81.0Y-78.5
X88.5Y-109.0
X89.5Y-107.5
X89.5Y-124.5
X90.5Y-92.0
X90.5Y-126.961
X90.5Y-133.0
X91.5Y-110.0
X91.5Y-126.0
X93.25Y-90.75
T3
X67.635Y-72.725
X67.635Y-74.225
X67.635Y-75.725
X69.135Y-72.725
X69.135Y-74.225
X69.135Y-75.725
X70.635Y-72.725
X70.635Y-74.225
X70.635Y-75.725
X76.0Y-135.505
X76.0Y-137.005
X76.0Y-138.505
X77.5Y-135.505
X77.5Y-137.005
X77.5Y-138.505
X79.0Y-135.505
X79.0Y-137.005
X79.0Y-138.505
X96.5Y-99.5
X96.5Y-101.0
X96.5Y-102.5
X98.0Y-99.5
X98.0Y-101.0
X98.0Y-102.5
X99.5Y-99.5
X99.5Y-101.0
X99.5Y-102.5
T4
X56.42Y-79.5
X61.5Y-79.5
X83.0Y-124.5
X83.92Y-131.5
X86.592Y-120.908
X87.92Y-94.0
X89.0Y-131.5
X93.0Y-94.0
T5
X33.0Y-78.0
X33.0Y-80.5
X33.0Y-85.64
X33.0Y-88.18
X33.0Y-90.72
X33.0Y-93.26
X33.0Y-95.8
X33.0Y-98.34
X33.0Y-100.88
X33.0Y-103.42
X33.0Y-105.96
X33.0Y-108.5
X38.232Y-114.616
X40.0Y-116.384
X48.116Y-105.116
X49.884Y-106.884
X64.5Y-82.5
X67.0Y-82.5
X79.0Y-129.5
X81.5Y-129.5
X85.75Y-97.5
X88.25Y-97.5
T6
X20.0Y-72.86
X20.0Y-75.4
X20.0Y-77.94
X20.0Y-80.48
X20.0Y-83.02
X20.0Y-85.56
X20.0Y-88.1
X20.0Y-90.64
X20.0Y-93.18
X20.0Y-95.72
X20.0Y-98.26
X20.0Y-100.8
X20.0Y-103.34
X20.0Y-105.88
X20.0Y-108.42
X20.0Y-110.96
X20.0Y-113.5
X32.075Y-58.225
X33.01Y-118.954
X34.615Y-58.225
X34.778Y-120.722
X36.546Y-122.49
X37.155Y-58.225
X39.695Y-58.225
X39.94Y-152.73
X42.235Y-58.225
X42.48Y-152.73
X44.083Y-130.063
X44.775Y-58.225
X44.875Y-117.98
X45.0Y-77.0
X45.0Y-83.5
X45.0Y-89.5
X45.02Y-152.73
X45.851Y-131.83
X46.671Y-116.184
X47.315Y-58.225
X47.56Y-152.73
X47.619Y-133.598
X48.467Y-114.388
X49.855Y-58.225
X50.1Y-152.73
X50.263Y-112.592
X52.059Y-110.796
X52.395Y-58.225
X52.64Y-152.73
X53.855Y-109.0
X54.935Y-58.225
X55.18Y-152.73
X55.651Y-107.204
X55.651Y-128.757
X57.447Y-105.408
X57.447Y-126.961
X57.475Y-58.225
X57.72Y-152.73
X59.243Y-103.612
X59.243Y-125.164
X60.015Y-58.225
X60.26Y-152.73
X61.039Y-101.816
X61.039Y-123.368
X62.555Y-58.225
X62.8Y-152.73
X62.836Y-100.02
X62.836Y-121.572
X64.632Y-98.224
X64.632Y-119.776
X65.095Y-58.225
X65.34Y-152.73
X66.428Y-96.428
X66.428Y-117.98
X67.635Y-58.225
X67.88Y-152.73
X68.224Y-94.632
X68.224Y-116.184
X70.02Y-114.388
X70.175Y-58.225
X70.42Y-152.73
X71.816Y-112.592
X72.715Y-58.225
X72.96Y-152.73
X73.612Y-110.796
X74.816Y-119.773
X75.255Y-58.225
X75.408Y-109.0
X75.5Y-152.73
X76.612Y-117.977
X77.204Y-107.204
X77.795Y-58.225
X78.04Y-152.73
X78.408Y-116.181
X79.0Y-105.408
X80.204Y-114.385
X80.335Y-58.225
X80.58Y-152.73
X82.0Y-112.589
X82.875Y-58.225
X83.12Y-152.73
X85.415Y-58.225
X85.66Y-152.73
X87.955Y-58.225
X88.2Y-152.73
X90.495Y-58.225
X90.74Y-152.73
X93.035Y-58.225
X93.28Y-152.73
X95.575Y-58.225
X95.82Y-152.73
X97.99Y-133.19
X97.99Y-135.73
X97.99Y-138.27
X97.99Y-140.81
X98.115Y-58.225
X100.655Y-58.225
X113.575Y-71.2
X113.575Y-73.74
X113.575Y-76.28
X113.575Y-78.82
X113.575Y-81.36
X113.575Y-83.9
X113.575Y-86.44
X113.575Y-88.98
X113.575Y-91.52
X113.575Y-94.06
X113.575Y-96.6
X113.575Y-99.14
X113.575Y-101.68
X113.575Y-104.22
X113.575Y-106.76
X113.575Y-109.3
X113.575Y-111.84
X113.575Y-114.38
X113.575Y-116.92
X113.575Y-119.46
X113.575Y-122.0
X113.575Y-124.54
X113.575Y-127.08
X113.575Y-129.62
X113.575Y-132.16
X113.575Y-134.7
X113.575Y-137.24
X113.575Y-139.78
T7
X55.111Y-89.793
X58.293Y-86.611
X59.707Y-94.389
X62.889Y-91.207
T8
X26.717Y-122.56
X32.94Y-128.783
X37.79Y-133.669
X44.012Y-139.891
T9
X22.0Y-61.0
X22.0Y-150.0
X111.0Y-61.0
X111.0Y-150.0
M30
