%TF.GenerationSoftware,KiCad,Pcbnew,7.0.7*%
%TF.CreationDate,2025-03-05T11:48:48-06:00*%
%TF.ProjectId,LED-100,4c45442d-3130-4302-9e6b-696361645f70,rev?*%
%TF.SameCoordinates,Original*%
%TF.FileFunction,Soldermask,Bot*%
%TF.FilePolarity,Negative*%
%FSLAX46Y46*%
G04 Gerber Fmt 4.6, Leading zero omitted, Abs format (unit mm)*
G04 Created by KiCad (PCBNEW 7.0.7) date 2025-03-05 11:48:48*
%MOMM*%
%LPD*%
G01*
G04 APERTURE LIST*
%ADD10C,1.440000*%
%ADD11C,1.600000*%
%ADD12C,4.700000*%
%ADD13C,8.600000*%
%ADD14R,3.810000X4.110000*%
%ADD15R,1.700000X1.700000*%
%ADD16O,1.700000X1.700000*%
%ADD17O,1.400000X2.400000*%
%ADD18C,1.800000*%
%ADD19R,4.110000X3.810000*%
%ADD20C,1.400000*%
%ADD21O,1.400000X1.400000*%
G04 APERTURE END LIST*
D10*
%TO.C,RV2*%
X75565000Y-62230000D03*
X73025000Y-64770000D03*
X70485000Y-62230000D03*
%TD*%
D11*
%TO.C,C3*%
X89060403Y-62230000D03*
X89060403Y-64730000D03*
%TD*%
D12*
%TO.C,H2*%
X113030000Y-26035000D03*
D13*
X113030000Y-26035000D03*
%TD*%
D14*
%TO.C,U3*%
X98605000Y-65538480D03*
%TD*%
D11*
%TO.C,C2*%
X79802663Y-89717247D03*
X77302663Y-89717247D03*
%TD*%
D15*
%TO.C,J7*%
X92870403Y-49530000D03*
%TD*%
%TO.C,J4*%
X23495000Y-100965000D03*
D16*
X23495000Y-98425000D03*
X23495000Y-95885000D03*
X23495000Y-93345000D03*
X23495000Y-90805000D03*
X23495000Y-88265000D03*
X23495000Y-85725000D03*
X23495000Y-83185000D03*
X23495000Y-80645000D03*
X23495000Y-78105000D03*
X23495000Y-75565000D03*
X23495000Y-73025000D03*
X23495000Y-70485000D03*
X23495000Y-67945000D03*
X23495000Y-65405000D03*
X23495000Y-62865000D03*
X23495000Y-60325000D03*
%TD*%
D15*
%TO.C,J6*%
X62230000Y-73025000D03*
D16*
X62230000Y-75565000D03*
X62230000Y-78105000D03*
X62230000Y-80645000D03*
X62230000Y-83185000D03*
X62230000Y-85725000D03*
X62230000Y-88265000D03*
X62230000Y-90805000D03*
X62230000Y-93345000D03*
%TD*%
D12*
%TO.C,H1*%
X25400000Y-26035000D03*
D13*
X25400000Y-26035000D03*
%TD*%
D17*
%TO.C,SW1*%
X37380000Y-101600000D03*
X48980000Y-101600000D03*
D18*
X40180000Y-101600000D03*
X43180000Y-101600000D03*
X46180000Y-101600000D03*
%TD*%
D11*
%TO.C,C1*%
X67350000Y-50165000D03*
X69850000Y-50165000D03*
%TD*%
D15*
%TO.C,TP1*%
X55880000Y-57150000D03*
%TD*%
%TO.C,J3*%
X114965000Y-104545000D03*
D16*
X114965000Y-102005000D03*
X114965000Y-99465000D03*
X114965000Y-96925000D03*
X114965000Y-94385000D03*
X114965000Y-91845000D03*
X114965000Y-89305000D03*
X114965000Y-86765000D03*
X114965000Y-84225000D03*
X114965000Y-81685000D03*
X114965000Y-79145000D03*
X114965000Y-76605000D03*
X114965000Y-74065000D03*
X114965000Y-71525000D03*
X114965000Y-68985000D03*
X114965000Y-66445000D03*
X114965000Y-63905000D03*
X114965000Y-61365000D03*
X114965000Y-58825000D03*
X114965000Y-56285000D03*
X114965000Y-53745000D03*
X114965000Y-51205000D03*
X114965000Y-48665000D03*
X114965000Y-46125000D03*
X114965000Y-43585000D03*
X114965000Y-41045000D03*
X114965000Y-38505000D03*
X114965000Y-35965000D03*
%TD*%
D19*
%TO.C,U2*%
X76200000Y-99875000D03*
%TD*%
D15*
%TO.C,J2*%
X95250000Y-115570000D03*
D16*
X92710000Y-115570000D03*
X90170000Y-115570000D03*
X87630000Y-115570000D03*
X85090000Y-115570000D03*
X82550000Y-115570000D03*
X80010000Y-115570000D03*
X77470000Y-115570000D03*
X74930000Y-115570000D03*
X72390000Y-115570000D03*
X69850000Y-115570000D03*
X67310000Y-115570000D03*
X64770000Y-115570000D03*
X62230000Y-115570000D03*
X59690000Y-115570000D03*
X57150000Y-115570000D03*
X54610000Y-115570000D03*
X52070000Y-115570000D03*
X49530000Y-115570000D03*
X46990000Y-115570000D03*
X44450000Y-115570000D03*
X41910000Y-115570000D03*
X39370000Y-115570000D03*
%TD*%
D15*
%TO.C,J5*%
X96653480Y-94615000D03*
D16*
X94113480Y-94615000D03*
X91573480Y-94615000D03*
X89033480Y-94615000D03*
%TD*%
D12*
%TO.C,H4*%
X113030000Y-113665000D03*
D13*
X113030000Y-113665000D03*
%TD*%
D10*
%TO.C,RV1*%
X75565000Y-67945000D03*
X73025000Y-70485000D03*
X70485000Y-67945000D03*
%TD*%
D15*
%TO.C,TP2*%
X55880000Y-50165000D03*
%TD*%
%TO.C,J1*%
X102870000Y-24130000D03*
D16*
X100330000Y-24130000D03*
X97790000Y-24130000D03*
X95250000Y-24130000D03*
X92710000Y-24130000D03*
X90170000Y-24130000D03*
X87630000Y-24130000D03*
X85090000Y-24130000D03*
X82550000Y-24130000D03*
X80010000Y-24130000D03*
X77470000Y-24130000D03*
X74930000Y-24130000D03*
X72390000Y-24130000D03*
X69850000Y-24130000D03*
X67310000Y-24130000D03*
X64770000Y-24130000D03*
X62230000Y-24130000D03*
X59690000Y-24130000D03*
X57150000Y-24130000D03*
X54610000Y-24130000D03*
X52070000Y-24130000D03*
X49530000Y-24130000D03*
X46990000Y-24130000D03*
X44450000Y-24130000D03*
X41910000Y-24130000D03*
X39370000Y-24130000D03*
X36830000Y-24130000D03*
X34290000Y-24130000D03*
%TD*%
D19*
%TO.C,U1*%
X71023480Y-40670000D03*
%TD*%
D20*
%TO.C,R3*%
X86520403Y-59690000D03*
D21*
X91600403Y-59690000D03*
%TD*%
D15*
%TO.C,U4*%
X35481842Y-60325000D03*
D16*
X35481842Y-62865000D03*
X35481842Y-65405000D03*
X35481842Y-67945000D03*
X35481842Y-70485000D03*
X35481842Y-73025000D03*
X35481842Y-75565000D03*
X35481842Y-78105000D03*
X35481842Y-80645000D03*
X35481842Y-83185000D03*
X35481842Y-85725000D03*
X35481842Y-88265000D03*
X35481842Y-90805000D03*
X35481842Y-93345000D03*
X50800000Y-93345000D03*
X50800000Y-90805000D03*
X50800000Y-88265000D03*
X50800000Y-85725000D03*
X50800000Y-83185000D03*
X50800000Y-80645000D03*
X50800000Y-78105000D03*
X50800000Y-75565000D03*
X50800000Y-73025000D03*
X50800000Y-70485000D03*
X50800000Y-67945000D03*
X50800000Y-65405000D03*
X50800000Y-62865000D03*
X50800000Y-60325000D03*
%TD*%
D20*
%TO.C,R2*%
X81915000Y-87199559D03*
D21*
X81915000Y-92279559D03*
%TD*%
D12*
%TO.C,H3*%
X25400000Y-113665000D03*
D13*
X25400000Y-113665000D03*
%TD*%
D20*
%TO.C,R1*%
X64770000Y-51435000D03*
D21*
X64770000Y-46355000D03*
%TD*%
M02*
