M48
; DRILL file {KiCad 9.0.1} date 2025-04-03T16:54:13-0500
; FORMAT={-:-/ absolute / metric / decimal}
; #@! TF.CreationDate,2025-04-03T16:54:13-05:00
; #@! TF.GenerationSoftware,Kicad,Pcbnew,9.0.1
; #@! TF.FileFunction,Plated,1,2,PTH
FMAT,2
METRIC
; #@! TA.AperFunction,Plated,PTH,ComponentDrill
T1C0.300
; #@! TA.AperFunction,Plated,PTH,ViaDrill
T2C0.400
; #@! TA.AperFunction,Plated,PTH,ComponentDrill
T3C0.500
; #@! TA.AperFunction,Plated,PTH,ComponentDrill
T4C0.700
; #@! TA.AperFunction,Plated,PTH,ComponentDrill
T5C0.800
; #@! TA.AperFunction,Plated,PTH,ComponentDrill
T6C1.000
; #@! TA.AperFunction,Plated,PTH,ComponentDrill
T7C1.100
; #@! TA.AperFunction,Plated,PTH,ComponentDrill
T8C1.300
; #@! TA.AperFunction,Plated,PTH,ComponentDrill
T9C4.300
%
G90
G05
T1
X149.795Y-63.625
X149.795Y-65.125
X149.795Y-71.125
X149.795Y-72.625
X150.795Y-63.625
X150.795Y-65.125
X150.795Y-71.125
X150.795Y-72.625
X151.795Y-63.625
X151.795Y-65.125
X151.795Y-71.125
X151.795Y-72.625
X152.795Y-63.625
X152.795Y-65.125
X152.795Y-71.125
X152.795Y-72.625
X153.795Y-63.625
X153.795Y-65.125
X153.795Y-71.125
X153.795Y-72.625
X159.925Y-127.58
X159.925Y-129.08
X159.925Y-135.08
X159.925Y-136.58
X160.925Y-127.58
X160.925Y-129.08
X160.925Y-135.08
X160.925Y-136.58
X161.925Y-127.58
X161.925Y-129.08
X161.925Y-135.08
X161.925Y-136.58
X162.925Y-127.58
X162.925Y-129.08
X162.925Y-135.08
X162.925Y-136.58
X163.925Y-127.58
X163.925Y-129.08
X163.925Y-135.08
X163.925Y-136.58
X177.73Y-93.25
X177.73Y-94.25
X177.73Y-95.25
X177.73Y-96.25
X177.73Y-97.25
X179.23Y-93.25
X179.23Y-94.25
X179.23Y-95.25
X179.23Y-96.25
X179.23Y-97.25
X185.23Y-93.25
X185.23Y-94.25
X185.23Y-95.25
X185.23Y-96.25
X185.23Y-97.25
X186.73Y-93.25
X186.73Y-94.25
X186.73Y-95.25
X186.73Y-96.25
X186.73Y-97.25
T2
X114.935Y-57.93
X117.475Y-57.93
X120.015Y-57.93
X122.555Y-57.93
X125.095Y-57.93
X125.095Y-141.46
X127.635Y-57.93
X127.635Y-141.46
X130.175Y-141.46
X132.715Y-141.46
X135.0Y-143.51
X137.795Y-57.93
X140.335Y-57.93
X140.5Y-105.5
X142.875Y-57.93
X142.875Y-141.46
X143.0Y-71.5
X144.5Y-73.5
X145.415Y-57.93
X145.415Y-141.46
X147.955Y-57.93
X147.955Y-141.46
X148.0Y-86.5
X150.495Y-57.93
X150.495Y-141.46
X153.035Y-57.93
X153.035Y-141.46
X153.5Y-128.5
X155.0Y-103.5
X155.0Y-127.0
X155.575Y-57.93
X155.575Y-141.46
X156.5Y-100.5
X156.5Y-125.5
X158.0Y-75.5
X158.115Y-57.93
X158.115Y-141.46
X159.5Y-73.5
X159.5Y-103.5
X160.655Y-57.93
X160.655Y-141.46
X161.0Y-71.5
X161.0Y-107.5
X162.5Y-78.0
X162.5Y-94.5
X162.5Y-105.5
X163.195Y-57.93
X163.195Y-141.46
X165.735Y-57.93
X165.735Y-141.46
X167.5Y-86.5
X167.5Y-102.0
X168.275Y-57.93
X168.275Y-141.46
X169.5Y-127.0
X170.815Y-57.93
X170.815Y-141.46
X171.0Y-113.5
X171.0Y-128.5
X173.355Y-57.93
X173.355Y-141.46
X175.26Y-121.775
X175.895Y-57.93
X175.895Y-141.46
X177.8Y-121.775
X178.435Y-57.93
X178.435Y-141.46
X180.34Y-121.775
X180.975Y-57.93
X180.975Y-141.46
X182.88Y-121.775
X183.515Y-57.93
X183.515Y-72.995
X186.0Y-123.825
X188.595Y-55.88
X188.595Y-143.51
X191.625Y-68.58
X191.625Y-71.12
X191.625Y-73.66
X191.625Y-76.2
X191.625Y-78.74
X191.625Y-81.28
X191.625Y-83.82
X191.625Y-86.36
X191.625Y-88.9
X191.625Y-91.44
X191.625Y-93.98
X191.625Y-96.52
X191.625Y-99.06
X191.625Y-101.6
X191.625Y-104.14
X191.625Y-106.68
X191.625Y-109.22
X191.625Y-111.76
X191.625Y-114.3
X191.625Y-127.0
X191.625Y-129.54
X191.625Y-132.08
X191.625Y-134.62
X193.675Y-60.96
X193.675Y-123.825
X193.675Y-138.43
T3
X150.295Y-66.625
X150.295Y-68.125
X150.295Y-69.625
X151.795Y-66.625
X151.795Y-68.125
X151.795Y-69.625
X153.295Y-66.625
X153.295Y-68.125
X153.295Y-69.625
X160.425Y-130.58
X160.425Y-132.08
X160.425Y-133.58
X161.925Y-130.58
X161.925Y-132.08
X161.925Y-133.58
X163.425Y-130.58
X163.425Y-132.08
X163.425Y-133.58
X180.73Y-93.75
X180.73Y-95.25
X180.73Y-96.75
X182.23Y-93.75
X182.23Y-95.25
X182.23Y-96.75
X183.73Y-93.75
X183.73Y-95.25
X183.73Y-96.75
T4
X140.204Y-119.204
X143.796Y-122.796
X146.0Y-75.5
X146.0Y-80.58
X158.0Y-100.5
X158.0Y-105.58
X167.64Y-120.42
X167.64Y-125.5
X169.92Y-89.5
X175.0Y-89.5
T5
X148.5Y-78.0
X151.0Y-78.0
X162.5Y-123.0
X165.0Y-123.0
X172.5Y-92.0
X172.5Y-94.5
T6
X102.235Y-91.44
X102.235Y-93.98
X102.235Y-96.52
X102.235Y-99.06
X102.235Y-101.6
X102.235Y-104.14
X102.235Y-106.68
X102.235Y-109.22
X102.235Y-111.76
X102.235Y-114.3
X102.235Y-116.84
X102.235Y-119.38
X102.235Y-121.92
X102.235Y-124.46
X102.235Y-127.0
X102.235Y-129.54
X102.235Y-132.08
X110.692Y-90.261
X112.488Y-92.057
X114.284Y-93.853
X114.935Y-52.07
X116.08Y-95.649
X116.5Y-138.5
X116.5Y-142.5
X117.475Y-52.07
X117.876Y-97.445
X119.672Y-99.241
X120.015Y-52.07
X121.468Y-79.485
X121.468Y-101.037
X122.555Y-52.07
X123.264Y-81.281
X123.264Y-102.833
X125.06Y-83.077
X125.06Y-104.629
X125.095Y-52.07
X125.095Y-147.32
X126.856Y-84.873
X126.856Y-106.426
X127.635Y-52.07
X127.635Y-147.32
X128.652Y-86.669
X128.652Y-108.222
X130.175Y-52.07
X130.175Y-147.32
X130.379Y-129.121
X130.448Y-88.465
X130.448Y-110.018
X132.228Y-79.432
X132.244Y-90.261
X132.244Y-111.814
X132.5Y-127.0
X132.715Y-52.07
X132.715Y-147.32
X134.024Y-81.228
X134.04Y-92.057
X134.04Y-113.61
X134.621Y-124.879
X135.255Y-52.07
X135.255Y-147.32
X135.82Y-83.024
X135.836Y-93.853
X137.617Y-84.82
X137.632Y-95.649
X137.795Y-52.07
X137.795Y-147.32
X139.413Y-86.616
X139.428Y-97.445
X140.335Y-52.07
X140.335Y-147.32
X141.209Y-88.412
X141.224Y-99.241
X142.875Y-52.07
X142.875Y-147.32
X143.005Y-90.208
X143.021Y-101.037
X144.801Y-92.004
X144.817Y-102.833
X145.415Y-52.07
X145.415Y-147.32
X147.955Y-52.07
X147.955Y-147.32
X150.495Y-52.07
X150.495Y-147.32
X153.035Y-52.07
X153.035Y-147.32
X155.575Y-52.07
X155.575Y-147.32
X158.115Y-52.07
X158.115Y-147.32
X160.655Y-52.07
X160.655Y-147.32
X163.195Y-52.07
X163.195Y-147.32
X165.735Y-52.07
X165.735Y-147.32
X168.275Y-52.07
X168.275Y-147.32
X170.815Y-52.07
X170.815Y-147.32
X173.355Y-52.07
X173.355Y-147.32
X175.25Y-127.0
X175.895Y-52.07
X175.895Y-147.32
X176.5Y-82.0
X177.79Y-127.0
X178.435Y-52.07
X178.435Y-147.32
X180.33Y-127.0
X180.975Y-52.07
X180.975Y-147.32
X182.87Y-127.0
X183.515Y-52.07
X197.485Y-66.04
X197.485Y-68.58
X197.485Y-71.12
X197.485Y-73.66
X197.485Y-76.2
X197.485Y-78.74
X197.485Y-81.28
X197.485Y-83.82
X197.485Y-86.36
X197.485Y-88.9
X197.485Y-91.44
X197.485Y-93.98
X197.485Y-96.52
X197.485Y-99.06
X197.485Y-101.6
X197.485Y-104.14
X197.485Y-106.68
X197.485Y-109.22
X197.485Y-111.76
X197.485Y-114.3
X197.485Y-116.84
X197.485Y-119.38
X197.485Y-121.92
X197.485Y-124.46
X197.485Y-127.0
X197.485Y-129.54
X197.485Y-132.08
X197.485Y-134.62
T7
X143.114Y-116.614
X146.296Y-119.796
X147.71Y-112.018
X150.892Y-115.2
T8
X112.964Y-123.464
X116.5Y-127.0
X121.803Y-118.161
T9
X105.0Y-55.0
X105.0Y-145.0
X195.0Y-55.0
X195.0Y-145.0
T4
G00X128.081Y-130.783
M15
G01X128.717Y-131.419
M16
G05
G00X136.283Y-122.581
M15
G01X136.919Y-123.217
M16
G05
M30
