%TF.GenerationSoftware,KiCad,Pcbnew,7.0.7*%
%TF.CreationDate,2025-03-05T11:48:48-06:00*%
%TF.ProjectId,LED-100,4c45442d-3130-4302-9e6b-696361645f70,rev?*%
%TF.SameCoordinates,Original*%
%TF.FileFunction,Soldermask,Top*%
%TF.FilePolarity,Negative*%
%FSLAX46Y46*%
G04 Gerber Fmt 4.6, Leading zero omitted, Abs format (unit mm)*
G04 Created by KiCad (PCBNEW 7.0.7) date 2025-03-05 11:48:48*
%MOMM*%
%LPD*%
G01*
G04 APERTURE LIST*
G04 Aperture macros list*
%AMRoundRect*
0 Rectangle with rounded corners*
0 $1 Rounding radius*
0 $2 $3 $4 $5 $6 $7 $8 $9 X,Y pos of 4 corners*
0 Add a 4 corners polygon primitive as box body*
4,1,4,$2,$3,$4,$5,$6,$7,$8,$9,$2,$3,0*
0 Add four circle primitives for the rounded corners*
1,1,$1+$1,$2,$3*
1,1,$1+$1,$4,$5*
1,1,$1+$1,$6,$7*
1,1,$1+$1,$8,$9*
0 Add four rect primitives between the rounded corners*
20,1,$1+$1,$2,$3,$4,$5,0*
20,1,$1+$1,$4,$5,$6,$7,0*
20,1,$1+$1,$6,$7,$8,$9,0*
20,1,$1+$1,$8,$9,$2,$3,0*%
G04 Aperture macros list end*
%ADD10RoundRect,0.250000X-0.450000X0.325000X-0.450000X-0.325000X0.450000X-0.325000X0.450000X0.325000X0*%
%ADD11RoundRect,0.250000X-0.325000X-0.450000X0.325000X-0.450000X0.325000X0.450000X-0.325000X0.450000X0*%
%ADD12C,1.440000*%
%ADD13C,1.600000*%
%ADD14RoundRect,0.250000X0.450000X-0.325000X0.450000X0.325000X-0.450000X0.325000X-0.450000X-0.325000X0*%
%ADD15C,4.700000*%
%ADD16C,8.600000*%
%ADD17R,4.360000X4.110000*%
%ADD18R,0.400000X1.200000*%
%ADD19R,1.700000X1.700000*%
%ADD20O,1.700000X1.700000*%
%ADD21O,1.400000X2.400000*%
%ADD22C,1.800000*%
%ADD23R,4.110000X4.360000*%
%ADD24R,1.200000X0.400000*%
%ADD25C,1.400000*%
%ADD26O,1.400000X1.400000*%
G04 APERTURE END LIST*
D10*
%TO.C,D3b1*%
X44450000Y-110744000D03*
X44450000Y-112794000D03*
%TD*%
%TO.C,D33*%
X69850000Y-110726000D03*
X69850000Y-112776000D03*
%TD*%
%TO.C,D16*%
X41910000Y-110744000D03*
X41910000Y-112794000D03*
%TD*%
%TO.C,D43*%
X80010000Y-110726000D03*
X80010000Y-112776000D03*
%TD*%
D11*
%TO.C,D49*%
X110065600Y-63906400D03*
X112115600Y-63906400D03*
%TD*%
D12*
%TO.C,RV2*%
X75565000Y-62230000D03*
X73025000Y-64770000D03*
X70485000Y-62230000D03*
%TD*%
D10*
%TO.C,D18*%
X46990000Y-110735000D03*
X46990000Y-112785000D03*
%TD*%
D13*
%TO.C,C3*%
X89060403Y-62230000D03*
X89060403Y-64730000D03*
%TD*%
D10*
%TO.C,D19*%
X59690000Y-110726000D03*
X59690000Y-112776000D03*
%TD*%
D14*
%TO.C,D26*%
X87630000Y-29337000D03*
X87630000Y-27287000D03*
%TD*%
D10*
%TO.C,D71*%
X91567000Y-89535000D03*
X91567000Y-91585000D03*
%TD*%
D11*
%TO.C,D36*%
X110100000Y-41046400D03*
X112150000Y-41046400D03*
%TD*%
%TO.C,D55*%
X110014800Y-84226400D03*
X112064800Y-84226400D03*
%TD*%
%TO.C,D50*%
X110014800Y-76606400D03*
X112064800Y-76606400D03*
%TD*%
D10*
%TO.C,D31*%
X92710000Y-110735000D03*
X92710000Y-112785000D03*
%TD*%
D14*
%TO.C,D34*%
X100330000Y-29337000D03*
X100330000Y-27287000D03*
%TD*%
D11*
%TO.C,D52a1*%
X110014800Y-74066400D03*
X112064800Y-74066400D03*
%TD*%
%TO.C,D46*%
X110116400Y-61366400D03*
X112166400Y-61366400D03*
%TD*%
%TO.C,D38*%
X110100000Y-43586400D03*
X112150000Y-43586400D03*
%TD*%
%TO.C,D54*%
X110014800Y-79146400D03*
X112064800Y-79146400D03*
%TD*%
D15*
%TO.C,H2*%
X113030000Y-26035000D03*
D16*
X113030000Y-26035000D03*
%TD*%
D11*
%TO.C,D42*%
X110116400Y-53746400D03*
X112166400Y-53746400D03*
%TD*%
D17*
%TO.C,U3*%
X98605000Y-65538480D03*
D18*
X93730000Y-69188480D03*
X94380000Y-69188480D03*
X95030000Y-69188480D03*
X95680000Y-69188480D03*
X96330000Y-69188480D03*
X96980000Y-69188480D03*
X97630000Y-69188480D03*
X98280000Y-69188480D03*
X98930000Y-69188480D03*
X99580000Y-69188480D03*
X100230000Y-69188480D03*
X100880000Y-69188480D03*
X101530000Y-69188480D03*
X102180000Y-69188480D03*
X102830000Y-69188480D03*
X103480000Y-69188480D03*
X103480000Y-61888480D03*
X102830000Y-61888480D03*
X102180000Y-61888480D03*
X101530000Y-61888480D03*
X100880000Y-61888480D03*
X100230000Y-61888480D03*
X99580000Y-61888480D03*
X98930000Y-61888480D03*
X98280000Y-61888480D03*
X97630000Y-61888480D03*
X96980000Y-61888480D03*
X96330000Y-61888480D03*
X95680000Y-61888480D03*
X95030000Y-61888480D03*
X94380000Y-61888480D03*
X93730000Y-61888480D03*
%TD*%
D13*
%TO.C,C2*%
X79802663Y-89717247D03*
X77302663Y-89717247D03*
%TD*%
D10*
%TO.C,D30*%
X82550000Y-110726000D03*
X82550000Y-112776000D03*
%TD*%
D19*
%TO.C,J7*%
X92870403Y-49530000D03*
%TD*%
D14*
%TO.C,D1*%
X44450000Y-29355000D03*
X44450000Y-27305000D03*
%TD*%
%TO.C,D27*%
X82550000Y-29337000D03*
X82550000Y-27287000D03*
%TD*%
%TO.C,D14*%
X59690000Y-29337000D03*
X59690000Y-27287000D03*
%TD*%
D11*
%TO.C,D44*%
X110116400Y-58826400D03*
X112166400Y-58826400D03*
%TD*%
D14*
%TO.C,D17*%
X77470000Y-29337000D03*
X77470000Y-27287000D03*
%TD*%
D11*
%TO.C,D51*%
X110065600Y-68986400D03*
X112115600Y-68986400D03*
%TD*%
D10*
%TO.C,D15*%
X39370000Y-110744000D03*
X39370000Y-112794000D03*
%TD*%
D14*
%TO.C,D23a1*%
X95250000Y-29355000D03*
X95250000Y-27305000D03*
%TD*%
D10*
%TO.C,D70*%
X94132400Y-89535000D03*
X94132400Y-91585000D03*
%TD*%
D11*
%TO.C,D39a1*%
X110100000Y-46126400D03*
X112150000Y-46126400D03*
%TD*%
D19*
%TO.C,J4*%
X23495000Y-100965000D03*
D20*
X23495000Y-98425000D03*
X23495000Y-95885000D03*
X23495000Y-93345000D03*
X23495000Y-90805000D03*
X23495000Y-88265000D03*
X23495000Y-85725000D03*
X23495000Y-83185000D03*
X23495000Y-80645000D03*
X23495000Y-78105000D03*
X23495000Y-75565000D03*
X23495000Y-73025000D03*
X23495000Y-70485000D03*
X23495000Y-67945000D03*
X23495000Y-65405000D03*
X23495000Y-62865000D03*
X23495000Y-60325000D03*
%TD*%
D10*
%TO.C,D53b1*%
X90170000Y-110726000D03*
X90170000Y-112776000D03*
%TD*%
D14*
%TO.C,D2*%
X41910000Y-29355000D03*
X41910000Y-27305000D03*
%TD*%
D19*
%TO.C,J6*%
X62230000Y-73025000D03*
D20*
X62230000Y-75565000D03*
X62230000Y-78105000D03*
X62230000Y-80645000D03*
X62230000Y-83185000D03*
X62230000Y-85725000D03*
X62230000Y-88265000D03*
X62230000Y-90805000D03*
X62230000Y-93345000D03*
%TD*%
D14*
%TO.C,D9*%
X69850000Y-29337000D03*
X69850000Y-27287000D03*
%TD*%
D15*
%TO.C,H1*%
X25400000Y-26035000D03*
D16*
X25400000Y-26035000D03*
%TD*%
D14*
%TO.C,D25*%
X90170000Y-29337000D03*
X90170000Y-27287000D03*
%TD*%
D21*
%TO.C,SW1*%
X37380000Y-101600000D03*
X48980000Y-101600000D03*
D22*
X40180000Y-101600000D03*
X43180000Y-101600000D03*
X46180000Y-101600000D03*
%TD*%
D13*
%TO.C,C1*%
X67350000Y-50165000D03*
X69850000Y-50165000D03*
%TD*%
D14*
%TO.C,D29*%
X102870000Y-29355000D03*
X102870000Y-27305000D03*
%TD*%
D11*
%TO.C,D40a1*%
X110116400Y-51206400D03*
X112166400Y-51206400D03*
%TD*%
%TO.C,D37*%
X110100000Y-48666400D03*
X112150000Y-48666400D03*
%TD*%
%TO.C,D48*%
X110065600Y-66446400D03*
X112115600Y-66446400D03*
%TD*%
D10*
%TO.C,D21b1*%
X67310000Y-110726000D03*
X67310000Y-112776000D03*
%TD*%
%TO.C,D72*%
X89027000Y-89535000D03*
X89027000Y-91585000D03*
%TD*%
D14*
%TO.C,D12*%
X57150000Y-29337000D03*
X57150000Y-27287000D03*
%TD*%
%TO.C,D24*%
X92710000Y-29337000D03*
X92710000Y-27287000D03*
%TD*%
D10*
%TO.C,D45*%
X95250000Y-110735000D03*
X95250000Y-112785000D03*
%TD*%
D19*
%TO.C,TP1*%
X55880000Y-57150000D03*
%TD*%
D11*
%TO.C,D41*%
X110100000Y-56261000D03*
X112150000Y-56261000D03*
%TD*%
%TO.C,D58*%
X110014800Y-102006400D03*
X112064800Y-102006400D03*
%TD*%
D14*
%TO.C,D22*%
X80010000Y-29337000D03*
X80010000Y-27287000D03*
%TD*%
%TO.C,D20*%
X72390000Y-29337000D03*
X72390000Y-27287000D03*
%TD*%
D10*
%TO.C,D5*%
X57150000Y-110744000D03*
X57150000Y-112794000D03*
%TD*%
D19*
%TO.C,J3*%
X114965000Y-104545000D03*
D20*
X114965000Y-102005000D03*
X114965000Y-99465000D03*
X114965000Y-96925000D03*
X114965000Y-94385000D03*
X114965000Y-91845000D03*
X114965000Y-89305000D03*
X114965000Y-86765000D03*
X114965000Y-84225000D03*
X114965000Y-81685000D03*
X114965000Y-79145000D03*
X114965000Y-76605000D03*
X114965000Y-74065000D03*
X114965000Y-71525000D03*
X114965000Y-68985000D03*
X114965000Y-66445000D03*
X114965000Y-63905000D03*
X114965000Y-61365000D03*
X114965000Y-58825000D03*
X114965000Y-56285000D03*
X114965000Y-53745000D03*
X114965000Y-51205000D03*
X114965000Y-48665000D03*
X114965000Y-46125000D03*
X114965000Y-43585000D03*
X114965000Y-41045000D03*
X114965000Y-38505000D03*
X114965000Y-35965000D03*
%TD*%
D14*
%TO.C,D3a1*%
X39370000Y-29355000D03*
X39370000Y-27305000D03*
%TD*%
D10*
%TO.C,D52b1*%
X87630000Y-110726000D03*
X87630000Y-112776000D03*
%TD*%
D11*
%TO.C,D32*%
X110091000Y-38481000D03*
X112141000Y-38481000D03*
%TD*%
D10*
%TO.C,D7b1*%
X64770000Y-110726000D03*
X64770000Y-112776000D03*
%TD*%
D23*
%TO.C,U2*%
X76200000Y-99875000D03*
D24*
X72550000Y-95000000D03*
X72550000Y-95650000D03*
X72550000Y-96300000D03*
X72550000Y-96950000D03*
X72550000Y-97600000D03*
X72550000Y-98250000D03*
X72550000Y-98900000D03*
X72550000Y-99550000D03*
X72550000Y-100200000D03*
X72550000Y-100850000D03*
X72550000Y-101500000D03*
X72550000Y-102150000D03*
X72550000Y-102800000D03*
X72550000Y-103450000D03*
X72550000Y-104100000D03*
X72550000Y-104750000D03*
X79850000Y-104750000D03*
X79850000Y-104100000D03*
X79850000Y-103450000D03*
X79850000Y-102800000D03*
X79850000Y-102150000D03*
X79850000Y-101500000D03*
X79850000Y-100850000D03*
X79850000Y-100200000D03*
X79850000Y-99550000D03*
X79850000Y-98900000D03*
X79850000Y-98250000D03*
X79850000Y-97600000D03*
X79850000Y-96950000D03*
X79850000Y-96300000D03*
X79850000Y-95650000D03*
X79850000Y-95000000D03*
%TD*%
D11*
%TO.C,D60*%
X110014800Y-99466400D03*
X112064800Y-99466400D03*
%TD*%
D19*
%TO.C,J2*%
X95250000Y-115570000D03*
D20*
X92710000Y-115570000D03*
X90170000Y-115570000D03*
X87630000Y-115570000D03*
X85090000Y-115570000D03*
X82550000Y-115570000D03*
X80010000Y-115570000D03*
X77470000Y-115570000D03*
X74930000Y-115570000D03*
X72390000Y-115570000D03*
X69850000Y-115570000D03*
X67310000Y-115570000D03*
X64770000Y-115570000D03*
X62230000Y-115570000D03*
X59690000Y-115570000D03*
X57150000Y-115570000D03*
X54610000Y-115570000D03*
X52070000Y-115570000D03*
X49530000Y-115570000D03*
X46990000Y-115570000D03*
X44450000Y-115570000D03*
X41910000Y-115570000D03*
X39370000Y-115570000D03*
%TD*%
D19*
%TO.C,J5*%
X96653480Y-94615000D03*
D20*
X94113480Y-94615000D03*
X91573480Y-94615000D03*
X89033480Y-94615000D03*
%TD*%
D15*
%TO.C,H4*%
X113030000Y-113665000D03*
D16*
X113030000Y-113665000D03*
%TD*%
D11*
%TO.C,D59*%
X110014800Y-96926400D03*
X112064800Y-96926400D03*
%TD*%
%TO.C,D56*%
X110014800Y-81686400D03*
X112064800Y-81686400D03*
%TD*%
D12*
%TO.C,RV1*%
X75565000Y-67945000D03*
X73025000Y-70485000D03*
X70485000Y-67945000D03*
%TD*%
D10*
%TO.C,D39b1*%
X85090000Y-110726000D03*
X85090000Y-112776000D03*
%TD*%
%TO.C,D47*%
X72390000Y-110726000D03*
X72390000Y-112776000D03*
%TD*%
D14*
%TO.C,D10*%
X67310000Y-29337000D03*
X67310000Y-27287000D03*
%TD*%
D11*
%TO.C,D57*%
X110014800Y-104546400D03*
X112064800Y-104546400D03*
%TD*%
D10*
%TO.C,D23b1*%
X77470000Y-110726000D03*
X77470000Y-112776000D03*
%TD*%
D14*
%TO.C,D11*%
X64770000Y-29337000D03*
X64770000Y-27287000D03*
%TD*%
%TO.C,D13*%
X62230000Y-29337000D03*
X62230000Y-27287000D03*
%TD*%
%TO.C,D28*%
X85090000Y-29337000D03*
X85090000Y-27287000D03*
%TD*%
%TO.C,D35*%
X97790000Y-29337000D03*
X97790000Y-27287000D03*
%TD*%
D10*
%TO.C,D40b1*%
X74930000Y-110726000D03*
X74930000Y-112776000D03*
%TD*%
D19*
%TO.C,TP2*%
X55880000Y-50165000D03*
%TD*%
D14*
%TO.C,D4*%
X34290000Y-29355000D03*
X34290000Y-27305000D03*
%TD*%
D19*
%TO.C,J1*%
X102870000Y-24130000D03*
D20*
X100330000Y-24130000D03*
X97790000Y-24130000D03*
X95250000Y-24130000D03*
X92710000Y-24130000D03*
X90170000Y-24130000D03*
X87630000Y-24130000D03*
X85090000Y-24130000D03*
X82550000Y-24130000D03*
X80010000Y-24130000D03*
X77470000Y-24130000D03*
X74930000Y-24130000D03*
X72390000Y-24130000D03*
X69850000Y-24130000D03*
X67310000Y-24130000D03*
X64770000Y-24130000D03*
X62230000Y-24130000D03*
X59690000Y-24130000D03*
X57150000Y-24130000D03*
X54610000Y-24130000D03*
X52070000Y-24130000D03*
X49530000Y-24130000D03*
X46990000Y-24130000D03*
X44450000Y-24130000D03*
X41910000Y-24130000D03*
X39370000Y-24130000D03*
X36830000Y-24130000D03*
X34290000Y-24130000D03*
%TD*%
D11*
%TO.C,D53a1*%
X110014800Y-71526400D03*
X112064800Y-71526400D03*
%TD*%
D23*
%TO.C,U1*%
X71023480Y-40670000D03*
D24*
X74673480Y-45545000D03*
X74673480Y-44895000D03*
X74673480Y-44245000D03*
X74673480Y-43595000D03*
X74673480Y-42945000D03*
X74673480Y-42295000D03*
X74673480Y-41645000D03*
X74673480Y-40995000D03*
X74673480Y-40345000D03*
X74673480Y-39695000D03*
X74673480Y-39045000D03*
X74673480Y-38395000D03*
X74673480Y-37745000D03*
X74673480Y-37095000D03*
X74673480Y-36445000D03*
X74673480Y-35795000D03*
X67373480Y-35795000D03*
X67373480Y-36445000D03*
X67373480Y-37095000D03*
X67373480Y-37745000D03*
X67373480Y-38395000D03*
X67373480Y-39045000D03*
X67373480Y-39695000D03*
X67373480Y-40345000D03*
X67373480Y-40995000D03*
X67373480Y-41645000D03*
X67373480Y-42295000D03*
X67373480Y-42945000D03*
X67373480Y-43595000D03*
X67373480Y-44245000D03*
X67373480Y-44895000D03*
X67373480Y-45545000D03*
%TD*%
D10*
%TO.C,D69*%
X96672400Y-89535000D03*
X96672400Y-91585000D03*
%TD*%
D25*
%TO.C,R3*%
X86520403Y-59690000D03*
D26*
X91600403Y-59690000D03*
%TD*%
D19*
%TO.C,U4*%
X35481842Y-60325000D03*
D20*
X35481842Y-62865000D03*
X35481842Y-65405000D03*
X35481842Y-67945000D03*
X35481842Y-70485000D03*
X35481842Y-73025000D03*
X35481842Y-75565000D03*
X35481842Y-78105000D03*
X35481842Y-80645000D03*
X35481842Y-83185000D03*
X35481842Y-85725000D03*
X35481842Y-88265000D03*
X35481842Y-90805000D03*
X35481842Y-93345000D03*
X50800000Y-93345000D03*
X50800000Y-90805000D03*
X50800000Y-88265000D03*
X50800000Y-85725000D03*
X50800000Y-83185000D03*
X50800000Y-80645000D03*
X50800000Y-78105000D03*
X50800000Y-75565000D03*
X50800000Y-73025000D03*
X50800000Y-70485000D03*
X50800000Y-67945000D03*
X50800000Y-65405000D03*
X50800000Y-62865000D03*
X50800000Y-60325000D03*
%TD*%
D14*
%TO.C,D7a1*%
X36830000Y-29355000D03*
X36830000Y-27305000D03*
%TD*%
D25*
%TO.C,R2*%
X81915000Y-87199559D03*
D26*
X81915000Y-92279559D03*
%TD*%
D14*
%TO.C,D21a1*%
X74930000Y-29355000D03*
X74930000Y-27305000D03*
%TD*%
%TO.C,D8*%
X46990000Y-29355000D03*
X46990000Y-27305000D03*
%TD*%
D10*
%TO.C,D6*%
X62230000Y-110735000D03*
X62230000Y-112785000D03*
%TD*%
D15*
%TO.C,H3*%
X25400000Y-113665000D03*
D16*
X25400000Y-113665000D03*
%TD*%
D25*
%TO.C,R1*%
X64770000Y-51435000D03*
D26*
X64770000Y-46355000D03*
%TD*%
M02*
