%TF.GenerationSoftware,KiCad,Pcbnew,7.0.7*%
%TF.CreationDate,2025-03-05T11:48:48-06:00*%
%TF.ProjectId,LED-100,4c45442d-3130-4302-9e6b-696361645f70,rev?*%
%TF.SameCoordinates,Original*%
%TF.FileFunction,Legend,Bot*%
%TF.FilePolarity,Positive*%
%FSLAX46Y46*%
G04 Gerber Fmt 4.6, Leading zero omitted, Abs format (unit mm)*
G04 Created by KiCad (PCBNEW 7.0.7) date 2025-03-05 11:48:48*
%MOMM*%
%LPD*%
G01*
G04 APERTURE LIST*
%ADD10C,0.150000*%
%ADD11C,0.100000*%
%ADD12C,0.300000*%
%ADD13C,0.010000*%
G04 APERTURE END LIST*
D10*
X34290000Y-106045000D02*
X33655000Y-106045000D01*
X34290000Y-108585000D01*
X32385000Y-106045000D01*
X33020000Y-106045000D01*
X31750000Y-104140000D01*
X33655000Y-104140000D01*
X34290000Y-106045000D01*
G36*
X34290000Y-106045000D02*
G01*
X33655000Y-106045000D01*
X34290000Y-108585000D01*
X32385000Y-106045000D01*
X33020000Y-106045000D01*
X31750000Y-104140000D01*
X33655000Y-104140000D01*
X34290000Y-106045000D01*
G37*
X95500601Y-108430342D02*
X95500601Y-107230342D01*
X94986316Y-108430342D02*
X94986316Y-107801771D01*
X94986316Y-107801771D02*
X95043458Y-107687485D01*
X95043458Y-107687485D02*
X95157744Y-107630342D01*
X95157744Y-107630342D02*
X95329173Y-107630342D01*
X95329173Y-107630342D02*
X95443458Y-107687485D01*
X95443458Y-107687485D02*
X95500601Y-107744628D01*
X94586316Y-107630342D02*
X94129173Y-107630342D01*
X94414887Y-107230342D02*
X94414887Y-108258914D01*
X94414887Y-108258914D02*
X94357744Y-108373200D01*
X94357744Y-108373200D02*
X94243459Y-108430342D01*
X94243459Y-108430342D02*
X94129173Y-108430342D01*
X93900602Y-107630342D02*
X93443459Y-107630342D01*
X93729173Y-107230342D02*
X93729173Y-108258914D01*
X93729173Y-108258914D02*
X93672030Y-108373200D01*
X93672030Y-108373200D02*
X93557745Y-108430342D01*
X93557745Y-108430342D02*
X93443459Y-108430342D01*
X93043459Y-107630342D02*
X93043459Y-108830342D01*
X93043459Y-107687485D02*
X92929174Y-107630342D01*
X92929174Y-107630342D02*
X92700602Y-107630342D01*
X92700602Y-107630342D02*
X92586316Y-107687485D01*
X92586316Y-107687485D02*
X92529174Y-107744628D01*
X92529174Y-107744628D02*
X92472031Y-107858914D01*
X92472031Y-107858914D02*
X92472031Y-108201771D01*
X92472031Y-108201771D02*
X92529174Y-108316057D01*
X92529174Y-108316057D02*
X92586316Y-108373200D01*
X92586316Y-108373200D02*
X92700602Y-108430342D01*
X92700602Y-108430342D02*
X92929174Y-108430342D01*
X92929174Y-108430342D02*
X93043459Y-108373200D01*
X92014888Y-108373200D02*
X91900602Y-108430342D01*
X91900602Y-108430342D02*
X91672031Y-108430342D01*
X91672031Y-108430342D02*
X91557745Y-108373200D01*
X91557745Y-108373200D02*
X91500602Y-108258914D01*
X91500602Y-108258914D02*
X91500602Y-108201771D01*
X91500602Y-108201771D02*
X91557745Y-108087485D01*
X91557745Y-108087485D02*
X91672031Y-108030342D01*
X91672031Y-108030342D02*
X91843460Y-108030342D01*
X91843460Y-108030342D02*
X91957745Y-107973200D01*
X91957745Y-107973200D02*
X92014888Y-107858914D01*
X92014888Y-107858914D02*
X92014888Y-107801771D01*
X92014888Y-107801771D02*
X91957745Y-107687485D01*
X91957745Y-107687485D02*
X91843460Y-107630342D01*
X91843460Y-107630342D02*
X91672031Y-107630342D01*
X91672031Y-107630342D02*
X91557745Y-107687485D01*
X90986316Y-108316057D02*
X90929173Y-108373200D01*
X90929173Y-108373200D02*
X90986316Y-108430342D01*
X90986316Y-108430342D02*
X91043459Y-108373200D01*
X91043459Y-108373200D02*
X90986316Y-108316057D01*
X90986316Y-108316057D02*
X90986316Y-108430342D01*
X90986316Y-107687485D02*
X90929173Y-107744628D01*
X90929173Y-107744628D02*
X90986316Y-107801771D01*
X90986316Y-107801771D02*
X91043459Y-107744628D01*
X91043459Y-107744628D02*
X90986316Y-107687485D01*
X90986316Y-107687485D02*
X90986316Y-107801771D01*
X89557744Y-107173200D02*
X90586316Y-108716057D01*
X88300601Y-107173200D02*
X89329173Y-108716057D01*
X87386316Y-107630342D02*
X87386316Y-108601771D01*
X87386316Y-108601771D02*
X87443458Y-108716057D01*
X87443458Y-108716057D02*
X87500601Y-108773200D01*
X87500601Y-108773200D02*
X87614887Y-108830342D01*
X87614887Y-108830342D02*
X87786316Y-108830342D01*
X87786316Y-108830342D02*
X87900601Y-108773200D01*
X87386316Y-108373200D02*
X87500601Y-108430342D01*
X87500601Y-108430342D02*
X87729173Y-108430342D01*
X87729173Y-108430342D02*
X87843458Y-108373200D01*
X87843458Y-108373200D02*
X87900601Y-108316057D01*
X87900601Y-108316057D02*
X87957744Y-108201771D01*
X87957744Y-108201771D02*
X87957744Y-107858914D01*
X87957744Y-107858914D02*
X87900601Y-107744628D01*
X87900601Y-107744628D02*
X87843458Y-107687485D01*
X87843458Y-107687485D02*
X87729173Y-107630342D01*
X87729173Y-107630342D02*
X87500601Y-107630342D01*
X87500601Y-107630342D02*
X87386316Y-107687485D01*
X86814887Y-108430342D02*
X86814887Y-107630342D01*
X86814887Y-107230342D02*
X86872030Y-107287485D01*
X86872030Y-107287485D02*
X86814887Y-107344628D01*
X86814887Y-107344628D02*
X86757744Y-107287485D01*
X86757744Y-107287485D02*
X86814887Y-107230342D01*
X86814887Y-107230342D02*
X86814887Y-107344628D01*
X86414887Y-107630342D02*
X85957744Y-107630342D01*
X86243458Y-107230342D02*
X86243458Y-108258914D01*
X86243458Y-108258914D02*
X86186315Y-108373200D01*
X86186315Y-108373200D02*
X86072030Y-108430342D01*
X86072030Y-108430342D02*
X85957744Y-108430342D01*
X85557744Y-108430342D02*
X85557744Y-107230342D01*
X85043459Y-108430342D02*
X85043459Y-107801771D01*
X85043459Y-107801771D02*
X85100601Y-107687485D01*
X85100601Y-107687485D02*
X85214887Y-107630342D01*
X85214887Y-107630342D02*
X85386316Y-107630342D01*
X85386316Y-107630342D02*
X85500601Y-107687485D01*
X85500601Y-107687485D02*
X85557744Y-107744628D01*
X83957745Y-107630342D02*
X83957745Y-108430342D01*
X84472030Y-107630342D02*
X84472030Y-108258914D01*
X84472030Y-108258914D02*
X84414887Y-108373200D01*
X84414887Y-108373200D02*
X84300602Y-108430342D01*
X84300602Y-108430342D02*
X84129173Y-108430342D01*
X84129173Y-108430342D02*
X84014887Y-108373200D01*
X84014887Y-108373200D02*
X83957745Y-108316057D01*
X83386316Y-108430342D02*
X83386316Y-107230342D01*
X83386316Y-107687485D02*
X83272031Y-107630342D01*
X83272031Y-107630342D02*
X83043459Y-107630342D01*
X83043459Y-107630342D02*
X82929173Y-107687485D01*
X82929173Y-107687485D02*
X82872031Y-107744628D01*
X82872031Y-107744628D02*
X82814888Y-107858914D01*
X82814888Y-107858914D02*
X82814888Y-108201771D01*
X82814888Y-108201771D02*
X82872031Y-108316057D01*
X82872031Y-108316057D02*
X82929173Y-108373200D01*
X82929173Y-108373200D02*
X83043459Y-108430342D01*
X83043459Y-108430342D02*
X83272031Y-108430342D01*
X83272031Y-108430342D02*
X83386316Y-108373200D01*
X82300602Y-108316057D02*
X82243459Y-108373200D01*
X82243459Y-108373200D02*
X82300602Y-108430342D01*
X82300602Y-108430342D02*
X82357745Y-108373200D01*
X82357745Y-108373200D02*
X82300602Y-108316057D01*
X82300602Y-108316057D02*
X82300602Y-108430342D01*
X81214888Y-108373200D02*
X81329173Y-108430342D01*
X81329173Y-108430342D02*
X81557745Y-108430342D01*
X81557745Y-108430342D02*
X81672030Y-108373200D01*
X81672030Y-108373200D02*
X81729173Y-108316057D01*
X81729173Y-108316057D02*
X81786316Y-108201771D01*
X81786316Y-108201771D02*
X81786316Y-107858914D01*
X81786316Y-107858914D02*
X81729173Y-107744628D01*
X81729173Y-107744628D02*
X81672030Y-107687485D01*
X81672030Y-107687485D02*
X81557745Y-107630342D01*
X81557745Y-107630342D02*
X81329173Y-107630342D01*
X81329173Y-107630342D02*
X81214888Y-107687485D01*
X80529174Y-108430342D02*
X80643459Y-108373200D01*
X80643459Y-108373200D02*
X80700602Y-108316057D01*
X80700602Y-108316057D02*
X80757745Y-108201771D01*
X80757745Y-108201771D02*
X80757745Y-107858914D01*
X80757745Y-107858914D02*
X80700602Y-107744628D01*
X80700602Y-107744628D02*
X80643459Y-107687485D01*
X80643459Y-107687485D02*
X80529174Y-107630342D01*
X80529174Y-107630342D02*
X80357745Y-107630342D01*
X80357745Y-107630342D02*
X80243459Y-107687485D01*
X80243459Y-107687485D02*
X80186317Y-107744628D01*
X80186317Y-107744628D02*
X80129174Y-107858914D01*
X80129174Y-107858914D02*
X80129174Y-108201771D01*
X80129174Y-108201771D02*
X80186317Y-108316057D01*
X80186317Y-108316057D02*
X80243459Y-108373200D01*
X80243459Y-108373200D02*
X80357745Y-108430342D01*
X80357745Y-108430342D02*
X80529174Y-108430342D01*
X79614888Y-108430342D02*
X79614888Y-107630342D01*
X79614888Y-107744628D02*
X79557745Y-107687485D01*
X79557745Y-107687485D02*
X79443460Y-107630342D01*
X79443460Y-107630342D02*
X79272031Y-107630342D01*
X79272031Y-107630342D02*
X79157745Y-107687485D01*
X79157745Y-107687485D02*
X79100603Y-107801771D01*
X79100603Y-107801771D02*
X79100603Y-108430342D01*
X79100603Y-107801771D02*
X79043460Y-107687485D01*
X79043460Y-107687485D02*
X78929174Y-107630342D01*
X78929174Y-107630342D02*
X78757745Y-107630342D01*
X78757745Y-107630342D02*
X78643460Y-107687485D01*
X78643460Y-107687485D02*
X78586317Y-107801771D01*
X78586317Y-107801771D02*
X78586317Y-108430342D01*
X77157745Y-107173200D02*
X78186317Y-108716057D01*
X76243460Y-108430342D02*
X76243460Y-107801771D01*
X76243460Y-107801771D02*
X76300602Y-107687485D01*
X76300602Y-107687485D02*
X76414888Y-107630342D01*
X76414888Y-107630342D02*
X76643460Y-107630342D01*
X76643460Y-107630342D02*
X76757745Y-107687485D01*
X76243460Y-108373200D02*
X76357745Y-108430342D01*
X76357745Y-108430342D02*
X76643460Y-108430342D01*
X76643460Y-108430342D02*
X76757745Y-108373200D01*
X76757745Y-108373200D02*
X76814888Y-108258914D01*
X76814888Y-108258914D02*
X76814888Y-108144628D01*
X76814888Y-108144628D02*
X76757745Y-108030342D01*
X76757745Y-108030342D02*
X76643460Y-107973200D01*
X76643460Y-107973200D02*
X76357745Y-107973200D01*
X76357745Y-107973200D02*
X76243460Y-107916057D01*
X75672031Y-107630342D02*
X75672031Y-108430342D01*
X75672031Y-107744628D02*
X75614888Y-107687485D01*
X75614888Y-107687485D02*
X75500603Y-107630342D01*
X75500603Y-107630342D02*
X75329174Y-107630342D01*
X75329174Y-107630342D02*
X75214888Y-107687485D01*
X75214888Y-107687485D02*
X75157746Y-107801771D01*
X75157746Y-107801771D02*
X75157746Y-108430342D01*
X74072032Y-108430342D02*
X74072032Y-107230342D01*
X74072032Y-108373200D02*
X74186317Y-108430342D01*
X74186317Y-108430342D02*
X74414889Y-108430342D01*
X74414889Y-108430342D02*
X74529174Y-108373200D01*
X74529174Y-108373200D02*
X74586317Y-108316057D01*
X74586317Y-108316057D02*
X74643460Y-108201771D01*
X74643460Y-108201771D02*
X74643460Y-107858914D01*
X74643460Y-107858914D02*
X74586317Y-107744628D01*
X74586317Y-107744628D02*
X74529174Y-107687485D01*
X74529174Y-107687485D02*
X74414889Y-107630342D01*
X74414889Y-107630342D02*
X74186317Y-107630342D01*
X74186317Y-107630342D02*
X74072032Y-107687485D01*
X73500603Y-108430342D02*
X73500603Y-107630342D01*
X73500603Y-107858914D02*
X73443460Y-107744628D01*
X73443460Y-107744628D02*
X73386318Y-107687485D01*
X73386318Y-107687485D02*
X73272032Y-107630342D01*
X73272032Y-107630342D02*
X73157746Y-107630342D01*
X72300603Y-108373200D02*
X72414889Y-108430342D01*
X72414889Y-108430342D02*
X72643461Y-108430342D01*
X72643461Y-108430342D02*
X72757746Y-108373200D01*
X72757746Y-108373200D02*
X72814889Y-108258914D01*
X72814889Y-108258914D02*
X72814889Y-107801771D01*
X72814889Y-107801771D02*
X72757746Y-107687485D01*
X72757746Y-107687485D02*
X72643461Y-107630342D01*
X72643461Y-107630342D02*
X72414889Y-107630342D01*
X72414889Y-107630342D02*
X72300603Y-107687485D01*
X72300603Y-107687485D02*
X72243461Y-107801771D01*
X72243461Y-107801771D02*
X72243461Y-107916057D01*
X72243461Y-107916057D02*
X72814889Y-108030342D01*
X71843461Y-107630342D02*
X71614890Y-108430342D01*
X71614890Y-108430342D02*
X71386318Y-107858914D01*
X71386318Y-107858914D02*
X71157747Y-108430342D01*
X71157747Y-108430342D02*
X70929175Y-107630342D01*
X69957747Y-108430342D02*
X69957747Y-107230342D01*
X69957747Y-108373200D02*
X70072032Y-108430342D01*
X70072032Y-108430342D02*
X70300604Y-108430342D01*
X70300604Y-108430342D02*
X70414889Y-108373200D01*
X70414889Y-108373200D02*
X70472032Y-108316057D01*
X70472032Y-108316057D02*
X70529175Y-108201771D01*
X70529175Y-108201771D02*
X70529175Y-107858914D01*
X70529175Y-107858914D02*
X70472032Y-107744628D01*
X70472032Y-107744628D02*
X70414889Y-107687485D01*
X70414889Y-107687485D02*
X70300604Y-107630342D01*
X70300604Y-107630342D02*
X70072032Y-107630342D01*
X70072032Y-107630342D02*
X69957747Y-107687485D01*
X68872033Y-107630342D02*
X68872033Y-108430342D01*
X69386318Y-107630342D02*
X69386318Y-108258914D01*
X69386318Y-108258914D02*
X69329175Y-108373200D01*
X69329175Y-108373200D02*
X69214890Y-108430342D01*
X69214890Y-108430342D02*
X69043461Y-108430342D01*
X69043461Y-108430342D02*
X68929175Y-108373200D01*
X68929175Y-108373200D02*
X68872033Y-108316057D01*
X68300604Y-108430342D02*
X68300604Y-107230342D01*
X67786319Y-108430342D02*
X67786319Y-107801771D01*
X67786319Y-107801771D02*
X67843461Y-107687485D01*
X67843461Y-107687485D02*
X67957747Y-107630342D01*
X67957747Y-107630342D02*
X68129176Y-107630342D01*
X68129176Y-107630342D02*
X68243461Y-107687485D01*
X68243461Y-107687485D02*
X68300604Y-107744628D01*
X66700605Y-108430342D02*
X66700605Y-107801771D01*
X66700605Y-107801771D02*
X66757747Y-107687485D01*
X66757747Y-107687485D02*
X66872033Y-107630342D01*
X66872033Y-107630342D02*
X67100605Y-107630342D01*
X67100605Y-107630342D02*
X67214890Y-107687485D01*
X66700605Y-108373200D02*
X66814890Y-108430342D01*
X66814890Y-108430342D02*
X67100605Y-108430342D01*
X67100605Y-108430342D02*
X67214890Y-108373200D01*
X67214890Y-108373200D02*
X67272033Y-108258914D01*
X67272033Y-108258914D02*
X67272033Y-108144628D01*
X67272033Y-108144628D02*
X67214890Y-108030342D01*
X67214890Y-108030342D02*
X67100605Y-107973200D01*
X67100605Y-107973200D02*
X66814890Y-107973200D01*
X66814890Y-107973200D02*
X66700605Y-107916057D01*
X66129176Y-107630342D02*
X66129176Y-108430342D01*
X66129176Y-107744628D02*
X66072033Y-107687485D01*
X66072033Y-107687485D02*
X65957748Y-107630342D01*
X65957748Y-107630342D02*
X65786319Y-107630342D01*
X65786319Y-107630342D02*
X65672033Y-107687485D01*
X65672033Y-107687485D02*
X65614891Y-107801771D01*
X65614891Y-107801771D02*
X65614891Y-108430342D01*
X64186319Y-107173200D02*
X65214891Y-108716057D01*
X63214891Y-108430342D02*
X63786319Y-108430342D01*
X63786319Y-108430342D02*
X63786319Y-107230342D01*
X62814890Y-107801771D02*
X62414890Y-107801771D01*
X62243462Y-108430342D02*
X62814890Y-108430342D01*
X62814890Y-108430342D02*
X62814890Y-107230342D01*
X62814890Y-107230342D02*
X62243462Y-107230342D01*
X61729176Y-108430342D02*
X61729176Y-107230342D01*
X61729176Y-107230342D02*
X61443462Y-107230342D01*
X61443462Y-107230342D02*
X61272033Y-107287485D01*
X61272033Y-107287485D02*
X61157748Y-107401771D01*
X61157748Y-107401771D02*
X61100605Y-107516057D01*
X61100605Y-107516057D02*
X61043462Y-107744628D01*
X61043462Y-107744628D02*
X61043462Y-107916057D01*
X61043462Y-107916057D02*
X61100605Y-108144628D01*
X61100605Y-108144628D02*
X61157748Y-108258914D01*
X61157748Y-108258914D02*
X61272033Y-108373200D01*
X61272033Y-108373200D02*
X61443462Y-108430342D01*
X61443462Y-108430342D02*
X61729176Y-108430342D01*
X60529176Y-107973200D02*
X59614891Y-107973200D01*
X58414891Y-108430342D02*
X59100605Y-108430342D01*
X58757748Y-108430342D02*
X58757748Y-107230342D01*
X58757748Y-107230342D02*
X58872034Y-107401771D01*
X58872034Y-107401771D02*
X58986319Y-107516057D01*
X58986319Y-107516057D02*
X59100605Y-107573200D01*
X57672034Y-107230342D02*
X57557748Y-107230342D01*
X57557748Y-107230342D02*
X57443462Y-107287485D01*
X57443462Y-107287485D02*
X57386320Y-107344628D01*
X57386320Y-107344628D02*
X57329177Y-107458914D01*
X57329177Y-107458914D02*
X57272034Y-107687485D01*
X57272034Y-107687485D02*
X57272034Y-107973200D01*
X57272034Y-107973200D02*
X57329177Y-108201771D01*
X57329177Y-108201771D02*
X57386320Y-108316057D01*
X57386320Y-108316057D02*
X57443462Y-108373200D01*
X57443462Y-108373200D02*
X57557748Y-108430342D01*
X57557748Y-108430342D02*
X57672034Y-108430342D01*
X57672034Y-108430342D02*
X57786320Y-108373200D01*
X57786320Y-108373200D02*
X57843462Y-108316057D01*
X57843462Y-108316057D02*
X57900605Y-108201771D01*
X57900605Y-108201771D02*
X57957748Y-107973200D01*
X57957748Y-107973200D02*
X57957748Y-107687485D01*
X57957748Y-107687485D02*
X57900605Y-107458914D01*
X57900605Y-107458914D02*
X57843462Y-107344628D01*
X57843462Y-107344628D02*
X57786320Y-107287485D01*
X57786320Y-107287485D02*
X57672034Y-107230342D01*
X56529177Y-107230342D02*
X56414891Y-107230342D01*
X56414891Y-107230342D02*
X56300605Y-107287485D01*
X56300605Y-107287485D02*
X56243463Y-107344628D01*
X56243463Y-107344628D02*
X56186320Y-107458914D01*
X56186320Y-107458914D02*
X56129177Y-107687485D01*
X56129177Y-107687485D02*
X56129177Y-107973200D01*
X56129177Y-107973200D02*
X56186320Y-108201771D01*
X56186320Y-108201771D02*
X56243463Y-108316057D01*
X56243463Y-108316057D02*
X56300605Y-108373200D01*
X56300605Y-108373200D02*
X56414891Y-108430342D01*
X56414891Y-108430342D02*
X56529177Y-108430342D01*
X56529177Y-108430342D02*
X56643463Y-108373200D01*
X56643463Y-108373200D02*
X56700605Y-108316057D01*
X56700605Y-108316057D02*
X56757748Y-108201771D01*
X56757748Y-108201771D02*
X56814891Y-107973200D01*
X56814891Y-107973200D02*
X56814891Y-107687485D01*
X56814891Y-107687485D02*
X56757748Y-107458914D01*
X56757748Y-107458914D02*
X56700605Y-107344628D01*
X56700605Y-107344628D02*
X56643463Y-107287485D01*
X56643463Y-107287485D02*
X56529177Y-107230342D01*
D11*
X37159251Y-109313042D02*
X37159251Y-108513042D01*
X37159251Y-108513042D02*
X36968775Y-108513042D01*
X36968775Y-108513042D02*
X36854489Y-108551137D01*
X36854489Y-108551137D02*
X36778299Y-108627327D01*
X36778299Y-108627327D02*
X36740204Y-108703518D01*
X36740204Y-108703518D02*
X36702108Y-108855899D01*
X36702108Y-108855899D02*
X36702108Y-108970185D01*
X36702108Y-108970185D02*
X36740204Y-109122566D01*
X36740204Y-109122566D02*
X36778299Y-109198756D01*
X36778299Y-109198756D02*
X36854489Y-109274947D01*
X36854489Y-109274947D02*
X36968775Y-109313042D01*
X36968775Y-109313042D02*
X37159251Y-109313042D01*
X36016394Y-108779708D02*
X36016394Y-109313042D01*
X36359251Y-108779708D02*
X36359251Y-109198756D01*
X36359251Y-109198756D02*
X36321156Y-109274947D01*
X36321156Y-109274947D02*
X36244966Y-109313042D01*
X36244966Y-109313042D02*
X36130680Y-109313042D01*
X36130680Y-109313042D02*
X36054489Y-109274947D01*
X36054489Y-109274947D02*
X36016394Y-109236851D01*
X35635441Y-109313042D02*
X35635441Y-108513042D01*
X35292584Y-109313042D02*
X35292584Y-108893994D01*
X35292584Y-108893994D02*
X35330679Y-108817804D01*
X35330679Y-108817804D02*
X35406870Y-108779708D01*
X35406870Y-108779708D02*
X35521156Y-108779708D01*
X35521156Y-108779708D02*
X35597346Y-108817804D01*
X35597346Y-108817804D02*
X35635441Y-108855899D01*
X34568774Y-109313042D02*
X34568774Y-108893994D01*
X34568774Y-108893994D02*
X34606869Y-108817804D01*
X34606869Y-108817804D02*
X34683060Y-108779708D01*
X34683060Y-108779708D02*
X34835441Y-108779708D01*
X34835441Y-108779708D02*
X34911631Y-108817804D01*
X34568774Y-109274947D02*
X34644965Y-109313042D01*
X34644965Y-109313042D02*
X34835441Y-109313042D01*
X34835441Y-109313042D02*
X34911631Y-109274947D01*
X34911631Y-109274947D02*
X34949727Y-109198756D01*
X34949727Y-109198756D02*
X34949727Y-109122566D01*
X34949727Y-109122566D02*
X34911631Y-109046375D01*
X34911631Y-109046375D02*
X34835441Y-109008280D01*
X34835441Y-109008280D02*
X34644965Y-109008280D01*
X34644965Y-109008280D02*
X34568774Y-108970185D01*
X34187821Y-108779708D02*
X34187821Y-109313042D01*
X34187821Y-108855899D02*
X34149726Y-108817804D01*
X34149726Y-108817804D02*
X34073536Y-108779708D01*
X34073536Y-108779708D02*
X33959250Y-108779708D01*
X33959250Y-108779708D02*
X33883059Y-108817804D01*
X33883059Y-108817804D02*
X33844964Y-108893994D01*
X33844964Y-108893994D02*
X33844964Y-109313042D01*
X32854487Y-109313042D02*
X32854487Y-108513042D01*
X32854487Y-108513042D02*
X32549725Y-108513042D01*
X32549725Y-108513042D02*
X32473535Y-108551137D01*
X32473535Y-108551137D02*
X32435440Y-108589232D01*
X32435440Y-108589232D02*
X32397344Y-108665423D01*
X32397344Y-108665423D02*
X32397344Y-108779708D01*
X32397344Y-108779708D02*
X32435440Y-108855899D01*
X32435440Y-108855899D02*
X32473535Y-108893994D01*
X32473535Y-108893994D02*
X32549725Y-108932089D01*
X32549725Y-108932089D02*
X32854487Y-108932089D01*
X31940202Y-109313042D02*
X32016392Y-109274947D01*
X32016392Y-109274947D02*
X32054487Y-109236851D01*
X32054487Y-109236851D02*
X32092583Y-109160661D01*
X32092583Y-109160661D02*
X32092583Y-108932089D01*
X32092583Y-108932089D02*
X32054487Y-108855899D01*
X32054487Y-108855899D02*
X32016392Y-108817804D01*
X32016392Y-108817804D02*
X31940202Y-108779708D01*
X31940202Y-108779708D02*
X31825916Y-108779708D01*
X31825916Y-108779708D02*
X31749725Y-108817804D01*
X31749725Y-108817804D02*
X31711630Y-108855899D01*
X31711630Y-108855899D02*
X31673535Y-108932089D01*
X31673535Y-108932089D02*
X31673535Y-109160661D01*
X31673535Y-109160661D02*
X31711630Y-109236851D01*
X31711630Y-109236851D02*
X31749725Y-109274947D01*
X31749725Y-109274947D02*
X31825916Y-109313042D01*
X31825916Y-109313042D02*
X31940202Y-109313042D01*
X31406868Y-108779708D02*
X31254487Y-109313042D01*
X31254487Y-109313042D02*
X31102106Y-108932089D01*
X31102106Y-108932089D02*
X30949725Y-109313042D01*
X30949725Y-109313042D02*
X30797344Y-108779708D01*
X30187820Y-109274947D02*
X30264011Y-109313042D01*
X30264011Y-109313042D02*
X30416392Y-109313042D01*
X30416392Y-109313042D02*
X30492582Y-109274947D01*
X30492582Y-109274947D02*
X30530678Y-109198756D01*
X30530678Y-109198756D02*
X30530678Y-108893994D01*
X30530678Y-108893994D02*
X30492582Y-108817804D01*
X30492582Y-108817804D02*
X30416392Y-108779708D01*
X30416392Y-108779708D02*
X30264011Y-108779708D01*
X30264011Y-108779708D02*
X30187820Y-108817804D01*
X30187820Y-108817804D02*
X30149725Y-108893994D01*
X30149725Y-108893994D02*
X30149725Y-108970185D01*
X30149725Y-108970185D02*
X30530678Y-109046375D01*
X29806868Y-109313042D02*
X29806868Y-108779708D01*
X29806868Y-108932089D02*
X29768773Y-108855899D01*
X29768773Y-108855899D02*
X29730678Y-108817804D01*
X29730678Y-108817804D02*
X29654487Y-108779708D01*
X29654487Y-108779708D02*
X29578297Y-108779708D01*
X29311630Y-109236851D02*
X29273535Y-109274947D01*
X29273535Y-109274947D02*
X29311630Y-109313042D01*
X29311630Y-109313042D02*
X29349726Y-109274947D01*
X29349726Y-109274947D02*
X29311630Y-109236851D01*
X29311630Y-109236851D02*
X29311630Y-109313042D01*
X29311630Y-109008280D02*
X29349726Y-108551137D01*
X29349726Y-108551137D02*
X29311630Y-108513042D01*
X29311630Y-108513042D02*
X29273535Y-108551137D01*
X29273535Y-108551137D02*
X29311630Y-109008280D01*
X29311630Y-109008280D02*
X29311630Y-108513042D01*
D12*
X31607678Y-107095867D02*
X31607678Y-105095867D01*
X31607678Y-105095867D02*
X30845773Y-105095867D01*
X30845773Y-105095867D02*
X30655297Y-105191105D01*
X30655297Y-105191105D02*
X30560059Y-105286343D01*
X30560059Y-105286343D02*
X30464821Y-105476819D01*
X30464821Y-105476819D02*
X30464821Y-105762533D01*
X30464821Y-105762533D02*
X30560059Y-105953009D01*
X30560059Y-105953009D02*
X30655297Y-106048248D01*
X30655297Y-106048248D02*
X30845773Y-106143486D01*
X30845773Y-106143486D02*
X31607678Y-106143486D01*
D10*
X95557744Y-105833200D02*
X95386316Y-105890342D01*
X95386316Y-105890342D02*
X95100601Y-105890342D01*
X95100601Y-105890342D02*
X94986316Y-105833200D01*
X94986316Y-105833200D02*
X94929173Y-105776057D01*
X94929173Y-105776057D02*
X94872030Y-105661771D01*
X94872030Y-105661771D02*
X94872030Y-105547485D01*
X94872030Y-105547485D02*
X94929173Y-105433200D01*
X94929173Y-105433200D02*
X94986316Y-105376057D01*
X94986316Y-105376057D02*
X95100601Y-105318914D01*
X95100601Y-105318914D02*
X95329173Y-105261771D01*
X95329173Y-105261771D02*
X95443458Y-105204628D01*
X95443458Y-105204628D02*
X95500601Y-105147485D01*
X95500601Y-105147485D02*
X95557744Y-105033200D01*
X95557744Y-105033200D02*
X95557744Y-104918914D01*
X95557744Y-104918914D02*
X95500601Y-104804628D01*
X95500601Y-104804628D02*
X95443458Y-104747485D01*
X95443458Y-104747485D02*
X95329173Y-104690342D01*
X95329173Y-104690342D02*
X95043458Y-104690342D01*
X95043458Y-104690342D02*
X94872030Y-104747485D01*
X93843459Y-105833200D02*
X93957744Y-105890342D01*
X93957744Y-105890342D02*
X94186316Y-105890342D01*
X94186316Y-105890342D02*
X94300601Y-105833200D01*
X94300601Y-105833200D02*
X94357744Y-105776057D01*
X94357744Y-105776057D02*
X94414887Y-105661771D01*
X94414887Y-105661771D02*
X94414887Y-105318914D01*
X94414887Y-105318914D02*
X94357744Y-105204628D01*
X94357744Y-105204628D02*
X94300601Y-105147485D01*
X94300601Y-105147485D02*
X94186316Y-105090342D01*
X94186316Y-105090342D02*
X93957744Y-105090342D01*
X93957744Y-105090342D02*
X93843459Y-105147485D01*
X93329173Y-105890342D02*
X93329173Y-104690342D01*
X92814888Y-105890342D02*
X92814888Y-105261771D01*
X92814888Y-105261771D02*
X92872030Y-105147485D01*
X92872030Y-105147485D02*
X92986316Y-105090342D01*
X92986316Y-105090342D02*
X93157745Y-105090342D01*
X93157745Y-105090342D02*
X93272030Y-105147485D01*
X93272030Y-105147485D02*
X93329173Y-105204628D01*
X91786316Y-105833200D02*
X91900602Y-105890342D01*
X91900602Y-105890342D02*
X92129174Y-105890342D01*
X92129174Y-105890342D02*
X92243459Y-105833200D01*
X92243459Y-105833200D02*
X92300602Y-105718914D01*
X92300602Y-105718914D02*
X92300602Y-105261771D01*
X92300602Y-105261771D02*
X92243459Y-105147485D01*
X92243459Y-105147485D02*
X92129174Y-105090342D01*
X92129174Y-105090342D02*
X91900602Y-105090342D01*
X91900602Y-105090342D02*
X91786316Y-105147485D01*
X91786316Y-105147485D02*
X91729174Y-105261771D01*
X91729174Y-105261771D02*
X91729174Y-105376057D01*
X91729174Y-105376057D02*
X92300602Y-105490342D01*
X91214888Y-105890342D02*
X91214888Y-105090342D01*
X91214888Y-105204628D02*
X91157745Y-105147485D01*
X91157745Y-105147485D02*
X91043460Y-105090342D01*
X91043460Y-105090342D02*
X90872031Y-105090342D01*
X90872031Y-105090342D02*
X90757745Y-105147485D01*
X90757745Y-105147485D02*
X90700603Y-105261771D01*
X90700603Y-105261771D02*
X90700603Y-105890342D01*
X90700603Y-105261771D02*
X90643460Y-105147485D01*
X90643460Y-105147485D02*
X90529174Y-105090342D01*
X90529174Y-105090342D02*
X90357745Y-105090342D01*
X90357745Y-105090342D02*
X90243460Y-105147485D01*
X90243460Y-105147485D02*
X90186317Y-105261771D01*
X90186317Y-105261771D02*
X90186317Y-105890342D01*
X89100603Y-105890342D02*
X89100603Y-105261771D01*
X89100603Y-105261771D02*
X89157745Y-105147485D01*
X89157745Y-105147485D02*
X89272031Y-105090342D01*
X89272031Y-105090342D02*
X89500603Y-105090342D01*
X89500603Y-105090342D02*
X89614888Y-105147485D01*
X89100603Y-105833200D02*
X89214888Y-105890342D01*
X89214888Y-105890342D02*
X89500603Y-105890342D01*
X89500603Y-105890342D02*
X89614888Y-105833200D01*
X89614888Y-105833200D02*
X89672031Y-105718914D01*
X89672031Y-105718914D02*
X89672031Y-105604628D01*
X89672031Y-105604628D02*
X89614888Y-105490342D01*
X89614888Y-105490342D02*
X89500603Y-105433200D01*
X89500603Y-105433200D02*
X89214888Y-105433200D01*
X89214888Y-105433200D02*
X89100603Y-105376057D01*
X88700603Y-105090342D02*
X88243460Y-105090342D01*
X88529174Y-104690342D02*
X88529174Y-105718914D01*
X88529174Y-105718914D02*
X88472031Y-105833200D01*
X88472031Y-105833200D02*
X88357746Y-105890342D01*
X88357746Y-105890342D02*
X88243460Y-105890342D01*
X87843460Y-105890342D02*
X87843460Y-105090342D01*
X87843460Y-104690342D02*
X87900603Y-104747485D01*
X87900603Y-104747485D02*
X87843460Y-104804628D01*
X87843460Y-104804628D02*
X87786317Y-104747485D01*
X87786317Y-104747485D02*
X87843460Y-104690342D01*
X87843460Y-104690342D02*
X87843460Y-104804628D01*
X86757746Y-105833200D02*
X86872031Y-105890342D01*
X86872031Y-105890342D02*
X87100603Y-105890342D01*
X87100603Y-105890342D02*
X87214888Y-105833200D01*
X87214888Y-105833200D02*
X87272031Y-105776057D01*
X87272031Y-105776057D02*
X87329174Y-105661771D01*
X87329174Y-105661771D02*
X87329174Y-105318914D01*
X87329174Y-105318914D02*
X87272031Y-105204628D01*
X87272031Y-105204628D02*
X87214888Y-105147485D01*
X87214888Y-105147485D02*
X87100603Y-105090342D01*
X87100603Y-105090342D02*
X86872031Y-105090342D01*
X86872031Y-105090342D02*
X86757746Y-105147485D01*
X86300603Y-105833200D02*
X86186317Y-105890342D01*
X86186317Y-105890342D02*
X85957746Y-105890342D01*
X85957746Y-105890342D02*
X85843460Y-105833200D01*
X85843460Y-105833200D02*
X85786317Y-105718914D01*
X85786317Y-105718914D02*
X85786317Y-105661771D01*
X85786317Y-105661771D02*
X85843460Y-105547485D01*
X85843460Y-105547485D02*
X85957746Y-105490342D01*
X85957746Y-105490342D02*
X86129175Y-105490342D01*
X86129175Y-105490342D02*
X86243460Y-105433200D01*
X86243460Y-105433200D02*
X86300603Y-105318914D01*
X86300603Y-105318914D02*
X86300603Y-105261771D01*
X86300603Y-105261771D02*
X86243460Y-105147485D01*
X86243460Y-105147485D02*
X86129175Y-105090342D01*
X86129175Y-105090342D02*
X85957746Y-105090342D01*
X85957746Y-105090342D02*
X85843460Y-105147485D01*
X85214888Y-105833200D02*
X85214888Y-105890342D01*
X85214888Y-105890342D02*
X85272031Y-106004628D01*
X85272031Y-106004628D02*
X85329174Y-106061771D01*
X83843459Y-105833200D02*
X83729173Y-105890342D01*
X83729173Y-105890342D02*
X83500602Y-105890342D01*
X83500602Y-105890342D02*
X83386316Y-105833200D01*
X83386316Y-105833200D02*
X83329173Y-105718914D01*
X83329173Y-105718914D02*
X83329173Y-105661771D01*
X83329173Y-105661771D02*
X83386316Y-105547485D01*
X83386316Y-105547485D02*
X83500602Y-105490342D01*
X83500602Y-105490342D02*
X83672031Y-105490342D01*
X83672031Y-105490342D02*
X83786316Y-105433200D01*
X83786316Y-105433200D02*
X83843459Y-105318914D01*
X83843459Y-105318914D02*
X83843459Y-105261771D01*
X83843459Y-105261771D02*
X83786316Y-105147485D01*
X83786316Y-105147485D02*
X83672031Y-105090342D01*
X83672031Y-105090342D02*
X83500602Y-105090342D01*
X83500602Y-105090342D02*
X83386316Y-105147485D01*
X82643459Y-105890342D02*
X82757744Y-105833200D01*
X82757744Y-105833200D02*
X82814887Y-105776057D01*
X82814887Y-105776057D02*
X82872030Y-105661771D01*
X82872030Y-105661771D02*
X82872030Y-105318914D01*
X82872030Y-105318914D02*
X82814887Y-105204628D01*
X82814887Y-105204628D02*
X82757744Y-105147485D01*
X82757744Y-105147485D02*
X82643459Y-105090342D01*
X82643459Y-105090342D02*
X82472030Y-105090342D01*
X82472030Y-105090342D02*
X82357744Y-105147485D01*
X82357744Y-105147485D02*
X82300602Y-105204628D01*
X82300602Y-105204628D02*
X82243459Y-105318914D01*
X82243459Y-105318914D02*
X82243459Y-105661771D01*
X82243459Y-105661771D02*
X82300602Y-105776057D01*
X82300602Y-105776057D02*
X82357744Y-105833200D01*
X82357744Y-105833200D02*
X82472030Y-105890342D01*
X82472030Y-105890342D02*
X82643459Y-105890342D01*
X81214888Y-105090342D02*
X81214888Y-105890342D01*
X81729173Y-105090342D02*
X81729173Y-105718914D01*
X81729173Y-105718914D02*
X81672030Y-105833200D01*
X81672030Y-105833200D02*
X81557745Y-105890342D01*
X81557745Y-105890342D02*
X81386316Y-105890342D01*
X81386316Y-105890342D02*
X81272030Y-105833200D01*
X81272030Y-105833200D02*
X81214888Y-105776057D01*
X80643459Y-105890342D02*
X80643459Y-105090342D01*
X80643459Y-105318914D02*
X80586316Y-105204628D01*
X80586316Y-105204628D02*
X80529174Y-105147485D01*
X80529174Y-105147485D02*
X80414888Y-105090342D01*
X80414888Y-105090342D02*
X80300602Y-105090342D01*
X79386317Y-105833200D02*
X79500602Y-105890342D01*
X79500602Y-105890342D02*
X79729174Y-105890342D01*
X79729174Y-105890342D02*
X79843459Y-105833200D01*
X79843459Y-105833200D02*
X79900602Y-105776057D01*
X79900602Y-105776057D02*
X79957745Y-105661771D01*
X79957745Y-105661771D02*
X79957745Y-105318914D01*
X79957745Y-105318914D02*
X79900602Y-105204628D01*
X79900602Y-105204628D02*
X79843459Y-105147485D01*
X79843459Y-105147485D02*
X79729174Y-105090342D01*
X79729174Y-105090342D02*
X79500602Y-105090342D01*
X79500602Y-105090342D02*
X79386317Y-105147485D01*
X78414888Y-105833200D02*
X78529174Y-105890342D01*
X78529174Y-105890342D02*
X78757746Y-105890342D01*
X78757746Y-105890342D02*
X78872031Y-105833200D01*
X78872031Y-105833200D02*
X78929174Y-105718914D01*
X78929174Y-105718914D02*
X78929174Y-105261771D01*
X78929174Y-105261771D02*
X78872031Y-105147485D01*
X78872031Y-105147485D02*
X78757746Y-105090342D01*
X78757746Y-105090342D02*
X78529174Y-105090342D01*
X78529174Y-105090342D02*
X78414888Y-105147485D01*
X78414888Y-105147485D02*
X78357746Y-105261771D01*
X78357746Y-105261771D02*
X78357746Y-105376057D01*
X78357746Y-105376057D02*
X78929174Y-105490342D01*
X77786317Y-105833200D02*
X77786317Y-105890342D01*
X77786317Y-105890342D02*
X77843460Y-106004628D01*
X77843460Y-106004628D02*
X77900603Y-106061771D01*
X75843460Y-105890342D02*
X75843460Y-105261771D01*
X75843460Y-105261771D02*
X75900602Y-105147485D01*
X75900602Y-105147485D02*
X76014888Y-105090342D01*
X76014888Y-105090342D02*
X76243460Y-105090342D01*
X76243460Y-105090342D02*
X76357745Y-105147485D01*
X75843460Y-105833200D02*
X75957745Y-105890342D01*
X75957745Y-105890342D02*
X76243460Y-105890342D01*
X76243460Y-105890342D02*
X76357745Y-105833200D01*
X76357745Y-105833200D02*
X76414888Y-105718914D01*
X76414888Y-105718914D02*
X76414888Y-105604628D01*
X76414888Y-105604628D02*
X76357745Y-105490342D01*
X76357745Y-105490342D02*
X76243460Y-105433200D01*
X76243460Y-105433200D02*
X75957745Y-105433200D01*
X75957745Y-105433200D02*
X75843460Y-105376057D01*
X75272031Y-105090342D02*
X75272031Y-105890342D01*
X75272031Y-105204628D02*
X75214888Y-105147485D01*
X75214888Y-105147485D02*
X75100603Y-105090342D01*
X75100603Y-105090342D02*
X74929174Y-105090342D01*
X74929174Y-105090342D02*
X74814888Y-105147485D01*
X74814888Y-105147485D02*
X74757746Y-105261771D01*
X74757746Y-105261771D02*
X74757746Y-105890342D01*
X73672032Y-105890342D02*
X73672032Y-104690342D01*
X73672032Y-105833200D02*
X73786317Y-105890342D01*
X73786317Y-105890342D02*
X74014889Y-105890342D01*
X74014889Y-105890342D02*
X74129174Y-105833200D01*
X74129174Y-105833200D02*
X74186317Y-105776057D01*
X74186317Y-105776057D02*
X74243460Y-105661771D01*
X74243460Y-105661771D02*
X74243460Y-105318914D01*
X74243460Y-105318914D02*
X74186317Y-105204628D01*
X74186317Y-105204628D02*
X74129174Y-105147485D01*
X74129174Y-105147485D02*
X74014889Y-105090342D01*
X74014889Y-105090342D02*
X73786317Y-105090342D01*
X73786317Y-105090342D02*
X73672032Y-105147485D01*
X71672032Y-105833200D02*
X71786317Y-105890342D01*
X71786317Y-105890342D02*
X72014889Y-105890342D01*
X72014889Y-105890342D02*
X72129174Y-105833200D01*
X72129174Y-105833200D02*
X72186317Y-105776057D01*
X72186317Y-105776057D02*
X72243460Y-105661771D01*
X72243460Y-105661771D02*
X72243460Y-105318914D01*
X72243460Y-105318914D02*
X72186317Y-105204628D01*
X72186317Y-105204628D02*
X72129174Y-105147485D01*
X72129174Y-105147485D02*
X72014889Y-105090342D01*
X72014889Y-105090342D02*
X71786317Y-105090342D01*
X71786317Y-105090342D02*
X71672032Y-105147485D01*
X70986318Y-105890342D02*
X71100603Y-105833200D01*
X71100603Y-105833200D02*
X71157746Y-105776057D01*
X71157746Y-105776057D02*
X71214889Y-105661771D01*
X71214889Y-105661771D02*
X71214889Y-105318914D01*
X71214889Y-105318914D02*
X71157746Y-105204628D01*
X71157746Y-105204628D02*
X71100603Y-105147485D01*
X71100603Y-105147485D02*
X70986318Y-105090342D01*
X70986318Y-105090342D02*
X70814889Y-105090342D01*
X70814889Y-105090342D02*
X70700603Y-105147485D01*
X70700603Y-105147485D02*
X70643461Y-105204628D01*
X70643461Y-105204628D02*
X70586318Y-105318914D01*
X70586318Y-105318914D02*
X70586318Y-105661771D01*
X70586318Y-105661771D02*
X70643461Y-105776057D01*
X70643461Y-105776057D02*
X70700603Y-105833200D01*
X70700603Y-105833200D02*
X70814889Y-105890342D01*
X70814889Y-105890342D02*
X70986318Y-105890342D01*
X69557747Y-105890342D02*
X69557747Y-104690342D01*
X69557747Y-105833200D02*
X69672032Y-105890342D01*
X69672032Y-105890342D02*
X69900604Y-105890342D01*
X69900604Y-105890342D02*
X70014889Y-105833200D01*
X70014889Y-105833200D02*
X70072032Y-105776057D01*
X70072032Y-105776057D02*
X70129175Y-105661771D01*
X70129175Y-105661771D02*
X70129175Y-105318914D01*
X70129175Y-105318914D02*
X70072032Y-105204628D01*
X70072032Y-105204628D02*
X70014889Y-105147485D01*
X70014889Y-105147485D02*
X69900604Y-105090342D01*
X69900604Y-105090342D02*
X69672032Y-105090342D01*
X69672032Y-105090342D02*
X69557747Y-105147485D01*
X68529175Y-105833200D02*
X68643461Y-105890342D01*
X68643461Y-105890342D02*
X68872033Y-105890342D01*
X68872033Y-105890342D02*
X68986318Y-105833200D01*
X68986318Y-105833200D02*
X69043461Y-105718914D01*
X69043461Y-105718914D02*
X69043461Y-105261771D01*
X69043461Y-105261771D02*
X68986318Y-105147485D01*
X68986318Y-105147485D02*
X68872033Y-105090342D01*
X68872033Y-105090342D02*
X68643461Y-105090342D01*
X68643461Y-105090342D02*
X68529175Y-105147485D01*
X68529175Y-105147485D02*
X68472033Y-105261771D01*
X68472033Y-105261771D02*
X68472033Y-105376057D01*
X68472033Y-105376057D02*
X69043461Y-105490342D01*
X67957747Y-105776057D02*
X67900604Y-105833200D01*
X67900604Y-105833200D02*
X67957747Y-105890342D01*
X67957747Y-105890342D02*
X68014890Y-105833200D01*
X68014890Y-105833200D02*
X67957747Y-105776057D01*
X67957747Y-105776057D02*
X67957747Y-105890342D01*
X67957747Y-105147485D02*
X67900604Y-105204628D01*
X67900604Y-105204628D02*
X67957747Y-105261771D01*
X67957747Y-105261771D02*
X68014890Y-105204628D01*
X68014890Y-105204628D02*
X67957747Y-105147485D01*
X67957747Y-105147485D02*
X67957747Y-105261771D01*
D12*
X35882210Y-107091309D02*
X35882210Y-105091309D01*
X35882210Y-105091309D02*
X35406020Y-105091309D01*
X35406020Y-105091309D02*
X35120305Y-105186547D01*
X35120305Y-105186547D02*
X34929829Y-105377023D01*
X34929829Y-105377023D02*
X34834591Y-105567499D01*
X34834591Y-105567499D02*
X34739353Y-105948451D01*
X34739353Y-105948451D02*
X34739353Y-106234166D01*
X34739353Y-106234166D02*
X34834591Y-106615118D01*
X34834591Y-106615118D02*
X34929829Y-106805594D01*
X34929829Y-106805594D02*
X35120305Y-106996071D01*
X35120305Y-106996071D02*
X35406020Y-107091309D01*
X35406020Y-107091309D02*
X35882210Y-107091309D01*
D11*
%TO.C,U3*%
X96319000Y-67824480D02*
X96319000Y-63252480D01*
X100891000Y-67824480D02*
X96319000Y-67824480D01*
X96319000Y-63252480D02*
X100891000Y-63252480D01*
X100891000Y-63252480D02*
X100891000Y-67824480D01*
%TO.C,U2*%
X73914000Y-97589000D02*
X78486000Y-97589000D01*
X73914000Y-102161000D02*
X73914000Y-97589000D01*
X78486000Y-97589000D02*
X78486000Y-102161000D01*
X78486000Y-102161000D02*
X73914000Y-102161000D01*
%TO.C,U1*%
X73309480Y-42956000D02*
X68737480Y-42956000D01*
X73309480Y-38384000D02*
X73309480Y-42956000D01*
X68737480Y-42956000D02*
X68737480Y-38384000D01*
X68737480Y-38384000D02*
X73309480Y-38384000D01*
%TO.C,REF\u002A\u002A*%
D13*
X98447829Y-108631097D02*
X98507753Y-108653355D01*
X98532673Y-108670080D01*
X98557910Y-108694043D01*
X98575912Y-108724526D01*
X98587858Y-108766023D01*
X98594930Y-108823032D01*
X98598308Y-108900047D01*
X98599171Y-109001565D01*
X98599002Y-109054027D01*
X98598153Y-109125715D01*
X98596711Y-109182925D01*
X98594814Y-109220809D01*
X98592597Y-109234514D01*
X98578172Y-109229981D01*
X98549054Y-109217670D01*
X98548181Y-109217272D01*
X98533060Y-109209356D01*
X98522891Y-109198495D01*
X98516691Y-109179471D01*
X98513478Y-109147069D01*
X98512270Y-109096071D01*
X98512086Y-109021261D01*
X98511714Y-108973804D01*
X98507750Y-108884615D01*
X98498673Y-108819287D01*
X98483524Y-108774393D01*
X98461345Y-108746507D01*
X98431175Y-108732203D01*
X98426990Y-108731206D01*
X98370480Y-108730427D01*
X98326410Y-108755744D01*
X98295972Y-108806502D01*
X98290544Y-108821175D01*
X98278171Y-108853649D01*
X98271905Y-108868572D01*
X98259036Y-108866516D01*
X98230933Y-108855357D01*
X98204721Y-108836927D01*
X98192771Y-108802098D01*
X98196336Y-108777151D01*
X98218235Y-108726547D01*
X98253644Y-108679128D01*
X98295052Y-108646334D01*
X98312400Y-108638752D01*
X98378089Y-108626076D01*
X98447829Y-108631097D01*
G36*
X98447829Y-108631097D02*
G01*
X98507753Y-108653355D01*
X98532673Y-108670080D01*
X98557910Y-108694043D01*
X98575912Y-108724526D01*
X98587858Y-108766023D01*
X98594930Y-108823032D01*
X98598308Y-108900047D01*
X98599171Y-109001565D01*
X98599002Y-109054027D01*
X98598153Y-109125715D01*
X98596711Y-109182925D01*
X98594814Y-109220809D01*
X98592597Y-109234514D01*
X98578172Y-109229981D01*
X98549054Y-109217670D01*
X98548181Y-109217272D01*
X98533060Y-109209356D01*
X98522891Y-109198495D01*
X98516691Y-109179471D01*
X98513478Y-109147069D01*
X98512270Y-109096071D01*
X98512086Y-109021261D01*
X98511714Y-108973804D01*
X98507750Y-108884615D01*
X98498673Y-108819287D01*
X98483524Y-108774393D01*
X98461345Y-108746507D01*
X98431175Y-108732203D01*
X98426990Y-108731206D01*
X98370480Y-108730427D01*
X98326410Y-108755744D01*
X98295972Y-108806502D01*
X98290544Y-108821175D01*
X98278171Y-108853649D01*
X98271905Y-108868572D01*
X98259036Y-108866516D01*
X98230933Y-108855357D01*
X98204721Y-108836927D01*
X98192771Y-108802098D01*
X98196336Y-108777151D01*
X98218235Y-108726547D01*
X98253644Y-108679128D01*
X98295052Y-108646334D01*
X98312400Y-108638752D01*
X98378089Y-108626076D01*
X98447829Y-108631097D01*
G37*
X102396020Y-108597822D02*
X102463810Y-108629680D01*
X102519366Y-108684770D01*
X102530881Y-108702016D01*
X102540432Y-108721562D01*
X102547206Y-108746198D01*
X102551819Y-108780711D01*
X102554888Y-108829889D01*
X102557029Y-108898519D01*
X102558859Y-108991389D01*
X102563404Y-109249007D01*
X102525225Y-109234491D01*
X102490268Y-109221156D01*
X102464097Y-109208323D01*
X102447013Y-109191780D01*
X102437086Y-109166465D01*
X102432386Y-109127316D01*
X102430982Y-109069268D01*
X102430943Y-108987261D01*
X102430744Y-108921895D01*
X102429559Y-108859173D01*
X102426729Y-108816334D01*
X102421609Y-108788220D01*
X102413553Y-108769675D01*
X102401914Y-108755543D01*
X102373303Y-108735600D01*
X102325239Y-108728083D01*
X102277688Y-108747079D01*
X102274550Y-108749511D01*
X102264769Y-108760748D01*
X102257553Y-108778770D01*
X102252299Y-108808026D01*
X102248402Y-108852962D01*
X102245256Y-108918028D01*
X102242257Y-109007670D01*
X102235000Y-109247697D01*
X102173314Y-109220044D01*
X102111629Y-109192391D01*
X102111629Y-108973246D01*
X102111884Y-108913711D01*
X102114086Y-108830892D01*
X102119661Y-108769227D01*
X102129941Y-108723748D01*
X102146258Y-108689484D01*
X102169943Y-108661466D01*
X102202328Y-108634723D01*
X102248907Y-108607780D01*
X102322287Y-108590191D01*
X102396020Y-108597822D01*
G36*
X102396020Y-108597822D02*
G01*
X102463810Y-108629680D01*
X102519366Y-108684770D01*
X102530881Y-108702016D01*
X102540432Y-108721562D01*
X102547206Y-108746198D01*
X102551819Y-108780711D01*
X102554888Y-108829889D01*
X102557029Y-108898519D01*
X102558859Y-108991389D01*
X102563404Y-109249007D01*
X102525225Y-109234491D01*
X102490268Y-109221156D01*
X102464097Y-109208323D01*
X102447013Y-109191780D01*
X102437086Y-109166465D01*
X102432386Y-109127316D01*
X102430982Y-109069268D01*
X102430943Y-108987261D01*
X102430744Y-108921895D01*
X102429559Y-108859173D01*
X102426729Y-108816334D01*
X102421609Y-108788220D01*
X102413553Y-108769675D01*
X102401914Y-108755543D01*
X102373303Y-108735600D01*
X102325239Y-108728083D01*
X102277688Y-108747079D01*
X102274550Y-108749511D01*
X102264769Y-108760748D01*
X102257553Y-108778770D01*
X102252299Y-108808026D01*
X102248402Y-108852962D01*
X102245256Y-108918028D01*
X102242257Y-109007670D01*
X102235000Y-109247697D01*
X102173314Y-109220044D01*
X102111629Y-109192391D01*
X102111629Y-108973246D01*
X102111884Y-108913711D01*
X102114086Y-108830892D01*
X102119661Y-108769227D01*
X102129941Y-108723748D01*
X102146258Y-108689484D01*
X102169943Y-108661466D01*
X102202328Y-108634723D01*
X102248907Y-108607780D01*
X102322287Y-108590191D01*
X102396020Y-108597822D01*
G37*
X100572691Y-108646467D02*
X100577273Y-108649003D01*
X100614704Y-108678057D01*
X100648170Y-108715410D01*
X100654007Y-108723852D01*
X100665165Y-108743553D01*
X100673136Y-108766935D01*
X100678618Y-108799067D01*
X100682307Y-108845019D01*
X100684899Y-108909859D01*
X100687092Y-108998657D01*
X100687402Y-109013669D01*
X100688400Y-109110999D01*
X100686994Y-109179934D01*
X100683164Y-109220948D01*
X100676889Y-109234514D01*
X100657898Y-109230452D01*
X100625638Y-109218144D01*
X100618041Y-109214545D01*
X100606176Y-109206398D01*
X100597994Y-109193004D01*
X100592643Y-109169608D01*
X100589269Y-109131455D01*
X100587019Y-109073790D01*
X100585040Y-108991857D01*
X100584498Y-108967907D01*
X100582403Y-108892266D01*
X100579683Y-108839328D01*
X100575515Y-108804075D01*
X100569079Y-108781487D01*
X100559550Y-108766544D01*
X100546106Y-108754227D01*
X100506305Y-108732634D01*
X100457341Y-108728476D01*
X100413529Y-108744999D01*
X100382008Y-108779210D01*
X100369914Y-108828114D01*
X100369578Y-108841407D01*
X100362972Y-108865472D01*
X100343470Y-108869144D01*
X100305283Y-108854813D01*
X100296438Y-108850217D01*
X100272534Y-108823186D01*
X100272061Y-108782994D01*
X100294836Y-108727409D01*
X100315727Y-108697117D01*
X100369142Y-108654084D01*
X100435074Y-108629755D01*
X100505574Y-108626443D01*
X100572691Y-108646467D01*
G36*
X100572691Y-108646467D02*
G01*
X100577273Y-108649003D01*
X100614704Y-108678057D01*
X100648170Y-108715410D01*
X100654007Y-108723852D01*
X100665165Y-108743553D01*
X100673136Y-108766935D01*
X100678618Y-108799067D01*
X100682307Y-108845019D01*
X100684899Y-108909859D01*
X100687092Y-108998657D01*
X100687402Y-109013669D01*
X100688400Y-109110999D01*
X100686994Y-109179934D01*
X100683164Y-109220948D01*
X100676889Y-109234514D01*
X100657898Y-109230452D01*
X100625638Y-109218144D01*
X100618041Y-109214545D01*
X100606176Y-109206398D01*
X100597994Y-109193004D01*
X100592643Y-109169608D01*
X100589269Y-109131455D01*
X100587019Y-109073790D01*
X100585040Y-108991857D01*
X100584498Y-108967907D01*
X100582403Y-108892266D01*
X100579683Y-108839328D01*
X100575515Y-108804075D01*
X100569079Y-108781487D01*
X100559550Y-108766544D01*
X100546106Y-108754227D01*
X100506305Y-108732634D01*
X100457341Y-108728476D01*
X100413529Y-108744999D01*
X100382008Y-108779210D01*
X100369914Y-108828114D01*
X100369578Y-108841407D01*
X100362972Y-108865472D01*
X100343470Y-108869144D01*
X100305283Y-108854813D01*
X100296438Y-108850217D01*
X100272534Y-108823186D01*
X100272061Y-108782994D01*
X100294836Y-108727409D01*
X100315727Y-108697117D01*
X100369142Y-108654084D01*
X100435074Y-108629755D01*
X100505574Y-108626443D01*
X100572691Y-108646467D01*
G37*
X101643543Y-108429444D02*
X101690714Y-108449342D01*
X101690714Y-108846509D01*
X101690519Y-108949498D01*
X101689998Y-109042141D01*
X101689199Y-109120700D01*
X101688172Y-109181439D01*
X101686963Y-109220623D01*
X101685623Y-109234514D01*
X101685099Y-109234468D01*
X101667287Y-109229420D01*
X101634823Y-109218580D01*
X101589114Y-109202646D01*
X101589114Y-108998173D01*
X101588824Y-108917832D01*
X101587474Y-108859562D01*
X101584369Y-108819909D01*
X101578812Y-108793618D01*
X101570107Y-108775436D01*
X101557556Y-108760107D01*
X101548999Y-108751955D01*
X101502728Y-108729375D01*
X101451728Y-108731375D01*
X101404993Y-108758073D01*
X101398189Y-108764698D01*
X101387293Y-108778456D01*
X101379836Y-108796642D01*
X101375169Y-108824177D01*
X101372642Y-108865981D01*
X101371602Y-108926973D01*
X101371400Y-109012073D01*
X101371303Y-109055234D01*
X101370674Y-109126224D01*
X101369556Y-109183076D01*
X101368063Y-109220828D01*
X101366309Y-109234514D01*
X101365785Y-109234468D01*
X101347973Y-109229420D01*
X101315509Y-109218580D01*
X101269800Y-109202646D01*
X101269823Y-108997237D01*
X101269857Y-108978951D01*
X101271778Y-108883626D01*
X101277678Y-108811543D01*
X101289001Y-108757813D01*
X101307187Y-108717549D01*
X101333679Y-108685861D01*
X101369918Y-108657861D01*
X101405263Y-108640333D01*
X101461773Y-108626785D01*
X101517356Y-108626015D01*
X101560086Y-108639195D01*
X101563298Y-108641015D01*
X101573205Y-108640820D01*
X101579975Y-108625572D01*
X101584861Y-108590613D01*
X101589114Y-108531289D01*
X101596371Y-108409547D01*
X101643543Y-108429444D01*
G36*
X101643543Y-108429444D02*
G01*
X101690714Y-108449342D01*
X101690714Y-108846509D01*
X101690519Y-108949498D01*
X101689998Y-109042141D01*
X101689199Y-109120700D01*
X101688172Y-109181439D01*
X101686963Y-109220623D01*
X101685623Y-109234514D01*
X101685099Y-109234468D01*
X101667287Y-109229420D01*
X101634823Y-109218580D01*
X101589114Y-109202646D01*
X101589114Y-108998173D01*
X101588824Y-108917832D01*
X101587474Y-108859562D01*
X101584369Y-108819909D01*
X101578812Y-108793618D01*
X101570107Y-108775436D01*
X101557556Y-108760107D01*
X101548999Y-108751955D01*
X101502728Y-108729375D01*
X101451728Y-108731375D01*
X101404993Y-108758073D01*
X101398189Y-108764698D01*
X101387293Y-108778456D01*
X101379836Y-108796642D01*
X101375169Y-108824177D01*
X101372642Y-108865981D01*
X101371602Y-108926973D01*
X101371400Y-109012073D01*
X101371303Y-109055234D01*
X101370674Y-109126224D01*
X101369556Y-109183076D01*
X101368063Y-109220828D01*
X101366309Y-109234514D01*
X101365785Y-109234468D01*
X101347973Y-109229420D01*
X101315509Y-109218580D01*
X101269800Y-109202646D01*
X101269823Y-108997237D01*
X101269857Y-108978951D01*
X101271778Y-108883626D01*
X101277678Y-108811543D01*
X101289001Y-108757813D01*
X101307187Y-108717549D01*
X101333679Y-108685861D01*
X101369918Y-108657861D01*
X101405263Y-108640333D01*
X101461773Y-108626785D01*
X101517356Y-108626015D01*
X101560086Y-108639195D01*
X101563298Y-108641015D01*
X101573205Y-108640820D01*
X101579975Y-108625572D01*
X101584861Y-108590613D01*
X101589114Y-108531289D01*
X101596371Y-108409547D01*
X101643543Y-108429444D01*
G37*
X99618941Y-108629282D02*
X99650774Y-108641758D01*
X99687743Y-108658602D01*
X99687743Y-109145196D01*
X99641812Y-109191127D01*
X99631320Y-109201427D01*
X99602255Y-109224320D01*
X99572943Y-109231735D01*
X99529326Y-109228321D01*
X99511568Y-109226114D01*
X99465767Y-109221445D01*
X99433743Y-109219585D01*
X99424244Y-109219869D01*
X99385274Y-109222948D01*
X99338160Y-109228321D01*
X99323085Y-109230168D01*
X99285110Y-109230893D01*
X99257325Y-109219429D01*
X99225674Y-109191127D01*
X99179743Y-109145196D01*
X99179743Y-108885055D01*
X99180101Y-108808180D01*
X99181216Y-108734886D01*
X99182952Y-108676850D01*
X99185167Y-108638663D01*
X99187721Y-108624914D01*
X99188256Y-108624951D01*
X99206808Y-108631793D01*
X99238153Y-108646868D01*
X99280608Y-108668822D01*
X99284604Y-108897240D01*
X99288600Y-109125657D01*
X99375686Y-109125657D01*
X99379657Y-108875286D01*
X99380916Y-108807227D01*
X99382718Y-108734482D01*
X99384671Y-108676730D01*
X99386612Y-108638648D01*
X99388377Y-108624914D01*
X99388885Y-108624962D01*
X99406482Y-108630015D01*
X99438834Y-108640849D01*
X99484543Y-108656783D01*
X99484765Y-108876706D01*
X99484988Y-108914909D01*
X99486531Y-108989146D01*
X99489292Y-109051145D01*
X99492977Y-109095308D01*
X99497292Y-109116041D01*
X99512732Y-109127131D01*
X99544241Y-109130556D01*
X99578886Y-109125657D01*
X99582857Y-108875286D01*
X99584278Y-108811663D01*
X99587225Y-108736356D01*
X99591079Y-108677286D01*
X99595542Y-108638718D01*
X99600317Y-108624914D01*
X99618941Y-108629282D01*
G36*
X99618941Y-108629282D02*
G01*
X99650774Y-108641758D01*
X99687743Y-108658602D01*
X99687743Y-109145196D01*
X99641812Y-109191127D01*
X99631320Y-109201427D01*
X99602255Y-109224320D01*
X99572943Y-109231735D01*
X99529326Y-109228321D01*
X99511568Y-109226114D01*
X99465767Y-109221445D01*
X99433743Y-109219585D01*
X99424244Y-109219869D01*
X99385274Y-109222948D01*
X99338160Y-109228321D01*
X99323085Y-109230168D01*
X99285110Y-109230893D01*
X99257325Y-109219429D01*
X99225674Y-109191127D01*
X99179743Y-109145196D01*
X99179743Y-108885055D01*
X99180101Y-108808180D01*
X99181216Y-108734886D01*
X99182952Y-108676850D01*
X99185167Y-108638663D01*
X99187721Y-108624914D01*
X99188256Y-108624951D01*
X99206808Y-108631793D01*
X99238153Y-108646868D01*
X99280608Y-108668822D01*
X99284604Y-108897240D01*
X99288600Y-109125657D01*
X99375686Y-109125657D01*
X99379657Y-108875286D01*
X99380916Y-108807227D01*
X99382718Y-108734482D01*
X99384671Y-108676730D01*
X99386612Y-108638648D01*
X99388377Y-108624914D01*
X99388885Y-108624962D01*
X99406482Y-108630015D01*
X99438834Y-108640849D01*
X99484543Y-108656783D01*
X99484765Y-108876706D01*
X99484988Y-108914909D01*
X99486531Y-108989146D01*
X99489292Y-109051145D01*
X99492977Y-109095308D01*
X99497292Y-109116041D01*
X99512732Y-109127131D01*
X99544241Y-109130556D01*
X99578886Y-109125657D01*
X99582857Y-108875286D01*
X99584278Y-108811663D01*
X99587225Y-108736356D01*
X99591079Y-108677286D01*
X99595542Y-108638718D01*
X99600317Y-108624914D01*
X99618941Y-108629282D01*
G37*
X104230714Y-108915200D02*
X104230701Y-108930935D01*
X104229914Y-109001119D01*
X104227210Y-109050022D01*
X104221606Y-109084178D01*
X104212119Y-109110124D01*
X104197768Y-109134397D01*
X104194237Y-109139433D01*
X104156878Y-109179143D01*
X104114311Y-109209092D01*
X104092452Y-109218810D01*
X104013908Y-109235020D01*
X103936231Y-109224535D01*
X103864645Y-109188707D01*
X103804374Y-109128887D01*
X103799286Y-109120873D01*
X103782730Y-109074342D01*
X103771573Y-109009552D01*
X103766160Y-108934727D01*
X103766768Y-108865513D01*
X103913248Y-108865513D01*
X103914402Y-108961399D01*
X103914866Y-108967569D01*
X103921629Y-109020478D01*
X103933671Y-109054029D01*
X103954005Y-109077016D01*
X103988097Y-109098548D01*
X104021814Y-109099680D01*
X104056543Y-109074857D01*
X104062584Y-109068325D01*
X104074417Y-109048779D01*
X104081404Y-109020386D01*
X104084727Y-108976430D01*
X104085571Y-108910192D01*
X104084125Y-108848150D01*
X104076907Y-108789042D01*
X104062006Y-108751686D01*
X104037636Y-108732152D01*
X104002008Y-108726514D01*
X103988440Y-108727635D01*
X103950430Y-108748194D01*
X103925312Y-108794299D01*
X103913248Y-108865513D01*
X103766768Y-108865513D01*
X103766833Y-108858096D01*
X103773937Y-108787882D01*
X103787815Y-108732312D01*
X103805649Y-108695301D01*
X103855855Y-108637733D01*
X103923885Y-108601962D01*
X104007158Y-108589665D01*
X104029398Y-108590331D01*
X104094891Y-108603947D01*
X104148687Y-108638249D01*
X104198057Y-108697338D01*
X104200995Y-108701722D01*
X104214287Y-108725299D01*
X104222932Y-108751949D01*
X104227904Y-108788159D01*
X104230174Y-108840413D01*
X104230678Y-108910192D01*
X104230714Y-108915200D01*
G36*
X104230714Y-108915200D02*
G01*
X104230701Y-108930935D01*
X104229914Y-109001119D01*
X104227210Y-109050022D01*
X104221606Y-109084178D01*
X104212119Y-109110124D01*
X104197768Y-109134397D01*
X104194237Y-109139433D01*
X104156878Y-109179143D01*
X104114311Y-109209092D01*
X104092452Y-109218810D01*
X104013908Y-109235020D01*
X103936231Y-109224535D01*
X103864645Y-109188707D01*
X103804374Y-109128887D01*
X103799286Y-109120873D01*
X103782730Y-109074342D01*
X103771573Y-109009552D01*
X103766160Y-108934727D01*
X103766768Y-108865513D01*
X103913248Y-108865513D01*
X103914402Y-108961399D01*
X103914866Y-108967569D01*
X103921629Y-109020478D01*
X103933671Y-109054029D01*
X103954005Y-109077016D01*
X103988097Y-109098548D01*
X104021814Y-109099680D01*
X104056543Y-109074857D01*
X104062584Y-109068325D01*
X104074417Y-109048779D01*
X104081404Y-109020386D01*
X104084727Y-108976430D01*
X104085571Y-108910192D01*
X104084125Y-108848150D01*
X104076907Y-108789042D01*
X104062006Y-108751686D01*
X104037636Y-108732152D01*
X104002008Y-108726514D01*
X103988440Y-108727635D01*
X103950430Y-108748194D01*
X103925312Y-108794299D01*
X103913248Y-108865513D01*
X103766768Y-108865513D01*
X103766833Y-108858096D01*
X103773937Y-108787882D01*
X103787815Y-108732312D01*
X103805649Y-108695301D01*
X103855855Y-108637733D01*
X103923885Y-108601962D01*
X104007158Y-108589665D01*
X104029398Y-108590331D01*
X104094891Y-108603947D01*
X104148687Y-108638249D01*
X104198057Y-108697338D01*
X104200995Y-108701722D01*
X104214287Y-108725299D01*
X104222932Y-108751949D01*
X104227904Y-108788159D01*
X104230174Y-108840413D01*
X104230678Y-108910192D01*
X104230714Y-108915200D01*
G37*
X98105590Y-108932622D02*
X98105307Y-108971305D01*
X98101762Y-109047521D01*
X98092483Y-109103294D01*
X98075375Y-109144613D01*
X98048344Y-109177467D01*
X98009292Y-109207846D01*
X97984445Y-109221660D01*
X97944615Y-109230965D01*
X97888665Y-109230230D01*
X97857385Y-109227283D01*
X97819653Y-109218283D01*
X97789494Y-109198720D01*
X97754408Y-109162267D01*
X97749720Y-109156943D01*
X97718177Y-109115969D01*
X97703128Y-109080283D01*
X97699286Y-109037966D01*
X97699286Y-108975779D01*
X97742742Y-108992182D01*
X97774424Y-109011356D01*
X97801962Y-109056347D01*
X97807711Y-109070752D01*
X97839855Y-109111546D01*
X97883611Y-109132081D01*
X97931254Y-109130235D01*
X97975057Y-109103886D01*
X97990111Y-109087455D01*
X98003763Y-109062667D01*
X97999493Y-109040144D01*
X97974916Y-109016964D01*
X97927651Y-108990202D01*
X97855314Y-108956934D01*
X97706543Y-108891816D01*
X97702595Y-108827308D01*
X97704079Y-108786220D01*
X97801010Y-108786220D01*
X97808368Y-108811657D01*
X97841848Y-108838814D01*
X97902614Y-108869714D01*
X97912669Y-108874190D01*
X97960751Y-108895017D01*
X97996726Y-108909665D01*
X98013444Y-108915200D01*
X98015977Y-108911126D01*
X98016993Y-108886247D01*
X98013369Y-108846257D01*
X98004242Y-108807152D01*
X97975773Y-108757884D01*
X97934678Y-108730122D01*
X97885590Y-108726364D01*
X97833144Y-108749109D01*
X97818609Y-108760481D01*
X97801010Y-108786220D01*
X97704079Y-108786220D01*
X97704338Y-108779064D01*
X97726281Y-108718096D01*
X97753979Y-108684497D01*
X97811405Y-108646966D01*
X97879527Y-108628006D01*
X97949947Y-108629507D01*
X98014267Y-108653355D01*
X98028426Y-108662513D01*
X98060904Y-108690849D01*
X98083116Y-108726695D01*
X98096804Y-108775384D01*
X98103715Y-108842249D01*
X98104628Y-108886247D01*
X98105590Y-108932622D01*
G36*
X98105590Y-108932622D02*
G01*
X98105307Y-108971305D01*
X98101762Y-109047521D01*
X98092483Y-109103294D01*
X98075375Y-109144613D01*
X98048344Y-109177467D01*
X98009292Y-109207846D01*
X97984445Y-109221660D01*
X97944615Y-109230965D01*
X97888665Y-109230230D01*
X97857385Y-109227283D01*
X97819653Y-109218283D01*
X97789494Y-109198720D01*
X97754408Y-109162267D01*
X97749720Y-109156943D01*
X97718177Y-109115969D01*
X97703128Y-109080283D01*
X97699286Y-109037966D01*
X97699286Y-108975779D01*
X97742742Y-108992182D01*
X97774424Y-109011356D01*
X97801962Y-109056347D01*
X97807711Y-109070752D01*
X97839855Y-109111546D01*
X97883611Y-109132081D01*
X97931254Y-109130235D01*
X97975057Y-109103886D01*
X97990111Y-109087455D01*
X98003763Y-109062667D01*
X97999493Y-109040144D01*
X97974916Y-109016964D01*
X97927651Y-108990202D01*
X97855314Y-108956934D01*
X97706543Y-108891816D01*
X97702595Y-108827308D01*
X97704079Y-108786220D01*
X97801010Y-108786220D01*
X97808368Y-108811657D01*
X97841848Y-108838814D01*
X97902614Y-108869714D01*
X97912669Y-108874190D01*
X97960751Y-108895017D01*
X97996726Y-108909665D01*
X98013444Y-108915200D01*
X98015977Y-108911126D01*
X98016993Y-108886247D01*
X98013369Y-108846257D01*
X98004242Y-108807152D01*
X97975773Y-108757884D01*
X97934678Y-108730122D01*
X97885590Y-108726364D01*
X97833144Y-108749109D01*
X97818609Y-108760481D01*
X97801010Y-108786220D01*
X97704079Y-108786220D01*
X97704338Y-108779064D01*
X97726281Y-108718096D01*
X97753979Y-108684497D01*
X97811405Y-108646966D01*
X97879527Y-108628006D01*
X97949947Y-108629507D01*
X98014267Y-108653355D01*
X98028426Y-108662513D01*
X98060904Y-108690849D01*
X98083116Y-108726695D01*
X98096804Y-108775384D01*
X98103715Y-108842249D01*
X98104628Y-108886247D01*
X98105590Y-108932622D01*
G37*
X100195698Y-108929714D02*
X100194537Y-108986313D01*
X100186345Y-109063462D01*
X100168519Y-109121276D01*
X100138975Y-109165422D01*
X100095625Y-109201568D01*
X100054332Y-109222463D01*
X99984987Y-109234090D01*
X99915736Y-109221377D01*
X99853145Y-109185945D01*
X99803779Y-109129418D01*
X99797818Y-109118995D01*
X99789945Y-109100733D01*
X99784106Y-109077429D01*
X99779999Y-109045085D01*
X99777325Y-108999704D01*
X99775781Y-108937287D01*
X99775734Y-108931748D01*
X99876429Y-108931748D01*
X99876772Y-108984577D01*
X99878942Y-109032362D01*
X99884307Y-109063209D01*
X99894217Y-109083935D01*
X99910021Y-109101356D01*
X99913724Y-109104705D01*
X99961299Y-109129419D01*
X100011635Y-109126890D01*
X100058517Y-109097288D01*
X100072477Y-109081953D01*
X100084160Y-109061622D01*
X100090686Y-109033514D01*
X100093524Y-108990550D01*
X100094143Y-108925647D01*
X100093837Y-108876122D01*
X100091722Y-108827782D01*
X100086390Y-108796587D01*
X100076460Y-108775647D01*
X100060550Y-108758073D01*
X100051204Y-108750159D01*
X100002776Y-108728843D01*
X99952040Y-108732198D01*
X99907987Y-108760107D01*
X99898504Y-108771173D01*
X99886939Y-108792009D01*
X99880252Y-108821106D01*
X99877173Y-108865381D01*
X99876429Y-108931748D01*
X99775734Y-108931748D01*
X99775067Y-108853837D01*
X99774883Y-108745358D01*
X99774829Y-108408601D01*
X99822000Y-108428362D01*
X99834472Y-108433770D01*
X99854324Y-108445985D01*
X99865687Y-108464482D01*
X99871933Y-108496829D01*
X99876429Y-108550593D01*
X99880535Y-108598866D01*
X99885963Y-108630557D01*
X99893739Y-108642383D01*
X99905457Y-108639212D01*
X99935318Y-108628067D01*
X99988684Y-108625304D01*
X100046093Y-108635625D01*
X100095625Y-108657861D01*
X100122876Y-108678443D01*
X100157865Y-108718600D01*
X100180274Y-108770086D01*
X100192190Y-108838568D01*
X100195542Y-108925647D01*
X100195698Y-108929714D01*
G36*
X100195698Y-108929714D02*
G01*
X100194537Y-108986313D01*
X100186345Y-109063462D01*
X100168519Y-109121276D01*
X100138975Y-109165422D01*
X100095625Y-109201568D01*
X100054332Y-109222463D01*
X99984987Y-109234090D01*
X99915736Y-109221377D01*
X99853145Y-109185945D01*
X99803779Y-109129418D01*
X99797818Y-109118995D01*
X99789945Y-109100733D01*
X99784106Y-109077429D01*
X99779999Y-109045085D01*
X99777325Y-108999704D01*
X99775781Y-108937287D01*
X99775734Y-108931748D01*
X99876429Y-108931748D01*
X99876772Y-108984577D01*
X99878942Y-109032362D01*
X99884307Y-109063209D01*
X99894217Y-109083935D01*
X99910021Y-109101356D01*
X99913724Y-109104705D01*
X99961299Y-109129419D01*
X100011635Y-109126890D01*
X100058517Y-109097288D01*
X100072477Y-109081953D01*
X100084160Y-109061622D01*
X100090686Y-109033514D01*
X100093524Y-108990550D01*
X100094143Y-108925647D01*
X100093837Y-108876122D01*
X100091722Y-108827782D01*
X100086390Y-108796587D01*
X100076460Y-108775647D01*
X100060550Y-108758073D01*
X100051204Y-108750159D01*
X100002776Y-108728843D01*
X99952040Y-108732198D01*
X99907987Y-108760107D01*
X99898504Y-108771173D01*
X99886939Y-108792009D01*
X99880252Y-108821106D01*
X99877173Y-108865381D01*
X99876429Y-108931748D01*
X99775734Y-108931748D01*
X99775067Y-108853837D01*
X99774883Y-108745358D01*
X99774829Y-108408601D01*
X99822000Y-108428362D01*
X99834472Y-108433770D01*
X99854324Y-108445985D01*
X99865687Y-108464482D01*
X99871933Y-108496829D01*
X99876429Y-108550593D01*
X99880535Y-108598866D01*
X99885963Y-108630557D01*
X99893739Y-108642383D01*
X99905457Y-108639212D01*
X99935318Y-108628067D01*
X99988684Y-108625304D01*
X100046093Y-108635625D01*
X100095625Y-108657861D01*
X100122876Y-108678443D01*
X100157865Y-108718600D01*
X100180274Y-108770086D01*
X100192190Y-108838568D01*
X100195542Y-108925647D01*
X100195698Y-108929714D01*
G37*
X103127299Y-108874055D02*
X103122684Y-108984078D01*
X103120078Y-109007387D01*
X103100660Y-109090352D01*
X103065573Y-109153448D01*
X103012212Y-109201808D01*
X103009196Y-109203804D01*
X102941362Y-109232185D01*
X102870535Y-109234711D01*
X102802289Y-109213097D01*
X102742196Y-109169062D01*
X102695829Y-109104322D01*
X102695050Y-109102761D01*
X102679643Y-109062558D01*
X102668357Y-109016866D01*
X102662370Y-108973972D01*
X102662861Y-108942160D01*
X102671007Y-108929714D01*
X102678244Y-108930471D01*
X102712851Y-108944235D01*
X102752078Y-108969546D01*
X102785448Y-108998845D01*
X102802483Y-109024572D01*
X102820192Y-109059471D01*
X102856485Y-109091212D01*
X102898630Y-109103886D01*
X102914077Y-109100221D01*
X102944569Y-109081774D01*
X102971128Y-109056166D01*
X102982486Y-109032934D01*
X102982482Y-109032848D01*
X102969596Y-109022179D01*
X102935241Y-109002933D01*
X102884593Y-108977813D01*
X102822829Y-108949524D01*
X102822489Y-108949374D01*
X102755388Y-108919498D01*
X102710411Y-108897973D01*
X102683145Y-108881437D01*
X102669178Y-108866531D01*
X102664097Y-108849893D01*
X102663490Y-108828162D01*
X102667712Y-108787013D01*
X102811000Y-108787013D01*
X102825791Y-108799949D01*
X102862644Y-108819333D01*
X102863725Y-108819881D01*
X102907205Y-108840587D01*
X102946102Y-108857105D01*
X102970778Y-108864093D01*
X102980676Y-108854753D01*
X102982486Y-108822748D01*
X102974966Y-108782915D01*
X102948897Y-108746717D01*
X102911154Y-108727950D01*
X102869077Y-108729845D01*
X102830005Y-108755632D01*
X102814647Y-108773451D01*
X102811000Y-108787013D01*
X102667712Y-108787013D01*
X102668833Y-108776086D01*
X102695251Y-108705335D01*
X102739473Y-108649735D01*
X102796697Y-108611239D01*
X102862120Y-108591797D01*
X102930937Y-108593359D01*
X102998347Y-108617878D01*
X103059544Y-108667302D01*
X103093450Y-108716212D01*
X103117806Y-108786027D01*
X103121767Y-108822748D01*
X103127299Y-108874055D01*
G36*
X103127299Y-108874055D02*
G01*
X103122684Y-108984078D01*
X103120078Y-109007387D01*
X103100660Y-109090352D01*
X103065573Y-109153448D01*
X103012212Y-109201808D01*
X103009196Y-109203804D01*
X102941362Y-109232185D01*
X102870535Y-109234711D01*
X102802289Y-109213097D01*
X102742196Y-109169062D01*
X102695829Y-109104322D01*
X102695050Y-109102761D01*
X102679643Y-109062558D01*
X102668357Y-109016866D01*
X102662370Y-108973972D01*
X102662861Y-108942160D01*
X102671007Y-108929714D01*
X102678244Y-108930471D01*
X102712851Y-108944235D01*
X102752078Y-108969546D01*
X102785448Y-108998845D01*
X102802483Y-109024572D01*
X102820192Y-109059471D01*
X102856485Y-109091212D01*
X102898630Y-109103886D01*
X102914077Y-109100221D01*
X102944569Y-109081774D01*
X102971128Y-109056166D01*
X102982486Y-109032934D01*
X102982482Y-109032848D01*
X102969596Y-109022179D01*
X102935241Y-109002933D01*
X102884593Y-108977813D01*
X102822829Y-108949524D01*
X102822489Y-108949374D01*
X102755388Y-108919498D01*
X102710411Y-108897973D01*
X102683145Y-108881437D01*
X102669178Y-108866531D01*
X102664097Y-108849893D01*
X102663490Y-108828162D01*
X102667712Y-108787013D01*
X102811000Y-108787013D01*
X102825791Y-108799949D01*
X102862644Y-108819333D01*
X102863725Y-108819881D01*
X102907205Y-108840587D01*
X102946102Y-108857105D01*
X102970778Y-108864093D01*
X102980676Y-108854753D01*
X102982486Y-108822748D01*
X102974966Y-108782915D01*
X102948897Y-108746717D01*
X102911154Y-108727950D01*
X102869077Y-108729845D01*
X102830005Y-108755632D01*
X102814647Y-108773451D01*
X102811000Y-108787013D01*
X102667712Y-108787013D01*
X102668833Y-108776086D01*
X102695251Y-108705335D01*
X102739473Y-108649735D01*
X102796697Y-108611239D01*
X102862120Y-108591797D01*
X102930937Y-108593359D01*
X102998347Y-108617878D01*
X103059544Y-108667302D01*
X103093450Y-108716212D01*
X103117806Y-108786027D01*
X103121767Y-108822748D01*
X103127299Y-108874055D01*
G37*
X101054483Y-108640569D02*
X101104376Y-108669661D01*
X101126325Y-108692327D01*
X101168504Y-108760082D01*
X101182714Y-108833950D01*
X101182714Y-108884770D01*
X101135999Y-108865128D01*
X101103692Y-108845308D01*
X101078231Y-108804160D01*
X101075616Y-108795675D01*
X101047478Y-108752451D01*
X101005067Y-108729103D01*
X100956370Y-108728100D01*
X100909373Y-108751914D01*
X100902357Y-108758056D01*
X100878893Y-108784745D01*
X100875019Y-108808014D01*
X100892768Y-108830862D01*
X100934179Y-108856287D01*
X101001286Y-108887288D01*
X101005824Y-108889252D01*
X101080322Y-108923990D01*
X101131203Y-108954763D01*
X101162525Y-108985488D01*
X101178343Y-109020082D01*
X101182714Y-109062462D01*
X101176986Y-109109446D01*
X101148062Y-109169585D01*
X101097178Y-109212788D01*
X101060374Y-109225759D01*
X101008434Y-109232856D01*
X100957999Y-109231340D01*
X100921983Y-109220632D01*
X100918158Y-109217966D01*
X100907998Y-109199337D01*
X100915048Y-109166505D01*
X100927297Y-109140735D01*
X100946939Y-109130006D01*
X100984191Y-109130539D01*
X101035908Y-109127462D01*
X101069701Y-109106212D01*
X101081114Y-109066877D01*
X101081104Y-109065747D01*
X101074187Y-109042913D01*
X101050659Y-109021963D01*
X101004914Y-108997815D01*
X100942704Y-108968741D01*
X100901499Y-108952925D01*
X100877712Y-108953944D01*
X100866597Y-108974837D01*
X100863408Y-109018641D01*
X100863400Y-109088393D01*
X100863044Y-109131452D01*
X100861413Y-109184626D01*
X100858761Y-109221022D01*
X100855422Y-109234514D01*
X100854530Y-109234423D01*
X100835237Y-109227110D01*
X100803284Y-109211678D01*
X100759124Y-109188842D01*
X100764371Y-108983078D01*
X100764736Y-108969432D01*
X100768904Y-108873651D01*
X100776268Y-108801462D01*
X100788330Y-108748058D01*
X100806593Y-108708633D01*
X100832560Y-108678380D01*
X100867733Y-108652493D01*
X100868384Y-108652087D01*
X100925256Y-108630968D01*
X100991033Y-108627400D01*
X101054483Y-108640569D01*
G36*
X101054483Y-108640569D02*
G01*
X101104376Y-108669661D01*
X101126325Y-108692327D01*
X101168504Y-108760082D01*
X101182714Y-108833950D01*
X101182714Y-108884770D01*
X101135999Y-108865128D01*
X101103692Y-108845308D01*
X101078231Y-108804160D01*
X101075616Y-108795675D01*
X101047478Y-108752451D01*
X101005067Y-108729103D01*
X100956370Y-108728100D01*
X100909373Y-108751914D01*
X100902357Y-108758056D01*
X100878893Y-108784745D01*
X100875019Y-108808014D01*
X100892768Y-108830862D01*
X100934179Y-108856287D01*
X101001286Y-108887288D01*
X101005824Y-108889252D01*
X101080322Y-108923990D01*
X101131203Y-108954763D01*
X101162525Y-108985488D01*
X101178343Y-109020082D01*
X101182714Y-109062462D01*
X101176986Y-109109446D01*
X101148062Y-109169585D01*
X101097178Y-109212788D01*
X101060374Y-109225759D01*
X101008434Y-109232856D01*
X100957999Y-109231340D01*
X100921983Y-109220632D01*
X100918158Y-109217966D01*
X100907998Y-109199337D01*
X100915048Y-109166505D01*
X100927297Y-109140735D01*
X100946939Y-109130006D01*
X100984191Y-109130539D01*
X101035908Y-109127462D01*
X101069701Y-109106212D01*
X101081114Y-109066877D01*
X101081104Y-109065747D01*
X101074187Y-109042913D01*
X101050659Y-109021963D01*
X101004914Y-108997815D01*
X100942704Y-108968741D01*
X100901499Y-108952925D01*
X100877712Y-108953944D01*
X100866597Y-108974837D01*
X100863408Y-109018641D01*
X100863400Y-109088393D01*
X100863044Y-109131452D01*
X100861413Y-109184626D01*
X100858761Y-109221022D01*
X100855422Y-109234514D01*
X100854530Y-109234423D01*
X100835237Y-109227110D01*
X100803284Y-109211678D01*
X100759124Y-109188842D01*
X100764371Y-108983078D01*
X100764736Y-108969432D01*
X100768904Y-108873651D01*
X100776268Y-108801462D01*
X100788330Y-108748058D01*
X100806593Y-108708633D01*
X100832560Y-108678380D01*
X100867733Y-108652493D01*
X100868384Y-108652087D01*
X100925256Y-108630968D01*
X100991033Y-108627400D01*
X101054483Y-108640569D01*
G37*
X103674815Y-108981524D02*
X103676252Y-109093000D01*
X103676651Y-109125339D01*
X103677929Y-109233455D01*
X103678185Y-109316186D01*
X103676634Y-109376426D01*
X103672490Y-109417073D01*
X103664964Y-109441023D01*
X103653271Y-109451171D01*
X103636624Y-109450414D01*
X103614236Y-109441648D01*
X103585321Y-109427769D01*
X103579142Y-109424808D01*
X103553413Y-109410311D01*
X103539976Y-109393065D01*
X103534834Y-109364308D01*
X103533990Y-109315283D01*
X103533952Y-109227257D01*
X103443276Y-109227257D01*
X103387498Y-109224815D01*
X103343640Y-109214908D01*
X103307218Y-109194886D01*
X103304503Y-109192929D01*
X103267546Y-109159869D01*
X103241826Y-109119931D01*
X103225606Y-109067657D01*
X103217148Y-108997588D01*
X103215083Y-108918430D01*
X103359857Y-108918430D01*
X103359882Y-108931697D01*
X103361261Y-108991584D01*
X103365687Y-109030732D01*
X103374461Y-109056153D01*
X103388886Y-109074857D01*
X103389784Y-109075750D01*
X103425237Y-109099952D01*
X103459596Y-109097567D01*
X103498403Y-109068260D01*
X103507895Y-109058244D01*
X103521876Y-109037708D01*
X103529760Y-109010997D01*
X103533245Y-108970499D01*
X103534029Y-108908603D01*
X103533350Y-108871130D01*
X103525983Y-108802980D01*
X103509168Y-108758330D01*
X103481234Y-108733926D01*
X103440509Y-108726514D01*
X103423350Y-108728094D01*
X103393660Y-108743766D01*
X103374031Y-108778691D01*
X103363188Y-108835901D01*
X103359857Y-108918430D01*
X103215083Y-108918430D01*
X103214714Y-108904267D01*
X103215253Y-108836169D01*
X103217707Y-108784587D01*
X103223158Y-108748816D01*
X103232686Y-108722015D01*
X103247371Y-108697338D01*
X103260852Y-108678480D01*
X103309799Y-108627568D01*
X103365256Y-108599918D01*
X103434928Y-108591165D01*
X103514664Y-108599890D01*
X103583595Y-108631185D01*
X103638113Y-108686381D01*
X103642223Y-108692224D01*
X103651808Y-108707753D01*
X103659151Y-108725498D01*
X103664612Y-108749290D01*
X103668550Y-108782958D01*
X103671323Y-108830333D01*
X103673292Y-108895245D01*
X103673528Y-108908603D01*
X103674815Y-108981524D01*
G36*
X103674815Y-108981524D02*
G01*
X103676252Y-109093000D01*
X103676651Y-109125339D01*
X103677929Y-109233455D01*
X103678185Y-109316186D01*
X103676634Y-109376426D01*
X103672490Y-109417073D01*
X103664964Y-109441023D01*
X103653271Y-109451171D01*
X103636624Y-109450414D01*
X103614236Y-109441648D01*
X103585321Y-109427769D01*
X103579142Y-109424808D01*
X103553413Y-109410311D01*
X103539976Y-109393065D01*
X103534834Y-109364308D01*
X103533990Y-109315283D01*
X103533952Y-109227257D01*
X103443276Y-109227257D01*
X103387498Y-109224815D01*
X103343640Y-109214908D01*
X103307218Y-109194886D01*
X103304503Y-109192929D01*
X103267546Y-109159869D01*
X103241826Y-109119931D01*
X103225606Y-109067657D01*
X103217148Y-108997588D01*
X103215083Y-108918430D01*
X103359857Y-108918430D01*
X103359882Y-108931697D01*
X103361261Y-108991584D01*
X103365687Y-109030732D01*
X103374461Y-109056153D01*
X103388886Y-109074857D01*
X103389784Y-109075750D01*
X103425237Y-109099952D01*
X103459596Y-109097567D01*
X103498403Y-109068260D01*
X103507895Y-109058244D01*
X103521876Y-109037708D01*
X103529760Y-109010997D01*
X103533245Y-108970499D01*
X103534029Y-108908603D01*
X103533350Y-108871130D01*
X103525983Y-108802980D01*
X103509168Y-108758330D01*
X103481234Y-108733926D01*
X103440509Y-108726514D01*
X103423350Y-108728094D01*
X103393660Y-108743766D01*
X103374031Y-108778691D01*
X103363188Y-108835901D01*
X103359857Y-108918430D01*
X103215083Y-108918430D01*
X103214714Y-108904267D01*
X103215253Y-108836169D01*
X103217707Y-108784587D01*
X103223158Y-108748816D01*
X103232686Y-108722015D01*
X103247371Y-108697338D01*
X103260852Y-108678480D01*
X103309799Y-108627568D01*
X103365256Y-108599918D01*
X103434928Y-108591165D01*
X103514664Y-108599890D01*
X103583595Y-108631185D01*
X103638113Y-108686381D01*
X103642223Y-108692224D01*
X103651808Y-108707753D01*
X103659151Y-108725498D01*
X103664612Y-108749290D01*
X103668550Y-108782958D01*
X103671323Y-108830333D01*
X103673292Y-108895245D01*
X103673528Y-108908603D01*
X103674815Y-108981524D01*
G37*
X98932495Y-108626220D02*
X98963599Y-108634121D01*
X98992559Y-108653817D01*
X99029831Y-108690484D01*
X99053801Y-108716378D01*
X99078770Y-108749997D01*
X99090031Y-108781506D01*
X99092657Y-108821485D01*
X99092657Y-108886917D01*
X99048035Y-108863842D01*
X99012673Y-108835724D01*
X98988451Y-108797848D01*
X98984291Y-108787551D01*
X98952594Y-108747637D01*
X98908554Y-108727624D01*
X98860531Y-108729572D01*
X98816886Y-108755543D01*
X98798420Y-108776635D01*
X98787663Y-108803619D01*
X98799178Y-108827634D01*
X98834981Y-108851791D01*
X98897090Y-108879199D01*
X98906515Y-108882985D01*
X98963058Y-108907759D01*
X99011580Y-108932189D01*
X99042451Y-108951486D01*
X99073371Y-108985953D01*
X99093927Y-109040957D01*
X99091744Y-109099983D01*
X99067424Y-109155845D01*
X99021568Y-109201355D01*
X98984438Y-109220727D01*
X98912711Y-109234292D01*
X98872852Y-109232462D01*
X98835953Y-109222568D01*
X98821797Y-109201806D01*
X98827091Y-109167613D01*
X98828631Y-109163092D01*
X98840842Y-109139116D01*
X98861174Y-109130042D01*
X98899908Y-109130649D01*
X98927257Y-109131474D01*
X98959257Y-109124392D01*
X98981182Y-109103219D01*
X98993670Y-109077152D01*
X98995062Y-109049845D01*
X98994998Y-109049685D01*
X98978807Y-109034930D01*
X98944155Y-109013457D01*
X98899321Y-108989458D01*
X98852582Y-108967125D01*
X98812217Y-108950652D01*
X98786504Y-108944229D01*
X98782679Y-108950518D01*
X98777864Y-108980115D01*
X98774566Y-109028447D01*
X98773343Y-109089372D01*
X98773058Y-109131542D01*
X98771718Y-109184653D01*
X98769528Y-109221025D01*
X98766769Y-109234514D01*
X98752344Y-109229981D01*
X98723226Y-109217670D01*
X98686257Y-109200826D01*
X98686257Y-108984721D01*
X98686493Y-108929327D01*
X98688729Y-108845207D01*
X98694423Y-108782800D01*
X98704903Y-108737358D01*
X98721497Y-108704133D01*
X98745531Y-108678378D01*
X98778333Y-108655344D01*
X98820124Y-108636335D01*
X98897287Y-108624914D01*
X98932495Y-108626220D01*
G36*
X98932495Y-108626220D02*
G01*
X98963599Y-108634121D01*
X98992559Y-108653817D01*
X99029831Y-108690484D01*
X99053801Y-108716378D01*
X99078770Y-108749997D01*
X99090031Y-108781506D01*
X99092657Y-108821485D01*
X99092657Y-108886917D01*
X99048035Y-108863842D01*
X99012673Y-108835724D01*
X98988451Y-108797848D01*
X98984291Y-108787551D01*
X98952594Y-108747637D01*
X98908554Y-108727624D01*
X98860531Y-108729572D01*
X98816886Y-108755543D01*
X98798420Y-108776635D01*
X98787663Y-108803619D01*
X98799178Y-108827634D01*
X98834981Y-108851791D01*
X98897090Y-108879199D01*
X98906515Y-108882985D01*
X98963058Y-108907759D01*
X99011580Y-108932189D01*
X99042451Y-108951486D01*
X99073371Y-108985953D01*
X99093927Y-109040957D01*
X99091744Y-109099983D01*
X99067424Y-109155845D01*
X99021568Y-109201355D01*
X98984438Y-109220727D01*
X98912711Y-109234292D01*
X98872852Y-109232462D01*
X98835953Y-109222568D01*
X98821797Y-109201806D01*
X98827091Y-109167613D01*
X98828631Y-109163092D01*
X98840842Y-109139116D01*
X98861174Y-109130042D01*
X98899908Y-109130649D01*
X98927257Y-109131474D01*
X98959257Y-109124392D01*
X98981182Y-109103219D01*
X98993670Y-109077152D01*
X98995062Y-109049845D01*
X98994998Y-109049685D01*
X98978807Y-109034930D01*
X98944155Y-109013457D01*
X98899321Y-108989458D01*
X98852582Y-108967125D01*
X98812217Y-108950652D01*
X98786504Y-108944229D01*
X98782679Y-108950518D01*
X98777864Y-108980115D01*
X98774566Y-109028447D01*
X98773343Y-109089372D01*
X98773058Y-109131542D01*
X98771718Y-109184653D01*
X98769528Y-109221025D01*
X98766769Y-109234514D01*
X98752344Y-109229981D01*
X98723226Y-109217670D01*
X98686257Y-109200826D01*
X98686257Y-108984721D01*
X98686493Y-108929327D01*
X98688729Y-108845207D01*
X98694423Y-108782800D01*
X98704903Y-108737358D01*
X98721497Y-108704133D01*
X98745531Y-108678378D01*
X98778333Y-108655344D01*
X98820124Y-108636335D01*
X98897287Y-108624914D01*
X98932495Y-108626220D01*
G37*
X101078933Y-103922371D02*
X101154856Y-103922865D01*
X101209491Y-103924135D01*
X101246500Y-103926547D01*
X101269547Y-103930467D01*
X101282296Y-103936262D01*
X101288411Y-103944299D01*
X101291556Y-103954943D01*
X101291646Y-103955325D01*
X101296814Y-103980347D01*
X101306209Y-104028681D01*
X101318867Y-104095260D01*
X101333825Y-104175014D01*
X101350119Y-104262875D01*
X101351448Y-104270064D01*
X101367691Y-104355340D01*
X101382805Y-104430242D01*
X101395808Y-104490219D01*
X101405715Y-104530717D01*
X101411544Y-104547184D01*
X101411575Y-104547210D01*
X101429943Y-104556320D01*
X101467640Y-104571457D01*
X101516543Y-104589358D01*
X101519297Y-104590330D01*
X101581817Y-104613959D01*
X101654543Y-104643595D01*
X101722294Y-104673062D01*
X101833703Y-104723626D01*
X102080399Y-104555160D01*
X102097775Y-104543311D01*
X102172202Y-104492947D01*
X102238614Y-104448612D01*
X102293039Y-104412916D01*
X102331506Y-104388471D01*
X102350042Y-104377889D01*
X102362743Y-104380315D01*
X102391579Y-104399110D01*
X102436143Y-104436330D01*
X102497670Y-104493020D01*
X102577398Y-104570227D01*
X102584532Y-104577255D01*
X102647796Y-104640222D01*
X102703990Y-104697268D01*
X102749677Y-104744817D01*
X102781414Y-104779297D01*
X102795764Y-104797131D01*
X102795810Y-104797217D01*
X102797633Y-104810795D01*
X102790910Y-104832820D01*
X102773946Y-104866304D01*
X102745044Y-104914261D01*
X102702508Y-104979704D01*
X102644644Y-105065645D01*
X102634783Y-105080151D01*
X102584913Y-105153635D01*
X102540905Y-105218687D01*
X102505380Y-105271417D01*
X102480959Y-105307936D01*
X102470264Y-105324356D01*
X102469458Y-105327834D01*
X102474518Y-105353785D01*
X102489677Y-105396159D01*
X102512463Y-105447728D01*
X102543429Y-105515170D01*
X102578004Y-105595195D01*
X102607366Y-105667629D01*
X102614645Y-105686377D01*
X102633710Y-105734246D01*
X102647715Y-105767596D01*
X102654041Y-105780114D01*
X102661025Y-105781050D01*
X102692413Y-105786461D01*
X102743787Y-105795806D01*
X102809802Y-105808069D01*
X102885113Y-105822232D01*
X102964375Y-105837280D01*
X103042243Y-105852195D01*
X103113370Y-105865961D01*
X103172412Y-105877562D01*
X103214022Y-105885980D01*
X103232857Y-105890199D01*
X103235980Y-105891389D01*
X103243591Y-105897805D01*
X103249254Y-105911465D01*
X103253251Y-105935999D01*
X103255866Y-105975038D01*
X103257384Y-106032213D01*
X103258086Y-106111154D01*
X103258257Y-106215492D01*
X103258257Y-106532799D01*
X103182057Y-106547839D01*
X103172840Y-106549642D01*
X103123891Y-106558980D01*
X103056205Y-106571669D01*
X102977478Y-106586273D01*
X102895400Y-106601355D01*
X102863078Y-106607422D01*
X102790855Y-106622181D01*
X102730666Y-106636137D01*
X102688040Y-106647952D01*
X102668510Y-106656287D01*
X102659660Y-106669905D01*
X102643548Y-106705938D01*
X102627065Y-106752572D01*
X102621263Y-106770034D01*
X102599906Y-106827358D01*
X102572359Y-106895201D01*
X102543107Y-106962355D01*
X102527463Y-106997430D01*
X102505174Y-107049822D01*
X102489857Y-107089058D01*
X102484162Y-107108563D01*
X102484478Y-107110036D01*
X102495281Y-107130729D01*
X102519638Y-107170665D01*
X102555081Y-107225972D01*
X102599136Y-107292781D01*
X102649332Y-107367220D01*
X102814501Y-107609623D01*
X102597503Y-107826983D01*
X102576516Y-107847899D01*
X102512342Y-107910505D01*
X102454990Y-107964495D01*
X102407820Y-108006826D01*
X102374192Y-108034457D01*
X102357467Y-108044343D01*
X102339303Y-108036821D01*
X102301265Y-108015227D01*
X102247726Y-107982151D01*
X102182884Y-107940191D01*
X102110940Y-107891943D01*
X102040275Y-107844291D01*
X101976526Y-107802328D01*
X101924513Y-107769165D01*
X101888279Y-107747378D01*
X101871867Y-107739543D01*
X101870905Y-107739614D01*
X101849103Y-107747338D01*
X101810440Y-107765323D01*
X101762612Y-107790013D01*
X101762110Y-107790284D01*
X101698587Y-107822099D01*
X101655060Y-107837642D01*
X101628052Y-107837685D01*
X101614090Y-107823000D01*
X101608180Y-107808544D01*
X101592229Y-107769831D01*
X101567660Y-107710316D01*
X101535779Y-107633165D01*
X101497893Y-107541541D01*
X101455310Y-107438607D01*
X101409337Y-107327526D01*
X101367667Y-107226472D01*
X101325268Y-107122780D01*
X101287756Y-107030119D01*
X101256388Y-106951642D01*
X101232425Y-106890500D01*
X101217123Y-106849843D01*
X101211743Y-106832825D01*
X101222018Y-106817219D01*
X101250563Y-106791162D01*
X101290971Y-106760887D01*
X101387979Y-106681684D01*
X101474793Y-106580475D01*
X101538322Y-106469116D01*
X101578177Y-106350893D01*
X101593965Y-106229095D01*
X101585296Y-106107010D01*
X101551778Y-105987925D01*
X101493021Y-105875129D01*
X101408632Y-105771911D01*
X101364631Y-105731713D01*
X101259211Y-105660638D01*
X101146410Y-105614301D01*
X101029525Y-105591599D01*
X100911853Y-105591428D01*
X100796690Y-105612687D01*
X100687335Y-105654270D01*
X100587083Y-105715076D01*
X100499233Y-105794001D01*
X100427080Y-105889941D01*
X100373922Y-106001795D01*
X100343057Y-106128457D01*
X100337392Y-106189507D01*
X100345185Y-106321776D01*
X100380284Y-106447266D01*
X100441649Y-106563759D01*
X100528243Y-106669039D01*
X100639029Y-106760887D01*
X100677931Y-106789930D01*
X100707104Y-106816272D01*
X100718257Y-106832800D01*
X100713810Y-106847209D01*
X100699378Y-106885815D01*
X100676173Y-106945201D01*
X100645452Y-107022215D01*
X100608474Y-107113703D01*
X100566496Y-107216516D01*
X100520778Y-107327502D01*
X100479178Y-107428072D01*
X100436222Y-107531947D01*
X100397829Y-107624819D01*
X100365305Y-107703525D01*
X100339958Y-107764899D01*
X100323095Y-107805779D01*
X100316025Y-107823000D01*
X100315943Y-107823204D01*
X100301798Y-107837745D01*
X100274659Y-107837579D01*
X100231023Y-107821927D01*
X100167388Y-107790013D01*
X100162379Y-107787326D01*
X100115125Y-107763150D01*
X100077811Y-107746037D01*
X100058133Y-107739543D01*
X100042005Y-107747218D01*
X100005959Y-107768871D01*
X99954092Y-107801928D01*
X99890445Y-107843810D01*
X99819060Y-107891943D01*
X99748724Y-107939131D01*
X99683670Y-107981267D01*
X99629820Y-108014578D01*
X99591374Y-108036469D01*
X99572534Y-108044343D01*
X99569325Y-108043343D01*
X99546954Y-108027584D01*
X99508733Y-107995033D01*
X99458021Y-107948733D01*
X99398181Y-107891726D01*
X99332571Y-107827058D01*
X99115648Y-107609772D01*
X99284601Y-107361253D01*
X99453553Y-107112733D01*
X99402183Y-107001595D01*
X99402031Y-107001266D01*
X99371183Y-106930418D01*
X99339661Y-106851523D01*
X99314266Y-106781600D01*
X99310423Y-106770322D01*
X99291047Y-106717967D01*
X99273574Y-106677283D01*
X99261388Y-106656287D01*
X99256426Y-106653322D01*
X99226634Y-106643375D01*
X99176047Y-106630505D01*
X99110194Y-106616053D01*
X99034600Y-106601355D01*
X99011957Y-106597210D01*
X98930038Y-106582116D01*
X98853600Y-106567899D01*
X98790337Y-106555995D01*
X98747943Y-106547839D01*
X98671743Y-106532799D01*
X98671743Y-106215492D01*
X98671760Y-106176476D01*
X98672082Y-106081292D01*
X98673033Y-106010255D01*
X98674896Y-105959734D01*
X98677955Y-105926098D01*
X98682494Y-105905718D01*
X98688795Y-105894962D01*
X98697143Y-105890199D01*
X98705224Y-105888270D01*
X98738172Y-105881445D01*
X98790736Y-105871022D01*
X98857569Y-105858018D01*
X98933328Y-105843449D01*
X99012665Y-105828333D01*
X99090237Y-105813685D01*
X99160698Y-105800523D01*
X99218702Y-105789863D01*
X99258904Y-105782721D01*
X99275959Y-105780114D01*
X99277112Y-105778541D01*
X99286385Y-105758119D01*
X99302432Y-105719045D01*
X99322635Y-105667629D01*
X99350672Y-105598353D01*
X99385186Y-105518290D01*
X99417538Y-105447728D01*
X99424952Y-105431889D01*
X99445755Y-105382293D01*
X99458219Y-105344038D01*
X99459863Y-105324356D01*
X99459015Y-105322962D01*
X99445548Y-105302420D01*
X99418850Y-105262516D01*
X99381539Y-105207140D01*
X99336234Y-105140177D01*
X99285552Y-105065517D01*
X99228445Y-104980692D01*
X99185607Y-104914800D01*
X99156460Y-104866478D01*
X99139317Y-104832733D01*
X99132495Y-104810572D01*
X99134306Y-104797002D01*
X99134915Y-104795984D01*
X99151297Y-104776210D01*
X99184695Y-104740175D01*
X99231671Y-104691451D01*
X99288786Y-104633612D01*
X99352603Y-104570227D01*
X99418802Y-104505905D01*
X99483648Y-104445447D01*
X99531299Y-104404655D01*
X99562990Y-104382484D01*
X99579958Y-104377889D01*
X99582175Y-104378921D01*
X99605524Y-104392837D01*
X99647912Y-104420030D01*
X99705369Y-104457889D01*
X99773923Y-104503803D01*
X99849601Y-104555160D01*
X100096298Y-104723626D01*
X100207706Y-104673062D01*
X100210943Y-104671597D01*
X100279343Y-104641965D01*
X100351907Y-104612493D01*
X100413457Y-104589358D01*
X100413729Y-104589262D01*
X100462595Y-104571367D01*
X100500212Y-104556253D01*
X100518457Y-104547184D01*
X100518752Y-104546855D01*
X100524946Y-104528282D01*
X100535139Y-104486045D01*
X100548348Y-104424696D01*
X100563590Y-104348789D01*
X100579881Y-104262875D01*
X100580449Y-104259796D01*
X100596713Y-104172128D01*
X100611608Y-104092741D01*
X100624171Y-104026701D01*
X100633438Y-103979079D01*
X100638444Y-103954943D01*
X100638764Y-103953605D01*
X100642060Y-103943273D01*
X100648738Y-103935506D01*
X100662462Y-103929940D01*
X100686895Y-103926207D01*
X100725702Y-103923942D01*
X100782546Y-103922778D01*
X100861090Y-103922348D01*
X100965000Y-103922286D01*
X100978056Y-103922286D01*
X101078933Y-103922371D01*
G36*
X101078933Y-103922371D02*
G01*
X101154856Y-103922865D01*
X101209491Y-103924135D01*
X101246500Y-103926547D01*
X101269547Y-103930467D01*
X101282296Y-103936262D01*
X101288411Y-103944299D01*
X101291556Y-103954943D01*
X101291646Y-103955325D01*
X101296814Y-103980347D01*
X101306209Y-104028681D01*
X101318867Y-104095260D01*
X101333825Y-104175014D01*
X101350119Y-104262875D01*
X101351448Y-104270064D01*
X101367691Y-104355340D01*
X101382805Y-104430242D01*
X101395808Y-104490219D01*
X101405715Y-104530717D01*
X101411544Y-104547184D01*
X101411575Y-104547210D01*
X101429943Y-104556320D01*
X101467640Y-104571457D01*
X101516543Y-104589358D01*
X101519297Y-104590330D01*
X101581817Y-104613959D01*
X101654543Y-104643595D01*
X101722294Y-104673062D01*
X101833703Y-104723626D01*
X102080399Y-104555160D01*
X102097775Y-104543311D01*
X102172202Y-104492947D01*
X102238614Y-104448612D01*
X102293039Y-104412916D01*
X102331506Y-104388471D01*
X102350042Y-104377889D01*
X102362743Y-104380315D01*
X102391579Y-104399110D01*
X102436143Y-104436330D01*
X102497670Y-104493020D01*
X102577398Y-104570227D01*
X102584532Y-104577255D01*
X102647796Y-104640222D01*
X102703990Y-104697268D01*
X102749677Y-104744817D01*
X102781414Y-104779297D01*
X102795764Y-104797131D01*
X102795810Y-104797217D01*
X102797633Y-104810795D01*
X102790910Y-104832820D01*
X102773946Y-104866304D01*
X102745044Y-104914261D01*
X102702508Y-104979704D01*
X102644644Y-105065645D01*
X102634783Y-105080151D01*
X102584913Y-105153635D01*
X102540905Y-105218687D01*
X102505380Y-105271417D01*
X102480959Y-105307936D01*
X102470264Y-105324356D01*
X102469458Y-105327834D01*
X102474518Y-105353785D01*
X102489677Y-105396159D01*
X102512463Y-105447728D01*
X102543429Y-105515170D01*
X102578004Y-105595195D01*
X102607366Y-105667629D01*
X102614645Y-105686377D01*
X102633710Y-105734246D01*
X102647715Y-105767596D01*
X102654041Y-105780114D01*
X102661025Y-105781050D01*
X102692413Y-105786461D01*
X102743787Y-105795806D01*
X102809802Y-105808069D01*
X102885113Y-105822232D01*
X102964375Y-105837280D01*
X103042243Y-105852195D01*
X103113370Y-105865961D01*
X103172412Y-105877562D01*
X103214022Y-105885980D01*
X103232857Y-105890199D01*
X103235980Y-105891389D01*
X103243591Y-105897805D01*
X103249254Y-105911465D01*
X103253251Y-105935999D01*
X103255866Y-105975038D01*
X103257384Y-106032213D01*
X103258086Y-106111154D01*
X103258257Y-106215492D01*
X103258257Y-106532799D01*
X103182057Y-106547839D01*
X103172840Y-106549642D01*
X103123891Y-106558980D01*
X103056205Y-106571669D01*
X102977478Y-106586273D01*
X102895400Y-106601355D01*
X102863078Y-106607422D01*
X102790855Y-106622181D01*
X102730666Y-106636137D01*
X102688040Y-106647952D01*
X102668510Y-106656287D01*
X102659660Y-106669905D01*
X102643548Y-106705938D01*
X102627065Y-106752572D01*
X102621263Y-106770034D01*
X102599906Y-106827358D01*
X102572359Y-106895201D01*
X102543107Y-106962355D01*
X102527463Y-106997430D01*
X102505174Y-107049822D01*
X102489857Y-107089058D01*
X102484162Y-107108563D01*
X102484478Y-107110036D01*
X102495281Y-107130729D01*
X102519638Y-107170665D01*
X102555081Y-107225972D01*
X102599136Y-107292781D01*
X102649332Y-107367220D01*
X102814501Y-107609623D01*
X102597503Y-107826983D01*
X102576516Y-107847899D01*
X102512342Y-107910505D01*
X102454990Y-107964495D01*
X102407820Y-108006826D01*
X102374192Y-108034457D01*
X102357467Y-108044343D01*
X102339303Y-108036821D01*
X102301265Y-108015227D01*
X102247726Y-107982151D01*
X102182884Y-107940191D01*
X102110940Y-107891943D01*
X102040275Y-107844291D01*
X101976526Y-107802328D01*
X101924513Y-107769165D01*
X101888279Y-107747378D01*
X101871867Y-107739543D01*
X101870905Y-107739614D01*
X101849103Y-107747338D01*
X101810440Y-107765323D01*
X101762612Y-107790013D01*
X101762110Y-107790284D01*
X101698587Y-107822099D01*
X101655060Y-107837642D01*
X101628052Y-107837685D01*
X101614090Y-107823000D01*
X101608180Y-107808544D01*
X101592229Y-107769831D01*
X101567660Y-107710316D01*
X101535779Y-107633165D01*
X101497893Y-107541541D01*
X101455310Y-107438607D01*
X101409337Y-107327526D01*
X101367667Y-107226472D01*
X101325268Y-107122780D01*
X101287756Y-107030119D01*
X101256388Y-106951642D01*
X101232425Y-106890500D01*
X101217123Y-106849843D01*
X101211743Y-106832825D01*
X101222018Y-106817219D01*
X101250563Y-106791162D01*
X101290971Y-106760887D01*
X101387979Y-106681684D01*
X101474793Y-106580475D01*
X101538322Y-106469116D01*
X101578177Y-106350893D01*
X101593965Y-106229095D01*
X101585296Y-106107010D01*
X101551778Y-105987925D01*
X101493021Y-105875129D01*
X101408632Y-105771911D01*
X101364631Y-105731713D01*
X101259211Y-105660638D01*
X101146410Y-105614301D01*
X101029525Y-105591599D01*
X100911853Y-105591428D01*
X100796690Y-105612687D01*
X100687335Y-105654270D01*
X100587083Y-105715076D01*
X100499233Y-105794001D01*
X100427080Y-105889941D01*
X100373922Y-106001795D01*
X100343057Y-106128457D01*
X100337392Y-106189507D01*
X100345185Y-106321776D01*
X100380284Y-106447266D01*
X100441649Y-106563759D01*
X100528243Y-106669039D01*
X100639029Y-106760887D01*
X100677931Y-106789930D01*
X100707104Y-106816272D01*
X100718257Y-106832800D01*
X100713810Y-106847209D01*
X100699378Y-106885815D01*
X100676173Y-106945201D01*
X100645452Y-107022215D01*
X100608474Y-107113703D01*
X100566496Y-107216516D01*
X100520778Y-107327502D01*
X100479178Y-107428072D01*
X100436222Y-107531947D01*
X100397829Y-107624819D01*
X100365305Y-107703525D01*
X100339958Y-107764899D01*
X100323095Y-107805779D01*
X100316025Y-107823000D01*
X100315943Y-107823204D01*
X100301798Y-107837745D01*
X100274659Y-107837579D01*
X100231023Y-107821927D01*
X100167388Y-107790013D01*
X100162379Y-107787326D01*
X100115125Y-107763150D01*
X100077811Y-107746037D01*
X100058133Y-107739543D01*
X100042005Y-107747218D01*
X100005959Y-107768871D01*
X99954092Y-107801928D01*
X99890445Y-107843810D01*
X99819060Y-107891943D01*
X99748724Y-107939131D01*
X99683670Y-107981267D01*
X99629820Y-108014578D01*
X99591374Y-108036469D01*
X99572534Y-108044343D01*
X99569325Y-108043343D01*
X99546954Y-108027584D01*
X99508733Y-107995033D01*
X99458021Y-107948733D01*
X99398181Y-107891726D01*
X99332571Y-107827058D01*
X99115648Y-107609772D01*
X99284601Y-107361253D01*
X99453553Y-107112733D01*
X99402183Y-107001595D01*
X99402031Y-107001266D01*
X99371183Y-106930418D01*
X99339661Y-106851523D01*
X99314266Y-106781600D01*
X99310423Y-106770322D01*
X99291047Y-106717967D01*
X99273574Y-106677283D01*
X99261388Y-106656287D01*
X99256426Y-106653322D01*
X99226634Y-106643375D01*
X99176047Y-106630505D01*
X99110194Y-106616053D01*
X99034600Y-106601355D01*
X99011957Y-106597210D01*
X98930038Y-106582116D01*
X98853600Y-106567899D01*
X98790337Y-106555995D01*
X98747943Y-106547839D01*
X98671743Y-106532799D01*
X98671743Y-106215492D01*
X98671760Y-106176476D01*
X98672082Y-106081292D01*
X98673033Y-106010255D01*
X98674896Y-105959734D01*
X98677955Y-105926098D01*
X98682494Y-105905718D01*
X98688795Y-105894962D01*
X98697143Y-105890199D01*
X98705224Y-105888270D01*
X98738172Y-105881445D01*
X98790736Y-105871022D01*
X98857569Y-105858018D01*
X98933328Y-105843449D01*
X99012665Y-105828333D01*
X99090237Y-105813685D01*
X99160698Y-105800523D01*
X99218702Y-105789863D01*
X99258904Y-105782721D01*
X99275959Y-105780114D01*
X99277112Y-105778541D01*
X99286385Y-105758119D01*
X99302432Y-105719045D01*
X99322635Y-105667629D01*
X99350672Y-105598353D01*
X99385186Y-105518290D01*
X99417538Y-105447728D01*
X99424952Y-105431889D01*
X99445755Y-105382293D01*
X99458219Y-105344038D01*
X99459863Y-105324356D01*
X99459015Y-105322962D01*
X99445548Y-105302420D01*
X99418850Y-105262516D01*
X99381539Y-105207140D01*
X99336234Y-105140177D01*
X99285552Y-105065517D01*
X99228445Y-104980692D01*
X99185607Y-104914800D01*
X99156460Y-104866478D01*
X99139317Y-104832733D01*
X99132495Y-104810572D01*
X99134306Y-104797002D01*
X99134915Y-104795984D01*
X99151297Y-104776210D01*
X99184695Y-104740175D01*
X99231671Y-104691451D01*
X99288786Y-104633612D01*
X99352603Y-104570227D01*
X99418802Y-104505905D01*
X99483648Y-104445447D01*
X99531299Y-104404655D01*
X99562990Y-104382484D01*
X99579958Y-104377889D01*
X99582175Y-104378921D01*
X99605524Y-104392837D01*
X99647912Y-104420030D01*
X99705369Y-104457889D01*
X99773923Y-104503803D01*
X99849601Y-104555160D01*
X100096298Y-104723626D01*
X100207706Y-104673062D01*
X100210943Y-104671597D01*
X100279343Y-104641965D01*
X100351907Y-104612493D01*
X100413457Y-104589358D01*
X100413729Y-104589262D01*
X100462595Y-104571367D01*
X100500212Y-104556253D01*
X100518457Y-104547184D01*
X100518752Y-104546855D01*
X100524946Y-104528282D01*
X100535139Y-104486045D01*
X100548348Y-104424696D01*
X100563590Y-104348789D01*
X100579881Y-104262875D01*
X100580449Y-104259796D01*
X100596713Y-104172128D01*
X100611608Y-104092741D01*
X100624171Y-104026701D01*
X100633438Y-103979079D01*
X100638444Y-103954943D01*
X100638764Y-103953605D01*
X100642060Y-103943273D01*
X100648738Y-103935506D01*
X100662462Y-103929940D01*
X100686895Y-103926207D01*
X100725702Y-103923942D01*
X100782546Y-103922778D01*
X100861090Y-103922348D01*
X100965000Y-103922286D01*
X100978056Y-103922286D01*
X101078933Y-103922371D01*
G37*
%TD*%
M02*
