M48
; DRILL file {KiCad 7.0.7} date 2025 March 05, Wednesday 16:43:28
; FORMAT={-:-/ absolute / inch / decimal}
; #@! TF.CreationDate,2025-03-05T16:43:28-06:00
; #@! TF.GenerationSoftware,Kicad,Pcbnew,7.0.7
; #@! TF.FileFunction,MixedPlating,1,2
FMAT,2
INCH
; #@! TA.AperFunction,Plated,PTH,ViaDrill
T1C0.0157
; #@! TA.AperFunction,Plated,PTH,ComponentDrill
T2C0.0197
; #@! TA.AperFunction,Plated,PTH,ComponentDrill
T3C0.0276
; #@! TA.AperFunction,Plated,PTH,ComponentDrill
T4C0.0315
; #@! TA.AperFunction,Plated,PTH,ComponentDrill
T5C0.0394
; #@! TA.AperFunction,Plated,PTH,ComponentDrill
T6C0.1693
%
G90
G05
T1
X4.53Y-2.2628
X4.63Y-2.2628
X4.73Y-2.2628
X4.73Y-3.335
X4.73Y-5.61
X4.75Y-4.96
X4.83Y-2.2628
X4.83Y-5.61
X4.93Y-2.2628
X4.93Y-5.61
X5.03Y-2.2628
X5.03Y-5.6096
X5.175Y-2.8002
X5.175Y-5.0837
X5.43Y-2.262
X5.43Y-5.61
X5.53Y-2.262
X5.53Y-5.6093
X5.625Y-3.425
X5.63Y-2.262
X5.63Y-2.8309
X5.63Y-5.6096
X5.73Y-2.262
X5.73Y-5.6093
X5.825Y-4.26
X5.825Y-5.0587
X5.83Y-2.262
X5.83Y-5.6093
X5.93Y-2.262
X5.93Y-4.06
X5.93Y-5.6093
X5.9353Y-5.0417
X6.03Y-2.262
X6.03Y-5.6093
X6.13Y-2.262
X6.13Y-5.6093
X6.175Y-3.635
X6.23Y-2.262
X6.23Y-5.6093
X6.28Y-2.8559
X6.28Y-3.335
X6.28Y-4.06
X6.33Y-2.262
X6.33Y-5.6093
X6.38Y-2.8309
X6.38Y-4.26
X6.43Y-2.2628
X6.43Y-5.6093
X6.475Y-3.435
X6.48Y-4.16
X6.48Y-5.0587
X6.53Y-2.2628
X6.53Y-5.6093
X6.575Y-2.8059
X6.575Y-4.36
X6.58Y-4.725
X6.58Y-5.0837
X6.63Y-2.2628
X6.63Y-5.6093
X6.685Y-4.8087
X6.73Y-2.2628
X6.73Y-5.6093
X6.785Y-4.8087
X6.83Y-2.2628
X6.83Y-5.6096
X6.886Y-4.8087
X6.93Y-2.2628
X6.93Y-5.6096
X6.986Y-4.8087
X7.03Y-2.262
X7.08Y-4.8837
X7.13Y-2.262
X7.23Y-2.2628
X7.23Y-2.8
X7.3Y-5.7
X7.4Y-2.175
X7.551Y-5.451
X7.5801Y-3.9961
X7.5801Y-4.0961
X7.5801Y-4.1961
X7.5801Y-4.2961
X7.5801Y-4.3961
X7.5801Y-4.4961
X7.5801Y-4.9961
X7.5801Y-5.0961
X7.5801Y-5.1961
X7.5801Y-5.2961
X7.5821Y-3.6961
X7.5821Y-3.7961
X7.5821Y-3.8961
X7.5831Y-2.6951
X7.5835Y-2.7961
X7.5835Y-2.8961
X7.5835Y-2.9961
X7.5835Y-3.0961
X7.5835Y-3.3951
X7.5841Y-3.1961
X7.5841Y-3.2961
X7.5841Y-3.4961
X7.5841Y-3.5961
X7.6608Y-4.875
X7.6638Y-2.45
T2
X5.9262Y-2.6321
X5.9262Y-2.6821
X5.9262Y-2.7321
X5.9762Y-2.6321
X5.9762Y-2.6821
X5.9762Y-2.7321
X6.0262Y-2.6321
X6.0262Y-2.6821
X6.0262Y-2.7321
X6.13Y-5.1657
X6.13Y-5.2157
X6.13Y-5.2657
X6.18Y-5.1657
X6.18Y-5.2157
X6.18Y-5.2657
X6.23Y-5.1657
X6.23Y-5.2157
X6.23Y-5.2657
X7.1179Y-3.7153
X7.1179Y-3.7653
X7.1179Y-3.8153
X7.1679Y-3.7153
X7.1679Y-3.7653
X7.1679Y-3.8153
X7.2179Y-3.7153
X7.2179Y-3.7653
X7.2179Y-3.8153
T3
X5.73Y-2.9059
X5.73Y-3.1059
X6.405Y-4.7167
X6.405Y-4.9167
X6.6921Y-3.535
X6.8921Y-3.535
T4
X5.3Y-3.56
X5.3Y-3.76
X5.4Y-3.66
X5.525Y-3.5601
X5.525Y-3.7601
X5.625Y-3.6601
X5.8316Y-3.0559
X5.93Y-3.0559
X6.2Y-4.8158
X6.2984Y-4.8158
X6.7921Y-3.635
X6.7921Y-3.7334
T5
X4.025Y-3.56
X4.025Y-3.66
X4.025Y-3.76
X4.025Y-3.86
X4.025Y-3.96
X4.025Y-4.06
X4.025Y-4.16
X4.025Y-4.26
X4.025Y-4.36
X4.025Y-4.46
X4.025Y-4.56
X4.025Y-4.66
X4.025Y-4.76
X4.025Y-4.86
X4.025Y-4.96
X4.025Y-5.06
X4.025Y-5.16
X4.4469Y-3.56
X4.4469Y-3.66
X4.4469Y-3.76
X4.4469Y-3.86
X4.4469Y-3.96
X4.4469Y-4.06
X4.4469Y-4.16
X4.4469Y-4.26
X4.4469Y-4.36
X4.4469Y-4.46
X4.4469Y-4.56
X4.4469Y-4.66
X4.4469Y-4.76
X4.4469Y-4.86
X4.53Y-2.057
X4.63Y-2.057
X4.6319Y-5.225
X4.73Y-2.057
X4.73Y-5.8
X4.75Y-5.225
X4.83Y-2.057
X4.83Y-5.8
X4.8681Y-5.225
X4.93Y-2.057
X4.93Y-5.8
X5.03Y-2.057
X5.03Y-5.8
X5.05Y-3.56
X5.05Y-3.66
X5.05Y-3.76
X5.05Y-3.86
X5.05Y-3.96
X5.05Y-4.06
X5.05Y-4.16
X5.05Y-4.26
X5.05Y-4.36
X5.05Y-4.46
X5.05Y-4.56
X5.05Y-4.66
X5.05Y-4.76
X5.05Y-4.86
X5.13Y-2.057
X5.13Y-5.8
X5.23Y-2.057
X5.23Y-5.8
X5.33Y-2.057
X5.33Y-5.8
X5.375Y-4.06
X5.375Y-4.16
X5.375Y-4.26
X5.375Y-4.36
X5.375Y-4.46
X5.375Y-4.56
X5.375Y-4.66
X5.375Y-4.76
X5.375Y-4.86
X5.43Y-2.057
X5.43Y-5.8
X5.53Y-2.057
X5.53Y-5.8
X5.63Y-2.057
X5.63Y-5.8
X5.73Y-2.057
X5.73Y-5.8
X5.83Y-2.057
X5.83Y-5.8
X5.875Y-3.725
X5.93Y-2.057
X5.93Y-5.8
X6.03Y-2.057
X6.03Y-5.8
X6.075Y-3.725
X6.13Y-2.057
X6.13Y-5.8
X6.23Y-2.057
X6.23Y-5.8
X6.33Y-2.057
X6.33Y-5.8
X6.43Y-2.057
X6.43Y-5.8
X6.53Y-2.057
X6.53Y-5.8
X6.63Y-2.057
X6.63Y-5.8
X6.6853Y-5.0087
X6.73Y-2.057
X6.73Y-5.8
X6.7853Y-5.0087
X6.83Y-2.057
X6.83Y-5.8
X6.8853Y-5.0087
X6.93Y-2.057
X6.93Y-5.8
X6.9421Y-3.135
X6.9853Y-5.0087
X7.03Y-2.057
X7.13Y-2.057
X7.23Y-2.057
X7.775Y-2.596
X7.775Y-2.696
X7.775Y-2.796
X7.775Y-2.896
X7.775Y-2.996
X7.775Y-3.096
X7.775Y-3.196
X7.775Y-3.296
X7.775Y-3.396
X7.775Y-3.496
X7.775Y-3.596
X7.775Y-3.696
X7.775Y-3.796
X7.775Y-3.896
X7.775Y-3.996
X7.775Y-4.096
X7.775Y-4.196
X7.775Y-4.296
X7.775Y-4.396
X7.775Y-4.496
X7.775Y-4.596
X7.775Y-4.696
X7.775Y-4.796
X7.775Y-4.896
X7.775Y-4.996
X7.775Y-5.096
X7.775Y-5.196
X7.775Y-5.296
T6
X4.1339Y-2.1654
X4.1339Y-5.7087
X7.6772Y-2.1654
X7.6772Y-5.7087
T3
G00X4.5217Y-5.2073
M15
G01X4.5217Y-5.2427
M16
G05
G00X4.9783Y-5.2073
M15
G01X4.9783Y-5.2427
M16
G05
T0
M30
