%TF.GenerationSoftware,KiCad,Pcbnew,7.0.7*%
%TF.CreationDate,2025-03-05T16:43:26-06:00*%
%TF.ProjectId,LED-100,4c45442d-3130-4302-9e6b-696361645f70,rev?*%
%TF.SameCoordinates,Original*%
%TF.FileFunction,Soldermask,Top*%
%TF.FilePolarity,Negative*%
%FSLAX46Y46*%
G04 Gerber Fmt 4.6, Leading zero omitted, Abs format (unit mm)*
G04 Created by KiCad (PCBNEW 7.0.7) date 2025-03-05 16:43:26*
%MOMM*%
%LPD*%
G01*
G04 APERTURE LIST*
G04 Aperture macros list*
%AMRoundRect*
0 Rectangle with rounded corners*
0 $1 Rounding radius*
0 $2 $3 $4 $5 $6 $7 $8 $9 X,Y pos of 4 corners*
0 Add a 4 corners polygon primitive as box body*
4,1,4,$2,$3,$4,$5,$6,$7,$8,$9,$2,$3,0*
0 Add four circle primitives for the rounded corners*
1,1,$1+$1,$2,$3*
1,1,$1+$1,$4,$5*
1,1,$1+$1,$6,$7*
1,1,$1+$1,$8,$9*
0 Add four rect primitives between the rounded corners*
20,1,$1+$1,$2,$3,$4,$5,0*
20,1,$1+$1,$4,$5,$6,$7,0*
20,1,$1+$1,$6,$7,$8,$9,0*
20,1,$1+$1,$8,$9,$2,$3,0*%
G04 Aperture macros list end*
%ADD10R,1.700000X1.700000*%
%ADD11O,1.700000X1.700000*%
%ADD12C,1.440000*%
%ADD13RoundRect,0.250000X-0.450000X0.325000X-0.450000X-0.325000X0.450000X-0.325000X0.450000X0.325000X0*%
%ADD14RoundRect,0.250000X-0.325000X-0.450000X0.325000X-0.450000X0.325000X0.450000X-0.325000X0.450000X0*%
%ADD15C,1.600000*%
%ADD16RoundRect,0.250000X0.450000X-0.325000X0.450000X0.325000X-0.450000X0.325000X-0.450000X-0.325000X0*%
%ADD17C,4.700000*%
%ADD18C,8.600000*%
%ADD19R,4.360000X4.110000*%
%ADD20R,0.400000X1.200000*%
%ADD21O,1.400000X2.400000*%
%ADD22C,1.800000*%
%ADD23R,4.110000X4.360000*%
%ADD24R,1.200000X0.400000*%
%ADD25C,1.400000*%
%ADD26O,1.400000X1.400000*%
G04 APERTURE END LIST*
D10*
%TO.C,J6*%
X136525000Y-103124000D03*
D11*
X136525000Y-105664000D03*
X136525000Y-108204000D03*
X136525000Y-110744000D03*
X136525000Y-113284000D03*
X136525000Y-115824000D03*
X136525000Y-118364000D03*
X136525000Y-120904000D03*
X136525000Y-123444000D03*
%TD*%
D12*
%TO.C,RV1*%
X140335000Y-90425809D03*
X142875000Y-92965809D03*
X140335000Y-95505809D03*
%TD*%
D13*
%TO.C,D3b1*%
X125222000Y-142494000D03*
X125222000Y-144544000D03*
%TD*%
%TO.C,D33*%
X150622000Y-142476000D03*
X150622000Y-144526000D03*
%TD*%
%TO.C,D16*%
X122682000Y-142494000D03*
X122682000Y-144544000D03*
%TD*%
%TO.C,D43*%
X160782000Y-142476000D03*
X160782000Y-144526000D03*
%TD*%
D14*
%TO.C,D49*%
X194635600Y-93880400D03*
X192585600Y-93880400D03*
%TD*%
D12*
%TO.C,RV2*%
X134620000Y-90424000D03*
X137160000Y-92964000D03*
X134620000Y-95504000D03*
%TD*%
D13*
%TO.C,D18*%
X127762000Y-142485000D03*
X127762000Y-144535000D03*
%TD*%
D15*
%TO.C,C3*%
X172520403Y-92329000D03*
X172520403Y-94829000D03*
%TD*%
D13*
%TO.C,D19*%
X140462000Y-142476000D03*
X140462000Y-144526000D03*
%TD*%
D16*
%TO.C,D26*%
X168402000Y-57456000D03*
X168402000Y-55406000D03*
%TD*%
D13*
%TO.C,D71*%
X172339000Y-122140000D03*
X172339000Y-124190000D03*
%TD*%
D14*
%TO.C,D36*%
X194670000Y-71020400D03*
X192620000Y-71020400D03*
%TD*%
%TO.C,D55*%
X194584800Y-114200400D03*
X192534800Y-114200400D03*
%TD*%
%TO.C,D50*%
X194584800Y-106580400D03*
X192534800Y-106580400D03*
%TD*%
D13*
%TO.C,D31*%
X173482000Y-142485000D03*
X173482000Y-144535000D03*
%TD*%
D16*
%TO.C,D34*%
X181102000Y-57456000D03*
X181102000Y-55406000D03*
%TD*%
D14*
%TO.C,D52a1*%
X194584800Y-104040400D03*
X192534800Y-104040400D03*
%TD*%
%TO.C,D46*%
X194686400Y-91340400D03*
X192636400Y-91340400D03*
%TD*%
%TO.C,D38*%
X194670000Y-73560400D03*
X192620000Y-73560400D03*
%TD*%
%TO.C,D54*%
X194584800Y-109120400D03*
X192534800Y-109120400D03*
%TD*%
D17*
%TO.C,H2*%
X195000000Y-55000000D03*
D18*
X195000000Y-55000000D03*
%TD*%
D14*
%TO.C,D42*%
X194686400Y-83720400D03*
X192636400Y-83720400D03*
%TD*%
D19*
%TO.C,U3*%
X182065000Y-95637480D03*
D20*
X177190000Y-99287480D03*
X177840000Y-99287480D03*
X178490000Y-99287480D03*
X179140000Y-99287480D03*
X179790000Y-99287480D03*
X180440000Y-99287480D03*
X181090000Y-99287480D03*
X181740000Y-99287480D03*
X182390000Y-99287480D03*
X183040000Y-99287480D03*
X183690000Y-99287480D03*
X184340000Y-99287480D03*
X184990000Y-99287480D03*
X185640000Y-99287480D03*
X186290000Y-99287480D03*
X186940000Y-99287480D03*
X186940000Y-91987480D03*
X186290000Y-91987480D03*
X185640000Y-91987480D03*
X184990000Y-91987480D03*
X184340000Y-91987480D03*
X183690000Y-91987480D03*
X183040000Y-91987480D03*
X182390000Y-91987480D03*
X181740000Y-91987480D03*
X181090000Y-91987480D03*
X180440000Y-91987480D03*
X179790000Y-91987480D03*
X179140000Y-91987480D03*
X178490000Y-91987480D03*
X177840000Y-91987480D03*
X177190000Y-91987480D03*
%TD*%
D15*
%TO.C,C2*%
X157480000Y-122322247D03*
X159980000Y-122322247D03*
%TD*%
D13*
%TO.C,D30*%
X163322000Y-142476000D03*
X163322000Y-144526000D03*
%TD*%
D10*
%TO.C,J7*%
X176330403Y-79629000D03*
%TD*%
D16*
%TO.C,D1*%
X125222000Y-57474000D03*
X125222000Y-55424000D03*
%TD*%
%TO.C,D27*%
X163322000Y-57456000D03*
X163322000Y-55406000D03*
%TD*%
%TO.C,D14*%
X140462000Y-57456000D03*
X140462000Y-55406000D03*
%TD*%
D14*
%TO.C,D44*%
X194686400Y-88800400D03*
X192636400Y-88800400D03*
%TD*%
D16*
%TO.C,D17*%
X158242000Y-57456000D03*
X158242000Y-55406000D03*
%TD*%
D14*
%TO.C,D51*%
X194635600Y-98960400D03*
X192585600Y-98960400D03*
%TD*%
D13*
%TO.C,D15*%
X120142000Y-142494000D03*
X120142000Y-144544000D03*
%TD*%
D16*
%TO.C,D23a1*%
X176022000Y-57474000D03*
X176022000Y-55424000D03*
%TD*%
D13*
%TO.C,D70*%
X174904400Y-122140000D03*
X174904400Y-124190000D03*
%TD*%
D14*
%TO.C,D39a1*%
X194670000Y-76100400D03*
X192620000Y-76100400D03*
%TD*%
D10*
%TO.C,J4*%
X102235000Y-131064000D03*
D11*
X102235000Y-128524000D03*
X102235000Y-125984000D03*
X102235000Y-123444000D03*
X102235000Y-120904000D03*
X102235000Y-118364000D03*
X102235000Y-115824000D03*
X102235000Y-113284000D03*
X102235000Y-110744000D03*
X102235000Y-108204000D03*
X102235000Y-105664000D03*
X102235000Y-103124000D03*
X102235000Y-100584000D03*
X102235000Y-98044000D03*
X102235000Y-95504000D03*
X102235000Y-92964000D03*
X102235000Y-90424000D03*
%TD*%
D13*
%TO.C,D53b1*%
X170942000Y-142476000D03*
X170942000Y-144526000D03*
%TD*%
D16*
%TO.C,D2*%
X122682000Y-57474000D03*
X122682000Y-55424000D03*
%TD*%
%TO.C,D9*%
X150622000Y-57456000D03*
X150622000Y-55406000D03*
%TD*%
D17*
%TO.C,H1*%
X105000000Y-55000000D03*
D18*
X105000000Y-55000000D03*
%TD*%
D16*
%TO.C,D25*%
X170942000Y-57456000D03*
X170942000Y-55406000D03*
%TD*%
D21*
%TO.C,LED TEST +5V*%
X114850000Y-132715000D03*
X126450000Y-132715000D03*
D22*
X117650000Y-132715000D03*
X120650000Y-132715000D03*
X123650000Y-132715000D03*
%TD*%
D15*
%TO.C,C1*%
X148122000Y-77620000D03*
X150622000Y-77620000D03*
%TD*%
D16*
%TO.C,D29*%
X183642000Y-57474000D03*
X183642000Y-55424000D03*
%TD*%
D14*
%TO.C,D40a1*%
X194686400Y-81180400D03*
X192636400Y-81180400D03*
%TD*%
%TO.C,D37*%
X194670000Y-78640400D03*
X192620000Y-78640400D03*
%TD*%
%TO.C,D48*%
X194635600Y-96420400D03*
X192585600Y-96420400D03*
%TD*%
D13*
%TO.C,D21b1*%
X148082000Y-142476000D03*
X148082000Y-144526000D03*
%TD*%
%TO.C,D72*%
X169799000Y-122140000D03*
X169799000Y-124190000D03*
%TD*%
D16*
%TO.C,D12*%
X137922000Y-57456000D03*
X137922000Y-55406000D03*
%TD*%
%TO.C,D24*%
X173482000Y-57456000D03*
X173482000Y-55406000D03*
%TD*%
D13*
%TO.C,D45*%
X176022000Y-142485000D03*
X176022000Y-144535000D03*
%TD*%
D10*
%TO.C,TP1*%
X149225000Y-94615000D03*
%TD*%
D14*
%TO.C,D41*%
X194670000Y-86235000D03*
X192620000Y-86235000D03*
%TD*%
%TO.C,D58*%
X194584800Y-131980400D03*
X192534800Y-131980400D03*
%TD*%
D16*
%TO.C,D22*%
X160782000Y-57456000D03*
X160782000Y-55406000D03*
%TD*%
%TO.C,D20*%
X153162000Y-57456000D03*
X153162000Y-55406000D03*
%TD*%
D13*
%TO.C,D5*%
X137922000Y-142494000D03*
X137922000Y-144544000D03*
%TD*%
D11*
%TO.C,J3*%
X197485000Y-65939000D03*
X197485000Y-68479000D03*
X197485000Y-71019000D03*
X197485000Y-73559000D03*
X197485000Y-76099000D03*
X197485000Y-78639000D03*
X197485000Y-81179000D03*
X197485000Y-83719000D03*
X197485000Y-86259000D03*
X197485000Y-88799000D03*
X197485000Y-91339000D03*
X197485000Y-93879000D03*
X197485000Y-96419000D03*
X197485000Y-98959000D03*
X197485000Y-101499000D03*
X197485000Y-104039000D03*
X197485000Y-106579000D03*
X197485000Y-109119000D03*
X197485000Y-111659000D03*
X197485000Y-114199000D03*
X197485000Y-116739000D03*
X197485000Y-119279000D03*
X197485000Y-121819000D03*
X197485000Y-124359000D03*
X197485000Y-126899000D03*
X197485000Y-129439000D03*
X197485000Y-131979000D03*
D10*
X197485000Y-134519000D03*
%TD*%
D16*
%TO.C,D3a1*%
X120142000Y-57474000D03*
X120142000Y-55424000D03*
%TD*%
D13*
%TO.C,D52b1*%
X168402000Y-142476000D03*
X168402000Y-144526000D03*
%TD*%
D14*
%TO.C,D32*%
X194661000Y-68455000D03*
X192611000Y-68455000D03*
%TD*%
D13*
%TO.C,D7b1*%
X145542000Y-142476000D03*
X145542000Y-144526000D03*
%TD*%
D23*
%TO.C,U2*%
X156972000Y-132480000D03*
D24*
X153322000Y-127605000D03*
X153322000Y-128255000D03*
X153322000Y-128905000D03*
X153322000Y-129555000D03*
X153322000Y-130205000D03*
X153322000Y-130855000D03*
X153322000Y-131505000D03*
X153322000Y-132155000D03*
X153322000Y-132805000D03*
X153322000Y-133455000D03*
X153322000Y-134105000D03*
X153322000Y-134755000D03*
X153322000Y-135405000D03*
X153322000Y-136055000D03*
X153322000Y-136705000D03*
X153322000Y-137355000D03*
X160622000Y-137355000D03*
X160622000Y-136705000D03*
X160622000Y-136055000D03*
X160622000Y-135405000D03*
X160622000Y-134755000D03*
X160622000Y-134105000D03*
X160622000Y-133455000D03*
X160622000Y-132805000D03*
X160622000Y-132155000D03*
X160622000Y-131505000D03*
X160622000Y-130855000D03*
X160622000Y-130205000D03*
X160622000Y-129555000D03*
X160622000Y-128905000D03*
X160622000Y-128255000D03*
X160622000Y-127605000D03*
%TD*%
D14*
%TO.C,D60*%
X194584800Y-129440400D03*
X192534800Y-129440400D03*
%TD*%
D10*
%TO.C,J2*%
X176022000Y-147320000D03*
D11*
X173482000Y-147320000D03*
X170942000Y-147320000D03*
X168402000Y-147320000D03*
X165862000Y-147320000D03*
X163322000Y-147320000D03*
X160782000Y-147320000D03*
X158242000Y-147320000D03*
X155702000Y-147320000D03*
X153162000Y-147320000D03*
X150622000Y-147320000D03*
X148082000Y-147320000D03*
X145542000Y-147320000D03*
X143002000Y-147320000D03*
X140462000Y-147320000D03*
X137922000Y-147320000D03*
X135382000Y-147320000D03*
X132842000Y-147320000D03*
X130302000Y-147320000D03*
X127762000Y-147320000D03*
X125222000Y-147320000D03*
X122682000Y-147320000D03*
X120142000Y-147320000D03*
%TD*%
D10*
%TO.C,J5*%
X177425480Y-127220000D03*
D11*
X174885480Y-127220000D03*
X172345480Y-127220000D03*
X169805480Y-127220000D03*
%TD*%
D17*
%TO.C,H4*%
X195000000Y-145000000D03*
D18*
X195000000Y-145000000D03*
%TD*%
D14*
%TO.C,D59*%
X194584800Y-126900400D03*
X192534800Y-126900400D03*
%TD*%
%TO.C,D56*%
X194584800Y-111660400D03*
X192534800Y-111660400D03*
%TD*%
D13*
%TO.C,D39b1*%
X165862000Y-142476000D03*
X165862000Y-144526000D03*
%TD*%
%TO.C,D47*%
X153162000Y-142476000D03*
X153162000Y-144526000D03*
%TD*%
D16*
%TO.C,D10*%
X148082000Y-57456000D03*
X148082000Y-55406000D03*
%TD*%
D14*
%TO.C,D57*%
X194584800Y-134520400D03*
X192534800Y-134520400D03*
%TD*%
D13*
%TO.C,D23b1*%
X158242000Y-142476000D03*
X158242000Y-144526000D03*
%TD*%
D16*
%TO.C,D11*%
X145542000Y-57456000D03*
X145542000Y-55406000D03*
%TD*%
%TO.C,D13*%
X143002000Y-57456000D03*
X143002000Y-55406000D03*
%TD*%
%TO.C,D28*%
X165862000Y-57456000D03*
X165862000Y-55406000D03*
%TD*%
%TO.C,D35*%
X178562000Y-57456000D03*
X178562000Y-55406000D03*
%TD*%
D13*
%TO.C,D40b1*%
X155702000Y-142476000D03*
X155702000Y-144526000D03*
%TD*%
D10*
%TO.C,TP2*%
X154305000Y-94615000D03*
%TD*%
D16*
%TO.C,D4*%
X115062000Y-57474000D03*
X115062000Y-55424000D03*
%TD*%
D10*
%TO.C,J1*%
X183642000Y-52249000D03*
D11*
X181102000Y-52249000D03*
X178562000Y-52249000D03*
X176022000Y-52249000D03*
X173482000Y-52249000D03*
X170942000Y-52249000D03*
X168402000Y-52249000D03*
X165862000Y-52249000D03*
X163322000Y-52249000D03*
X160782000Y-52249000D03*
X158242000Y-52249000D03*
X155702000Y-52249000D03*
X153162000Y-52249000D03*
X150622000Y-52249000D03*
X148082000Y-52249000D03*
X145542000Y-52249000D03*
X143002000Y-52249000D03*
X140462000Y-52249000D03*
X137922000Y-52249000D03*
X135382000Y-52249000D03*
X132842000Y-52249000D03*
X130302000Y-52249000D03*
X127762000Y-52249000D03*
X125222000Y-52249000D03*
X122682000Y-52249000D03*
X120142000Y-52249000D03*
X117602000Y-52249000D03*
X115062000Y-52249000D03*
%TD*%
D14*
%TO.C,D53a1*%
X194584800Y-101500400D03*
X192534800Y-101500400D03*
%TD*%
D23*
%TO.C,U1*%
X151795480Y-68125000D03*
D24*
X155445480Y-73000000D03*
X155445480Y-72350000D03*
X155445480Y-71700000D03*
X155445480Y-71050000D03*
X155445480Y-70400000D03*
X155445480Y-69750000D03*
X155445480Y-69100000D03*
X155445480Y-68450000D03*
X155445480Y-67800000D03*
X155445480Y-67150000D03*
X155445480Y-66500000D03*
X155445480Y-65850000D03*
X155445480Y-65200000D03*
X155445480Y-64550000D03*
X155445480Y-63900000D03*
X155445480Y-63250000D03*
X148145480Y-63250000D03*
X148145480Y-63900000D03*
X148145480Y-64550000D03*
X148145480Y-65200000D03*
X148145480Y-65850000D03*
X148145480Y-66500000D03*
X148145480Y-67150000D03*
X148145480Y-67800000D03*
X148145480Y-68450000D03*
X148145480Y-69100000D03*
X148145480Y-69750000D03*
X148145480Y-70400000D03*
X148145480Y-71050000D03*
X148145480Y-71700000D03*
X148145480Y-72350000D03*
X148145480Y-73000000D03*
%TD*%
D13*
%TO.C,D69*%
X177444400Y-122140000D03*
X177444400Y-124190000D03*
%TD*%
D25*
%TO.C,R3*%
X169980403Y-89789000D03*
D26*
X175060403Y-89789000D03*
%TD*%
D10*
%TO.C,U4*%
X112951842Y-90424000D03*
D11*
X112951842Y-92964000D03*
X112951842Y-95504000D03*
X112951842Y-98044000D03*
X112951842Y-100584000D03*
X112951842Y-103124000D03*
X112951842Y-105664000D03*
X112951842Y-108204000D03*
X112951842Y-110744000D03*
X112951842Y-113284000D03*
X112951842Y-115824000D03*
X112951842Y-118364000D03*
X112951842Y-120904000D03*
X112951842Y-123444000D03*
X128270000Y-123444000D03*
X128270000Y-120904000D03*
X128270000Y-118364000D03*
X128270000Y-115824000D03*
X128270000Y-113284000D03*
X128270000Y-110744000D03*
X128270000Y-108204000D03*
X128270000Y-105664000D03*
X128270000Y-103124000D03*
X128270000Y-100584000D03*
X128270000Y-98044000D03*
X128270000Y-95504000D03*
X128270000Y-92964000D03*
X128270000Y-90424000D03*
%TD*%
D16*
%TO.C,D7a1*%
X117602000Y-57474000D03*
X117602000Y-55424000D03*
%TD*%
D25*
%TO.C,R2*%
X162687000Y-119804559D03*
D26*
X162687000Y-124884559D03*
%TD*%
D16*
%TO.C,D21a1*%
X155702000Y-57474000D03*
X155702000Y-55424000D03*
%TD*%
%TO.C,D8*%
X127762000Y-57474000D03*
X127762000Y-55424000D03*
%TD*%
D13*
%TO.C,D6*%
X143002000Y-142485000D03*
X143002000Y-144535000D03*
%TD*%
D17*
%TO.C,H3*%
X105000000Y-145000000D03*
D18*
X105000000Y-145000000D03*
%TD*%
D25*
%TO.C,R1*%
X145542000Y-78890000D03*
D26*
X145542000Y-73810000D03*
%TD*%
M02*
