%TF.GenerationSoftware,KiCad,Pcbnew,7.0.7*%
%TF.CreationDate,2025-03-05T16:43:26-06:00*%
%TF.ProjectId,LED-100,4c45442d-3130-4302-9e6b-696361645f70,rev?*%
%TF.SameCoordinates,Original*%
%TF.FileFunction,Soldermask,Bot*%
%TF.FilePolarity,Negative*%
%FSLAX46Y46*%
G04 Gerber Fmt 4.6, Leading zero omitted, Abs format (unit mm)*
G04 Created by KiCad (PCBNEW 7.0.7) date 2025-03-05 16:43:26*
%MOMM*%
%LPD*%
G01*
G04 APERTURE LIST*
%ADD10R,1.700000X1.700000*%
%ADD11O,1.700000X1.700000*%
%ADD12C,1.440000*%
%ADD13C,1.600000*%
%ADD14C,4.700000*%
%ADD15C,8.600000*%
%ADD16R,3.810000X4.110000*%
%ADD17O,1.400000X2.400000*%
%ADD18C,1.800000*%
%ADD19R,4.110000X3.810000*%
%ADD20C,1.400000*%
%ADD21O,1.400000X1.400000*%
G04 APERTURE END LIST*
D10*
%TO.C,J6*%
X136525000Y-103124000D03*
D11*
X136525000Y-105664000D03*
X136525000Y-108204000D03*
X136525000Y-110744000D03*
X136525000Y-113284000D03*
X136525000Y-115824000D03*
X136525000Y-118364000D03*
X136525000Y-120904000D03*
X136525000Y-123444000D03*
%TD*%
D12*
%TO.C,RV1*%
X140335000Y-90425809D03*
X142875000Y-92965809D03*
X140335000Y-95505809D03*
%TD*%
%TO.C,RV2*%
X134620000Y-90424000D03*
X137160000Y-92964000D03*
X134620000Y-95504000D03*
%TD*%
D13*
%TO.C,C3*%
X172520403Y-92329000D03*
X172520403Y-94829000D03*
%TD*%
D14*
%TO.C,H2*%
X195000000Y-55000000D03*
D15*
X195000000Y-55000000D03*
%TD*%
D16*
%TO.C,U3*%
X182065000Y-95637480D03*
%TD*%
D13*
%TO.C,C2*%
X157480000Y-122322247D03*
X159980000Y-122322247D03*
%TD*%
D10*
%TO.C,J7*%
X176330403Y-79629000D03*
%TD*%
%TO.C,J4*%
X102235000Y-131064000D03*
D11*
X102235000Y-128524000D03*
X102235000Y-125984000D03*
X102235000Y-123444000D03*
X102235000Y-120904000D03*
X102235000Y-118364000D03*
X102235000Y-115824000D03*
X102235000Y-113284000D03*
X102235000Y-110744000D03*
X102235000Y-108204000D03*
X102235000Y-105664000D03*
X102235000Y-103124000D03*
X102235000Y-100584000D03*
X102235000Y-98044000D03*
X102235000Y-95504000D03*
X102235000Y-92964000D03*
X102235000Y-90424000D03*
%TD*%
D14*
%TO.C,H1*%
X105000000Y-55000000D03*
D15*
X105000000Y-55000000D03*
%TD*%
D17*
%TO.C,LED TEST +5V*%
X114850000Y-132715000D03*
X126450000Y-132715000D03*
D18*
X117650000Y-132715000D03*
X120650000Y-132715000D03*
X123650000Y-132715000D03*
%TD*%
D13*
%TO.C,C1*%
X148122000Y-77620000D03*
X150622000Y-77620000D03*
%TD*%
D10*
%TO.C,TP1*%
X149225000Y-94615000D03*
%TD*%
D11*
%TO.C,J3*%
X197485000Y-65939000D03*
X197485000Y-68479000D03*
X197485000Y-71019000D03*
X197485000Y-73559000D03*
X197485000Y-76099000D03*
X197485000Y-78639000D03*
X197485000Y-81179000D03*
X197485000Y-83719000D03*
X197485000Y-86259000D03*
X197485000Y-88799000D03*
X197485000Y-91339000D03*
X197485000Y-93879000D03*
X197485000Y-96419000D03*
X197485000Y-98959000D03*
X197485000Y-101499000D03*
X197485000Y-104039000D03*
X197485000Y-106579000D03*
X197485000Y-109119000D03*
X197485000Y-111659000D03*
X197485000Y-114199000D03*
X197485000Y-116739000D03*
X197485000Y-119279000D03*
X197485000Y-121819000D03*
X197485000Y-124359000D03*
X197485000Y-126899000D03*
X197485000Y-129439000D03*
X197485000Y-131979000D03*
D10*
X197485000Y-134519000D03*
%TD*%
D19*
%TO.C,U2*%
X156972000Y-132480000D03*
%TD*%
D10*
%TO.C,J2*%
X176022000Y-147320000D03*
D11*
X173482000Y-147320000D03*
X170942000Y-147320000D03*
X168402000Y-147320000D03*
X165862000Y-147320000D03*
X163322000Y-147320000D03*
X160782000Y-147320000D03*
X158242000Y-147320000D03*
X155702000Y-147320000D03*
X153162000Y-147320000D03*
X150622000Y-147320000D03*
X148082000Y-147320000D03*
X145542000Y-147320000D03*
X143002000Y-147320000D03*
X140462000Y-147320000D03*
X137922000Y-147320000D03*
X135382000Y-147320000D03*
X132842000Y-147320000D03*
X130302000Y-147320000D03*
X127762000Y-147320000D03*
X125222000Y-147320000D03*
X122682000Y-147320000D03*
X120142000Y-147320000D03*
%TD*%
D10*
%TO.C,J5*%
X177425480Y-127220000D03*
D11*
X174885480Y-127220000D03*
X172345480Y-127220000D03*
X169805480Y-127220000D03*
%TD*%
D14*
%TO.C,H4*%
X195000000Y-145000000D03*
D15*
X195000000Y-145000000D03*
%TD*%
D10*
%TO.C,TP2*%
X154305000Y-94615000D03*
%TD*%
%TO.C,J1*%
X183642000Y-52249000D03*
D11*
X181102000Y-52249000D03*
X178562000Y-52249000D03*
X176022000Y-52249000D03*
X173482000Y-52249000D03*
X170942000Y-52249000D03*
X168402000Y-52249000D03*
X165862000Y-52249000D03*
X163322000Y-52249000D03*
X160782000Y-52249000D03*
X158242000Y-52249000D03*
X155702000Y-52249000D03*
X153162000Y-52249000D03*
X150622000Y-52249000D03*
X148082000Y-52249000D03*
X145542000Y-52249000D03*
X143002000Y-52249000D03*
X140462000Y-52249000D03*
X137922000Y-52249000D03*
X135382000Y-52249000D03*
X132842000Y-52249000D03*
X130302000Y-52249000D03*
X127762000Y-52249000D03*
X125222000Y-52249000D03*
X122682000Y-52249000D03*
X120142000Y-52249000D03*
X117602000Y-52249000D03*
X115062000Y-52249000D03*
%TD*%
D19*
%TO.C,U1*%
X151795480Y-68125000D03*
%TD*%
D20*
%TO.C,R3*%
X169980403Y-89789000D03*
D21*
X175060403Y-89789000D03*
%TD*%
D10*
%TO.C,U4*%
X112951842Y-90424000D03*
D11*
X112951842Y-92964000D03*
X112951842Y-95504000D03*
X112951842Y-98044000D03*
X112951842Y-100584000D03*
X112951842Y-103124000D03*
X112951842Y-105664000D03*
X112951842Y-108204000D03*
X112951842Y-110744000D03*
X112951842Y-113284000D03*
X112951842Y-115824000D03*
X112951842Y-118364000D03*
X112951842Y-120904000D03*
X112951842Y-123444000D03*
X128270000Y-123444000D03*
X128270000Y-120904000D03*
X128270000Y-118364000D03*
X128270000Y-115824000D03*
X128270000Y-113284000D03*
X128270000Y-110744000D03*
X128270000Y-108204000D03*
X128270000Y-105664000D03*
X128270000Y-103124000D03*
X128270000Y-100584000D03*
X128270000Y-98044000D03*
X128270000Y-95504000D03*
X128270000Y-92964000D03*
X128270000Y-90424000D03*
%TD*%
D20*
%TO.C,R2*%
X162687000Y-119804559D03*
D21*
X162687000Y-124884559D03*
%TD*%
D14*
%TO.C,H3*%
X105000000Y-145000000D03*
D15*
X105000000Y-145000000D03*
%TD*%
D20*
%TO.C,R1*%
X145542000Y-78890000D03*
D21*
X145542000Y-73810000D03*
%TD*%
M02*
