%TF.GenerationSoftware,KiCad,Pcbnew,9.0.1*%
%TF.CreationDate,2025-04-03T16:54:10-05:00*%
%TF.ProjectId,LED-100,4c45442d-3130-4302-9e6b-696361645f70,3*%
%TF.SameCoordinates,Original*%
%TF.FileFunction,Soldermask,Bot*%
%TF.FilePolarity,Negative*%
%FSLAX46Y46*%
G04 Gerber Fmt 4.6, Leading zero omitted, Abs format (unit mm)*
G04 Created by KiCad (PCBNEW 9.0.1) date 2025-04-03 16:54:10*
%MOMM*%
%LPD*%
G01*
G04 APERTURE LIST*
G04 Aperture macros list*
%AMHorizOval*
0 Thick line with rounded ends*
0 $1 width*
0 $2 $3 position (X,Y) of the first rounded end (center of the circle)*
0 $4 $5 position (X,Y) of the second rounded end (center of the circle)*
0 Add line between two ends*
20,1,$1,$2,$3,$4,$5,0*
0 Add two circle primitives to create the rounded ends*
1,1,$1,$2,$3*
1,1,$1,$4,$5*%
%AMRotRect*
0 Rectangle, with rotation*
0 The origin of the aperture is its center*
0 $1 length*
0 $2 width*
0 $3 Rotation angle, in degrees counterclockwise*
0 Add horizontal line*
21,1,$1,$2,0,0,$3*%
G04 Aperture macros list end*
%ADD10C,0.100000*%
%ADD11HorizOval,1.400000X0.000000X0.000000X0.000000X0.000000X0*%
%ADD12C,1.400000*%
%ADD13C,2.000000*%
%ADD14R,1.700000X1.700000*%
%ADD15C,1.700000*%
%ADD16C,1.600000*%
%ADD17O,1.400000X1.400000*%
%ADD18C,4.700000*%
%ADD19C,8.600000*%
%ADD20RotRect,1.700000X1.700000X45.000000*%
%ADD21C,2.340000*%
%ADD22C,1.800000*%
%ADD23HorizOval,1.400000X-0.353553X0.353553X0.353553X-0.353553X0*%
G04 APERTURE END LIST*
D10*
%TO.C,U2*%
X163925000Y-134080000D02*
X159925000Y-134080000D01*
X159925000Y-130080000D01*
X163925000Y-130080000D01*
X163925000Y-134080000D01*
G36*
X163925000Y-134080000D02*
G01*
X159925000Y-134080000D01*
X159925000Y-130080000D01*
X163925000Y-130080000D01*
X163925000Y-134080000D01*
G37*
%TO.C,U3*%
X184230000Y-97250000D02*
X180230000Y-97250000D01*
X180230000Y-93250000D01*
X184230000Y-93250000D01*
X184230000Y-97250000D01*
G36*
X184230000Y-97250000D02*
G01*
X180230000Y-97250000D01*
X180230000Y-93250000D01*
X184230000Y-93250000D01*
X184230000Y-97250000D01*
G37*
%TO.C,U1*%
X153795480Y-70125000D02*
X149795480Y-70125000D01*
X149795480Y-66125000D01*
X153795480Y-66125000D01*
X153795480Y-70125000D01*
G36*
X153795480Y-70125000D02*
G01*
X149795480Y-70125000D01*
X149795480Y-66125000D01*
X153795480Y-66125000D01*
X153795480Y-70125000D01*
G37*
%TD*%
D11*
%TO.C,R5*%
X140203949Y-119203949D03*
D12*
X143796051Y-122796051D03*
%TD*%
D13*
%TO.C,SELECT*%
X150892245Y-115199857D03*
X146296051Y-119796051D03*
X147710264Y-112017876D03*
X143114070Y-116614071D03*
%TD*%
D14*
%TO.C,J2*%
X180975000Y-147320000D03*
D15*
X178435000Y-147320000D03*
X175895000Y-147320000D03*
X173355000Y-147320000D03*
X170815000Y-147320000D03*
X168275000Y-147320000D03*
X165735000Y-147320000D03*
X163195000Y-147320000D03*
X160655000Y-147320000D03*
X158115000Y-147320000D03*
X155575000Y-147320000D03*
X153035000Y-147320000D03*
X150495000Y-147320000D03*
X147955000Y-147320000D03*
X145415000Y-147320000D03*
X142875000Y-147320000D03*
X140335000Y-147320000D03*
X137795000Y-147320000D03*
X135255000Y-147320000D03*
X132715000Y-147320000D03*
X130175000Y-147320000D03*
X127635000Y-147320000D03*
X125095000Y-147320000D03*
%TD*%
D16*
%TO.C,C1*%
X151000000Y-78000000D03*
X148500000Y-78000000D03*
%TD*%
D12*
%TO.C,R3*%
X175000000Y-89500000D03*
D17*
X169920000Y-89500000D03*
%TD*%
D12*
%TO.C,R2*%
X167640000Y-125500000D03*
D17*
X167640000Y-120420000D03*
%TD*%
D14*
%TO.C,J5*%
X182870000Y-127000000D03*
D15*
X180330000Y-127000000D03*
X177790000Y-127000000D03*
X175250000Y-127000000D03*
%TD*%
D16*
%TO.C,C3*%
X172500000Y-94500000D03*
X172500000Y-92000000D03*
%TD*%
D12*
%TO.C,R4*%
X158000000Y-105580000D03*
D17*
X158000000Y-100500000D03*
%TD*%
D18*
%TO.C,H2*%
X195000000Y-55000000D03*
D19*
X195000000Y-55000000D03*
%TD*%
D14*
%TO.C,J7*%
X176500000Y-82000000D03*
%TD*%
D12*
%TO.C,R1*%
X146000000Y-75500000D03*
D17*
X146000000Y-80580000D03*
%TD*%
D20*
%TO.C,J8*%
X132228386Y-79431547D03*
D15*
X134024437Y-81227598D03*
X135820488Y-83023649D03*
X137616540Y-84819701D03*
X139412591Y-86615752D03*
X141208642Y-88411803D03*
X143004693Y-90207854D03*
X144800745Y-92003906D03*
%TD*%
D18*
%TO.C,H1*%
X105000000Y-55000000D03*
D19*
X105000000Y-55000000D03*
%TD*%
D16*
%TO.C,C2*%
X162500000Y-123000000D03*
X165000000Y-123000000D03*
%TD*%
D14*
%TO.C,TP1*%
X116500000Y-138500000D03*
%TD*%
D20*
%TO.C,U4*%
X110691600Y-90261068D03*
D15*
X112487651Y-92057120D03*
X114283702Y-93853171D03*
X116079754Y-95649222D03*
X117875805Y-97445273D03*
X119671856Y-99241324D03*
X121467907Y-101037376D03*
X123263959Y-102833427D03*
X125060010Y-104629478D03*
X126856061Y-106425529D03*
X128652112Y-108221581D03*
X130448163Y-110017632D03*
X132244215Y-111813683D03*
X134040266Y-113609734D03*
X144816573Y-102833427D03*
X143020522Y-101037376D03*
X141224471Y-99241324D03*
X139428420Y-97445273D03*
X137632368Y-95649222D03*
X135836317Y-93853171D03*
X134040266Y-92057120D03*
X132244215Y-90261068D03*
X130448163Y-88465017D03*
X128652112Y-86668966D03*
X126856061Y-84872915D03*
X125060010Y-83076863D03*
X123263959Y-81280812D03*
X121467907Y-79484761D03*
%TD*%
D18*
%TO.C,H4*%
X195000000Y-145000000D03*
D19*
X195000000Y-145000000D03*
%TD*%
D21*
%TO.C,RV1*%
X112964466Y-123464466D03*
X121803301Y-118161165D03*
X116500000Y-127000000D03*
%TD*%
D14*
%TO.C,J3*%
X197485000Y-134620000D03*
D15*
X197485000Y-132080000D03*
X197485000Y-129540000D03*
X197485000Y-127000000D03*
X197485000Y-124460000D03*
X197485000Y-121920000D03*
X197485000Y-119380000D03*
X197485000Y-116840000D03*
X197485000Y-114300000D03*
X197485000Y-111760000D03*
X197485000Y-109220000D03*
X197485000Y-106680000D03*
X197485000Y-104140000D03*
X197485000Y-101600000D03*
X197485000Y-99060000D03*
X197485000Y-96520000D03*
X197485000Y-93980000D03*
X197485000Y-91440000D03*
X197485000Y-88900000D03*
X197485000Y-86360000D03*
X197485000Y-83820000D03*
X197485000Y-81280000D03*
X197485000Y-78740000D03*
X197485000Y-76200000D03*
X197485000Y-73660000D03*
X197485000Y-71120000D03*
X197485000Y-68580000D03*
X197485000Y-66040000D03*
%TD*%
D14*
%TO.C,J4*%
X102235000Y-132080000D03*
D15*
X102235000Y-129540000D03*
X102235000Y-127000000D03*
X102235000Y-124460000D03*
X102235000Y-121920000D03*
X102235000Y-119380000D03*
X102235000Y-116840000D03*
X102235000Y-114300000D03*
X102235000Y-111760000D03*
X102235000Y-109220000D03*
X102235000Y-106680000D03*
X102235000Y-104140000D03*
X102235000Y-101600000D03*
X102235000Y-99060000D03*
X102235000Y-96520000D03*
X102235000Y-93980000D03*
X102235000Y-91440000D03*
%TD*%
D22*
%TO.C,SW1*%
X134621320Y-124878680D03*
X132500000Y-127000000D03*
X130378680Y-129121320D03*
D23*
X136601219Y-122898781D03*
X128398781Y-131101219D03*
%TD*%
D14*
%TO.C,TP2*%
X116500000Y-142500000D03*
%TD*%
%TO.C,J1*%
X183515000Y-52070000D03*
D15*
X180975000Y-52070000D03*
X178435000Y-52070000D03*
X175895000Y-52070000D03*
X173355000Y-52070000D03*
X170815000Y-52070000D03*
X168275000Y-52070000D03*
X165735000Y-52070000D03*
X163195000Y-52070000D03*
X160655000Y-52070000D03*
X158115000Y-52070000D03*
X155575000Y-52070000D03*
X153035000Y-52070000D03*
X150495000Y-52070000D03*
X147955000Y-52070000D03*
X145415000Y-52070000D03*
X142875000Y-52070000D03*
X140335000Y-52070000D03*
X137795000Y-52070000D03*
X135255000Y-52070000D03*
X132715000Y-52070000D03*
X130175000Y-52070000D03*
X127635000Y-52070000D03*
X125095000Y-52070000D03*
X122555000Y-52070000D03*
X120015000Y-52070000D03*
X117475000Y-52070000D03*
X114935000Y-52070000D03*
%TD*%
D18*
%TO.C,H3*%
X105000000Y-145000000D03*
D19*
X105000000Y-145000000D03*
%TD*%
M02*
