M48
; DRILL file {KiCad 7.0.7} date 2025 March 05, Wednesday 11:48:53
; FORMAT={-:-/ absolute / inch / decimal}
; #@! TF.CreationDate,2025-03-05T11:48:53-06:00
; #@! TF.GenerationSoftware,Kicad,Pcbnew,7.0.7
; #@! TF.FileFunction,MixedPlating,1,2
FMAT,2
INCH
; #@! TA.AperFunction,Plated,PTH,ViaDrill
T1C0.0157
; #@! TA.AperFunction,Plated,PTH,ComponentDrill
T2C0.0197
; #@! TA.AperFunction,Plated,PTH,ComponentDrill
T3C0.0276
; #@! TA.AperFunction,Plated,PTH,ComponentDrill
T4C0.0315
; #@! TA.AperFunction,Plated,PTH,ComponentDrill
T5C0.0394
; #@! TA.AperFunction,Plated,PTH,ComponentDrill
T6C0.1693
%
G90
G05
T1
X1.35Y-1.1557
X1.45Y-1.1557
X1.55Y-1.1557
X1.55Y-2.15
X1.55Y-4.36
X1.65Y-1.1557
X1.65Y-4.36
X1.7Y-3.775
X1.75Y-1.1557
X1.75Y-4.36
X1.85Y-1.1557
X1.85Y-4.3596
X2.25Y-1.155
X2.25Y-4.36
X2.325Y-1.725
X2.325Y-3.8
X2.35Y-1.155
X2.35Y-4.3593
X2.45Y-1.155
X2.45Y-1.75
X2.45Y-4.3596
X2.55Y-1.155
X2.55Y-2.25
X2.55Y-3.775
X2.55Y-4.3593
X2.65Y-1.155
X2.65Y-4.3593
X2.75Y-1.155
X2.75Y-2.925
X2.75Y-4.3593
X2.7553Y-3.7581
X2.85Y-1.155
X2.85Y-4.3593
X2.95Y-1.155
X2.95Y-4.3593
X3.05Y-1.155
X3.05Y-4.3593
X3.1Y-1.775
X3.1Y-2.15
X3.1Y-2.925
X3.15Y-1.155
X3.15Y-4.3593
X3.2Y-1.75
X3.2Y-3.075
X3.25Y-1.1557
X3.25Y-4.3593
X3.3Y-2.975
X3.3Y-3.775
X3.35Y-1.1557
X3.35Y-1.725
X3.35Y-3.175
X3.35Y-4.3593
X3.4Y-3.275
X3.4Y-3.8
X3.45Y-1.1557
X3.45Y-4.3593
X3.505Y-3.525
X3.55Y-1.1557
X3.55Y-4.3593
X3.605Y-3.525
X3.65Y-1.1557
X3.65Y-4.3596
X3.706Y-3.525
X3.75Y-1.1557
X3.75Y-4.3596
X3.806Y-3.525
X3.85Y-1.155
X3.9Y-3.6
X3.95Y-1.155
X4.05Y-1.1557
X4.05Y-1.5
X4.2Y-4.4404
X4.215Y-1.075
X4.3313Y-2.816
X4.3313Y-2.916
X4.3313Y-3.016
X4.3313Y-3.116
X4.3313Y-3.216
X4.3313Y-3.316
X4.3313Y-3.816
X4.3313Y-3.916
X4.3313Y-4.016
X4.3313Y-4.116
X4.3333Y-2.516
X4.3333Y-2.616
X4.3333Y-2.716
X4.3343Y-1.515
X4.3346Y-1.616
X4.3346Y-1.716
X4.3346Y-1.816
X4.3346Y-1.916
X4.3346Y-2.215
X4.3353Y-2.016
X4.3353Y-2.116
X4.3353Y-2.316
X4.3353Y-2.416
X4.412Y-3.6
X4.412Y-4.225
X4.415Y-1.275
T2
X2.7462Y-1.5512
X2.7462Y-1.6012
X2.7462Y-1.6512
X2.7962Y-1.5512
X2.7962Y-1.6012
X2.7962Y-1.6512
X2.8462Y-1.5512
X2.8462Y-1.6012
X2.8462Y-1.6512
X2.95Y-3.8821
X2.95Y-3.9321
X2.95Y-3.9821
X3.0Y-3.8821
X3.0Y-3.9321
X3.0Y-3.9821
X3.05Y-3.8821
X3.05Y-3.9321
X3.05Y-3.9821
X3.8321Y-2.5303
X3.8321Y-2.5803
X3.8321Y-2.6303
X3.8821Y-2.5303
X3.8821Y-2.5803
X3.8821Y-2.6303
X3.9321Y-2.5303
X3.9321Y-2.5803
X3.9321Y-2.6303
T3
X2.55Y-1.825
X2.55Y-2.025
X3.225Y-3.4331
X3.225Y-3.6331
X3.4063Y-2.35
X3.6063Y-2.35
T4
X2.6516Y-1.975
X2.75Y-1.975
X2.775Y-2.45
X2.775Y-2.675
X2.875Y-2.55
X2.875Y-2.775
X2.975Y-2.45
X2.975Y-2.675
X3.0434Y-3.5322
X3.1418Y-3.5322
X3.5063Y-2.45
X3.5063Y-2.5484
T5
X0.925Y-2.375
X0.925Y-2.475
X0.925Y-2.575
X0.925Y-2.675
X0.925Y-2.775
X0.925Y-2.875
X0.925Y-2.975
X0.925Y-3.075
X0.925Y-3.175
X0.925Y-3.275
X0.925Y-3.375
X0.925Y-3.475
X0.925Y-3.575
X0.925Y-3.675
X0.925Y-3.775
X0.925Y-3.875
X0.925Y-3.975
X1.35Y-0.95
X1.3969Y-2.375
X1.3969Y-2.475
X1.3969Y-2.575
X1.3969Y-2.675
X1.3969Y-2.775
X1.3969Y-2.875
X1.3969Y-2.975
X1.3969Y-3.075
X1.3969Y-3.175
X1.3969Y-3.275
X1.3969Y-3.375
X1.3969Y-3.475
X1.3969Y-3.575
X1.3969Y-3.675
X1.45Y-0.95
X1.55Y-0.95
X1.55Y-4.55
X1.5819Y-4.0
X1.65Y-0.95
X1.65Y-4.55
X1.7Y-4.0
X1.75Y-0.95
X1.75Y-4.55
X1.8181Y-4.0
X1.85Y-0.95
X1.85Y-4.55
X1.95Y-0.95
X1.95Y-4.55
X2.0Y-2.375
X2.0Y-2.475
X2.0Y-2.575
X2.0Y-2.675
X2.0Y-2.775
X2.0Y-2.875
X2.0Y-2.975
X2.0Y-3.075
X2.0Y-3.175
X2.0Y-3.275
X2.0Y-3.375
X2.0Y-3.475
X2.0Y-3.575
X2.0Y-3.675
X2.05Y-0.95
X2.05Y-4.55
X2.15Y-0.95
X2.15Y-4.55
X2.2Y-1.975
X2.2Y-2.25
X2.25Y-0.95
X2.25Y-4.55
X2.35Y-0.95
X2.35Y-4.55
X2.45Y-0.95
X2.45Y-2.875
X2.45Y-2.975
X2.45Y-3.075
X2.45Y-3.175
X2.45Y-3.275
X2.45Y-3.375
X2.45Y-3.475
X2.45Y-3.575
X2.45Y-3.675
X2.45Y-4.55
X2.55Y-0.95
X2.55Y-4.55
X2.65Y-0.95
X2.65Y-4.55
X2.75Y-0.95
X2.75Y-4.55
X2.85Y-0.95
X2.85Y-4.55
X2.95Y-0.95
X2.95Y-4.55
X3.05Y-0.95
X3.05Y-4.55
X3.15Y-0.95
X3.15Y-4.55
X3.25Y-0.95
X3.25Y-4.55
X3.35Y-0.95
X3.35Y-4.55
X3.45Y-0.95
X3.45Y-4.55
X3.5053Y-3.725
X3.55Y-0.95
X3.55Y-4.55
X3.6053Y-3.725
X3.65Y-0.95
X3.65Y-4.55
X3.6563Y-1.95
X3.7053Y-3.725
X3.75Y-0.95
X3.75Y-4.55
X3.8053Y-3.725
X3.85Y-0.95
X3.95Y-0.95
X4.05Y-0.95
X4.5262Y-1.4159
X4.5262Y-1.5159
X4.5262Y-1.6159
X4.5262Y-1.7159
X4.5262Y-1.8159
X4.5262Y-1.9159
X4.5262Y-2.0159
X4.5262Y-2.1159
X4.5262Y-2.2159
X4.5262Y-2.3159
X4.5262Y-2.4159
X4.5262Y-2.5159
X4.5262Y-2.6159
X4.5262Y-2.7159
X4.5262Y-2.8159
X4.5262Y-2.9159
X4.5262Y-3.0159
X4.5262Y-3.1159
X4.5262Y-3.2159
X4.5262Y-3.3159
X4.5262Y-3.4159
X4.5262Y-3.5159
X4.5262Y-3.6159
X4.5262Y-3.7159
X4.5262Y-3.8159
X4.5262Y-3.9159
X4.5262Y-4.0159
X4.5262Y-4.1159
T6
X1.0Y-1.025
X1.0Y-4.475
X4.45Y-1.025
X4.45Y-4.475
T3
G00X1.4717Y-3.9823
M15
G01X1.4717Y-4.0177
M16
G05
G00X1.9283Y-3.9823
M15
G01X1.9283Y-4.0177
M16
G05
T0
M30
