%TF.GenerationSoftware,KiCad,Pcbnew,10.0.4*%
%TF.CreationDate,2026-07-19T13:19:48-05:00*%
%TF.ProjectId,LED-100,4c45442d-3130-4302-9e6b-696361645f70,4*%
%TF.SameCoordinates,Original*%
%TF.FileFunction,Soldermask,Top*%
%TF.FilePolarity,Negative*%
%FSLAX46Y46*%
G04 Gerber Fmt 4.6, Leading zero omitted, Abs format (unit mm)*
G04 Created by KiCad (PCBNEW 10.0.4) date 2026-07-19 13:19:48*
%MOMM*%
%LPD*%
G01*
G04 APERTURE LIST*
G04 Aperture macros list*
%AMRoundRect*
0 Rectangle with rounded corners*
0 $1 Rounding radius*
0 $2 $3 $4 $5 $6 $7 $8 $9 X,Y pos of 4 corners*
0 Add a 4 corners polygon primitive as box body*
4,1,4,$2,$3,$4,$5,$6,$7,$8,$9,$2,$3,0*
0 Add four circle primitives for the rounded corners*
1,1,$1+$1,$2,$3*
1,1,$1+$1,$4,$5*
1,1,$1+$1,$6,$7*
1,1,$1+$1,$8,$9*
0 Add four rect primitives between the rounded corners*
20,1,$1+$1,$2,$3,$4,$5,0*
20,1,$1+$1,$4,$5,$6,$7,0*
20,1,$1+$1,$6,$7,$8,$9,0*
20,1,$1+$1,$8,$9,$2,$3,0*%
%AMRotRect*
0 Rectangle, with rotation*
0 The origin of the aperture is its center*
0 $1 length*
0 $2 width*
0 $3 Rotation angle, in degrees counterclockwise*
0 Add horizontal line*
21,1,$1,$2,0,0,$3*%
G04 Aperture macros list end*
%ADD10C,1.600000*%
%ADD11C,2.000000*%
%ADD12RoundRect,0.250000X0.550000X-0.550000X0.550000X0.550000X-0.550000X0.550000X-0.550000X-0.550000X0*%
%ADD13R,1.600000X1.600000*%
%ADD14C,1.400000*%
%ADD15R,1.700000X1.700000*%
%ADD16C,1.700000*%
%ADD17RoundRect,0.100000X0.380070X0.521491X-0.521491X-0.380070X-0.380070X-0.521491X0.521491X0.380070X0*%
%ADD18RotRect,1.700000X1.700000X315.000000*%
%ADD19C,4.700000*%
%ADD20C,8.600000*%
%ADD21R,4.110000X4.360000*%
%ADD22R,1.200000X0.400000*%
%ADD23C,1.800000*%
%ADD24C,4.400000*%
%ADD25R,4.360000X4.110000*%
%ADD26R,0.400000X1.200000*%
G04 APERTURE END LIST*
D10*
%TO.C,C3*%
X88250000Y-97500000D03*
X85750000Y-97500000D03*
%TD*%
D11*
%TO.C,SW2*%
X59707108Y-94389088D03*
X55110913Y-89792894D03*
X62889088Y-91207107D03*
X58292894Y-86610913D03*
%TD*%
D12*
%TO.C,C6*%
X33000000Y-80500000D03*
D10*
X33000000Y-78000000D03*
%TD*%
%TO.C,RN1*%
X33000000Y-85640000D03*
X33000000Y-88180000D03*
X33000000Y-90720000D03*
X33000000Y-93260000D03*
X33000000Y-95800000D03*
X33000000Y-98340000D03*
X33000000Y-100880000D03*
X33000000Y-103420000D03*
X33000000Y-105960000D03*
D13*
X33000000Y-108500000D03*
%TD*%
D14*
%TO.C,R4*%
X83000000Y-124500000D03*
X86592102Y-120907898D03*
%TD*%
%TO.C,R3*%
X93000000Y-94000000D03*
X87920000Y-94000000D03*
%TD*%
%TO.C,R2*%
X83920000Y-131500000D03*
X89000000Y-131500000D03*
%TD*%
%TO.C,R1*%
X61500000Y-79500000D03*
X56420000Y-79500000D03*
%TD*%
D10*
%TO.C,C5*%
X49883884Y-106883884D03*
X48116117Y-105116117D03*
%TD*%
%TO.C,C4*%
X40000000Y-116383884D03*
X38232233Y-114616117D03*
%TD*%
%TO.C,C2*%
X81500000Y-129500000D03*
X79000000Y-129500000D03*
%TD*%
%TO.C,C1*%
X67000000Y-82500000D03*
X64500000Y-82500000D03*
%TD*%
D15*
%TO.C,TP2*%
X45000000Y-89500000D03*
%TD*%
%TO.C,TP1*%
X45000000Y-83500000D03*
%TD*%
%TO.C,J5*%
X97989520Y-133190430D03*
D16*
X97989520Y-135730430D03*
X97989520Y-138270430D03*
X97989520Y-140810430D03*
%TD*%
D17*
%TO.C,U6*%
X45500000Y-109000000D03*
X45040381Y-108540381D03*
X44580762Y-108080761D03*
X44121142Y-107621142D03*
X43661523Y-107161522D03*
X43201903Y-106701903D03*
X42742284Y-106242284D03*
X38694098Y-110290470D03*
X39153717Y-110750089D03*
X39613336Y-111209709D03*
X40072956Y-111669328D03*
X40532575Y-112128948D03*
X40992195Y-112588567D03*
X41451814Y-113048186D03*
%TD*%
%TO.C,U5*%
X55548186Y-98951814D03*
X55088567Y-98492195D03*
X54628948Y-98032575D03*
X54169328Y-97572956D03*
X53709709Y-97113336D03*
X53250089Y-96653717D03*
X52790470Y-96194098D03*
X48742284Y-100242284D03*
X49201903Y-100701903D03*
X49661522Y-101161523D03*
X50121142Y-101621142D03*
X50580761Y-102080762D03*
X51040381Y-102540381D03*
X51500000Y-103000000D03*
%TD*%
D15*
%TO.C,J7*%
X45000000Y-77000000D03*
%TD*%
D18*
%TO.C,J6*%
X82000000Y-112589155D03*
D16*
X80203949Y-114385206D03*
X78407898Y-116181257D03*
X76611846Y-117977309D03*
X74815795Y-119773360D03*
%TD*%
D15*
%TO.C,J4*%
X20000000Y-113500000D03*
D16*
X20000000Y-110960000D03*
X20000000Y-108420000D03*
X20000000Y-105880000D03*
X20000000Y-103340000D03*
X20000000Y-100800000D03*
X20000000Y-98260000D03*
X20000000Y-95720000D03*
X20000000Y-93180000D03*
X20000000Y-90640000D03*
X20000000Y-88100000D03*
X20000000Y-85560000D03*
X20000000Y-83020000D03*
X20000000Y-80480000D03*
X20000000Y-77940000D03*
X20000000Y-75400000D03*
X20000000Y-72860000D03*
%TD*%
D15*
%TO.C,J1*%
X100655000Y-58225000D03*
D16*
X98115000Y-58225000D03*
X95575000Y-58225000D03*
X93035000Y-58225000D03*
X90495000Y-58225000D03*
X87955000Y-58225000D03*
X85415000Y-58225000D03*
X82875000Y-58225000D03*
X80335000Y-58225000D03*
X77795000Y-58225000D03*
X75255000Y-58225000D03*
X72715000Y-58225000D03*
X70175000Y-58225000D03*
X67635000Y-58225000D03*
X65095000Y-58225000D03*
X62555000Y-58225000D03*
X60015000Y-58225000D03*
X57475000Y-58225000D03*
X54935000Y-58225000D03*
X52395000Y-58225000D03*
X49855000Y-58225000D03*
X47315000Y-58225000D03*
X44775000Y-58225000D03*
X42235000Y-58225000D03*
X39695000Y-58225000D03*
X37155000Y-58225000D03*
X34615000Y-58225000D03*
X32075000Y-58225000D03*
%TD*%
D15*
%TO.C,J3*%
X113575000Y-139780000D03*
D16*
X113575000Y-137240000D03*
X113575000Y-134700000D03*
X113575000Y-132160000D03*
X113575000Y-129620000D03*
X113575000Y-127080000D03*
X113575000Y-124540000D03*
X113575000Y-122000000D03*
X113575000Y-119460000D03*
X113575000Y-116920000D03*
X113575000Y-114380000D03*
X113575000Y-111840000D03*
X113575000Y-109300000D03*
X113575000Y-106760000D03*
X113575000Y-104220000D03*
X113575000Y-101680000D03*
X113575000Y-99140000D03*
X113575000Y-96600000D03*
X113575000Y-94060000D03*
X113575000Y-91520000D03*
X113575000Y-88980000D03*
X113575000Y-86440000D03*
X113575000Y-83900000D03*
X113575000Y-81360000D03*
X113575000Y-78820000D03*
X113575000Y-76280000D03*
X113575000Y-73740000D03*
X113575000Y-71200000D03*
%TD*%
D15*
%TO.C,J2*%
X95820000Y-152730000D03*
D16*
X93280000Y-152730000D03*
X90740000Y-152730000D03*
X88200000Y-152730000D03*
X85660000Y-152730000D03*
X83120000Y-152730000D03*
X80580000Y-152730000D03*
X78040000Y-152730000D03*
X75500000Y-152730000D03*
X72960000Y-152730000D03*
X70420000Y-152730000D03*
X67880000Y-152730000D03*
X65340000Y-152730000D03*
X62800000Y-152730000D03*
X60260000Y-152730000D03*
X57720000Y-152730000D03*
X55180000Y-152730000D03*
X52640000Y-152730000D03*
X50100000Y-152730000D03*
X47560000Y-152730000D03*
X45020000Y-152730000D03*
X42480000Y-152730000D03*
X39940000Y-152730000D03*
%TD*%
D19*
%TO.C,H3*%
X111000000Y-61000000D03*
D20*
X111000000Y-61000000D03*
%TD*%
D19*
%TO.C,H4*%
X111000000Y-150000000D03*
D20*
X111000000Y-150000000D03*
%TD*%
D18*
%TO.C,U4*%
X68223693Y-94631590D03*
D16*
X66427641Y-96427641D03*
X64631590Y-98223692D03*
X62835539Y-100019744D03*
X61039488Y-101815795D03*
X59243437Y-103611846D03*
X57447385Y-105407897D03*
X55651334Y-107203949D03*
X53855283Y-109000000D03*
X52059232Y-110796051D03*
X50263180Y-112592102D03*
X48467129Y-114388153D03*
X46671078Y-116184205D03*
X44875027Y-117980256D03*
X55651334Y-128756563D03*
X57447385Y-126960512D03*
X59243437Y-125164461D03*
X61039488Y-123368410D03*
X62835539Y-121572358D03*
X64631590Y-119776307D03*
X66427641Y-117980256D03*
X68223693Y-116184205D03*
X70019744Y-114388153D03*
X71815795Y-112592102D03*
X73611846Y-110796051D03*
X75407898Y-109000000D03*
X77203949Y-107203949D03*
X79000000Y-105407897D03*
%TD*%
D21*
%TO.C,U1*%
X69135000Y-74225000D03*
D22*
X72785000Y-79100000D03*
X72785000Y-78450000D03*
X72785000Y-77800000D03*
X72785000Y-77150000D03*
X72785000Y-76500000D03*
X72785000Y-75850000D03*
X72785000Y-75200000D03*
X72785000Y-74550000D03*
X72785000Y-73900000D03*
X72785000Y-73250000D03*
X72785000Y-72600000D03*
X72785000Y-71950000D03*
X72785000Y-71300000D03*
X72785000Y-70650000D03*
X72785000Y-70000000D03*
X72785000Y-69350000D03*
X65485000Y-69350000D03*
X65485000Y-70000000D03*
X65485000Y-70650000D03*
X65485000Y-71300000D03*
X65485000Y-71950000D03*
X65485000Y-72600000D03*
X65485000Y-73250000D03*
X65485000Y-73900000D03*
X65485000Y-74550000D03*
X65485000Y-75200000D03*
X65485000Y-75850000D03*
X65485000Y-76500000D03*
X65485000Y-77150000D03*
X65485000Y-77800000D03*
X65485000Y-78450000D03*
X65485000Y-79100000D03*
%TD*%
D23*
%TO.C,RV2*%
X44083131Y-130062632D03*
X45850898Y-131830399D03*
X47618665Y-133598166D03*
D24*
X44012420Y-139891416D03*
X37789881Y-133668877D03*
%TD*%
D21*
%TO.C,U2*%
X77500000Y-137005000D03*
D22*
X73850000Y-132130000D03*
X73850000Y-132780000D03*
X73850000Y-133430000D03*
X73850000Y-134080000D03*
X73850000Y-134730000D03*
X73850000Y-135380000D03*
X73850000Y-136030000D03*
X73850000Y-136680000D03*
X73850000Y-137330000D03*
X73850000Y-137980000D03*
X73850000Y-138630000D03*
X73850000Y-139280000D03*
X73850000Y-139930000D03*
X73850000Y-140580000D03*
X73850000Y-141230000D03*
X73850000Y-141880000D03*
X81150000Y-141880000D03*
X81150000Y-141230000D03*
X81150000Y-140580000D03*
X81150000Y-139930000D03*
X81150000Y-139280000D03*
X81150000Y-138630000D03*
X81150000Y-137980000D03*
X81150000Y-137330000D03*
X81150000Y-136680000D03*
X81150000Y-136030000D03*
X81150000Y-135380000D03*
X81150000Y-134730000D03*
X81150000Y-134080000D03*
X81150000Y-133430000D03*
X81150000Y-132780000D03*
X81150000Y-132130000D03*
%TD*%
D19*
%TO.C,H1*%
X22000000Y-61000000D03*
D20*
X22000000Y-61000000D03*
%TD*%
D25*
%TO.C,U3*%
X98000000Y-101000000D03*
D26*
X93125000Y-104650000D03*
X93775000Y-104650000D03*
X94425000Y-104650000D03*
X95075000Y-104650000D03*
X95725000Y-104650000D03*
X96375000Y-104650000D03*
X97025000Y-104650000D03*
X97675000Y-104650000D03*
X98325000Y-104650000D03*
X98975000Y-104650000D03*
X99625000Y-104650000D03*
X100275000Y-104650000D03*
X100925000Y-104650000D03*
X101575000Y-104650000D03*
X102225000Y-104650000D03*
X102875000Y-104650000D03*
X102875000Y-97350000D03*
X102225000Y-97350000D03*
X101575000Y-97350000D03*
X100925000Y-97350000D03*
X100275000Y-97350000D03*
X99625000Y-97350000D03*
X98975000Y-97350000D03*
X98325000Y-97350000D03*
X97675000Y-97350000D03*
X97025000Y-97350000D03*
X96375000Y-97350000D03*
X95725000Y-97350000D03*
X95075000Y-97350000D03*
X94425000Y-97350000D03*
X93775000Y-97350000D03*
X93125000Y-97350000D03*
%TD*%
D19*
%TO.C,H2*%
X22000000Y-150000000D03*
D20*
X22000000Y-150000000D03*
%TD*%
D23*
%TO.C,RV1*%
X33010229Y-118954237D03*
X34777996Y-120722004D03*
X36545763Y-122489771D03*
D24*
X32939518Y-128783021D03*
X26716979Y-122560482D03*
%TD*%
M02*
